<?xml version="1.0" encoding="UTF-8"?>
<svg width="387px" height="549px" viewBox="0 0 387 549" version="1.1" xmlns="http://www.w3.org/2000/svg" xmlns:xlink="http://www.w3.org/1999/xlink">
    <!-- Generator: Sketch 41 (35326) - http://www.bohemiancoding.com/sketch -->
    <title>home-hero</title>
    <desc>Created with Sketch.</desc>
    <defs>
        <path d="M182.586167,264.636073 C188.443908,261.122513 197.937169,261.120106 203.798923,264.636073 L381.990279,371.517916 C387.84802,375.031476 387.852033,380.725677 381.990279,384.241644 L203.798923,491.123487 C197.941182,494.637047 188.447921,494.639454 182.586167,491.123487 L4.39481064,384.241644 C-1.46293023,380.728084 -1.46694318,375.033883 4.39481064,371.517916 L182.586167,264.636073 Z" id="path-1"></path>
        <mask id="mask-2" maskContentUnits="userSpaceOnUse" maskUnits="objectBoundingBox" x="0" y="0" width="386.38509" height="231.75956" fill="white">
            <use xlink:href="#path-1"></use>
        </mask>
        <path d="M182.586167,208.636073 C188.443908,205.122513 197.937169,205.120106 203.798923,208.636073 L381.990279,315.517916 C387.84802,319.031476 387.852033,324.725677 381.990279,328.241644 L203.798923,435.123487 C197.941182,438.637047 188.447921,438.639454 182.586167,435.123487 L4.39481064,328.241644 C-1.46293023,324.728084 -1.46694318,319.033883 4.39481064,315.517916 L182.586167,208.636073 Z" id="path-3"></path>
        <mask id="mask-4" maskContentUnits="userSpaceOnUse" maskUnits="objectBoundingBox" x="0" y="0" width="386.38509" height="231.75956" fill="white">
            <use xlink:href="#path-3"></use>
        </mask>
        <path d="M182.586167,148.636073 C188.443908,145.122513 197.937169,145.120106 203.798923,148.636073 L381.990279,255.517916 C387.84802,259.031476 387.852033,264.725677 381.990279,268.241644 L203.798923,375.123487 C197.941182,378.637047 188.447921,378.639454 182.586167,375.123487 L4.39481064,268.241644 C-1.46293023,264.728084 -1.46694318,259.033883 4.39481064,255.517916 L182.586167,148.636073 Z" id="path-5"></path>
        <mask id="mask-6" maskContentUnits="userSpaceOnUse" maskUnits="objectBoundingBox" x="0" y="0" width="386.38509" height="231.75956" fill="white">
            <use xlink:href="#path-5"></use>
        </mask>
        <path d="M182.586167,89.6360732 C188.443908,86.1225125 197.937169,86.1201055 203.798923,89.6360732 L381.990279,196.517916 C387.84802,200.031476 387.852033,205.725677 381.990279,209.241644 L203.798923,316.123487 C197.941182,319.637047 188.447921,319.639454 182.586167,316.123487 L4.39481064,209.241644 C-1.46293023,205.728084 -1.46694318,200.033883 4.39481064,196.517916 L182.586167,89.6360732 Z" id="path-7"></path>
        <mask id="mask-8" maskContentUnits="userSpaceOnUse" maskUnits="objectBoundingBox" x="0" y="0" width="386.38509" height="231.75956" fill="white">
            <use xlink:href="#path-7"></use>
        </mask>
        <ellipse id="path-9" cx="193" cy="197" rx="13" ry="11"></ellipse>
        <mask id="mask-10" maskContentUnits="userSpaceOnUse" maskUnits="objectBoundingBox" x="0" y="0" width="26" height="22" fill="white">
            <use xlink:href="#path-9"></use>
        </mask>
        <path d="M206.127654,15.179604 C206.527141,14.958999 205.955726,13.6812581 204.877654,13.929604 L197.377654,13.929604 L201.127654,1.42960401 C200.972557,0.528665327 199.342146,-0.399122678 198.627654,0.179604015 L181.127654,20.179604 C180.728166,20.400209 181.299582,21.67795 182.377654,21.429604 L189.877654,21.429604 L186.127654,33.929604 C186.282751,34.8305427 187.913162,35.7583307 188.627654,35.179604 L206.127654,15.179604 Z" id="path-11"></path>
        <mask id="mask-12" maskContentUnits="userSpaceOnUse" maskUnits="objectBoundingBox" x="0" y="0" width="25.2553075" height="35.359208" fill="white">
            <use xlink:href="#path-11"></use>
        </mask>
        <path d="M100.127654,60.179604 C100.527141,59.958999 99.9557258,58.6812581 98.8776537,58.929604 L91.3776537,58.929604 L95.1276537,46.429604 C94.9725566,45.5286653 93.3421457,44.6008773 92.6276537,45.179604 L75.1276537,65.179604 C74.728166,65.400209 75.2995816,66.67795 76.3776537,66.429604 L83.8776537,66.429604 L80.1276537,78.929604 C80.2827508,79.8305427 81.9131618,80.7583307 82.6276537,80.179604 L100.127654,60.179604 Z" id="path-13"></path>
        <mask id="mask-14" maskContentUnits="userSpaceOnUse" maskUnits="objectBoundingBox" x="0" y="0" width="25.2553075" height="35.359208" fill="white">
            <use xlink:href="#path-13"></use>
        </mask>
        <path d="M311.127654,61.179604 C311.527141,60.958999 310.955726,59.6812581 309.877654,59.929604 L302.377654,59.929604 L306.127654,47.429604 C305.972557,46.5286653 304.342146,45.6008773 303.627654,46.179604 L286.127654,66.179604 C285.728166,66.400209 286.299582,67.67795 287.377654,67.429604 L294.877654,67.429604 L291.127654,79.929604 C291.282751,80.8305427 292.913162,81.7583307 293.627654,81.179604 L311.127654,61.179604 Z" id="path-15"></path>
        <mask id="mask-16" maskContentUnits="userSpaceOnUse" maskUnits="objectBoundingBox" x="0" y="0" width="25.2553075" height="35.359208" fill="white">
            <use xlink:href="#path-15"></use>
        </mask>
    </defs>
    <g id="Page-1" stroke="none" stroke-width="1" fill="none" fill-rule="evenodd">
        <g id="Homepage" transform="translate(-839.000000, -241.000000)">
            <g id="home-hero" transform="translate(839.000000, 241.000000)">
                <g id="Group-17" transform="translate(184.000000, 386.000000)" stroke="#84D2E8" stroke-width="3" stroke-linecap="round" stroke-linejoin="round">
                    <path d="M9.23828125,0.40234375 L9.23828125,152.402344" id="Path-2" stroke-dasharray="4,6"></path>
                    <polyline id="Rectangle-6" transform="translate(9.278175, 152.278175) rotate(-315.000000) translate(-9.278175, -152.278175) " points="15.2781746 146.278175 15.2781746 158.278175 3.27817459 158.278175"></polyline>
                </g>
                <g id="Group-17" transform="translate(154.000000, 366.000000)" stroke="#84D2E8" stroke-width="3" stroke-linecap="round" stroke-linejoin="round">
                    <path d="M9.23828125,0.40234375 L9.23828125,152.402344" id="Path-2" stroke-dasharray="4,6"></path>
                    <polyline id="Rectangle-6" transform="translate(9.278175, 152.278175) rotate(-315.000000) translate(-9.278175, -152.278175) " points="15.2781746 146.278175 15.2781746 158.278175 3.27817459 158.278175"></polyline>
                </g>
                <g id="Group-17" transform="translate(214.000000, 366.000000)" stroke="#84D2E8" stroke-width="3" stroke-linecap="round" stroke-linejoin="round">
                    <path d="M9.23828125,0.40234375 L9.23828125,152.402344" id="Path-2" stroke-dasharray="4,6"></path>
                    <polyline id="Rectangle-6" transform="translate(9.278175, 152.278175) rotate(-315.000000) translate(-9.278175, -152.278175) " points="15.2781746 146.278175 15.2781746 158.278175 3.27817459 158.278175"></polyline>
                </g>
                <g id="Group-15" opacity="0" transform="translate(253.000000, 436.500000) rotate(-30.000000) translate(-253.000000, -436.500000) translate(244.000000, 356.000000)" stroke="#84D2E8" stroke-width="3" stroke-linecap="round" stroke-linejoin="round">
                    <path d="M9.23828125,0.40234375 L9.23828125,152.402344" id="Path-2" stroke-dasharray="4,6"></path>
                    <polyline id="Rectangle-6" transform="translate(9.278175, 152.278175) rotate(-315.000000) translate(-9.278175, -152.278175) " points="15.2781746 146.278175 15.2781746 158.278175 3.27817459 158.278175"></polyline>
                </g>
                <g id="Group-19" opacity="0" transform="translate(133.000000, 436.500000) rotate(-330.000000) translate(-133.000000, -436.500000) translate(124.000000, 356.000000)" stroke="#84D2E8" stroke-width="3" stroke-linecap="round" stroke-linejoin="round">
                    <path d="M9.23828125,0.40234375 L9.23828125,152.402344" id="Path-2" stroke-dasharray="4,6"></path>
                    <polyline id="Rectangle-6" transform="translate(9.278175, 152.278175) rotate(-315.000000) translate(-9.278175, -152.278175) " points="15.2781746 146.278175 15.2781746 158.278175 3.27817459 158.278175"></polyline>
                </g>
                <path d="M182.586167,275.636073 C188.443908,272.122513 197.937169,272.120106 203.798923,275.636073 L381.990279,382.517916 C387.84802,386.031476 387.852033,391.725677 381.990279,395.241644 L203.798923,502.123487 C197.941182,505.637047 188.447921,505.639454 182.586167,502.123487 L4.39481064,395.241644 C-1.46293023,391.728084 -1.46694318,386.033883 4.39481064,382.517916 L182.586167,275.636073 Z" id="Rectangle" fill="#0AA6D2" opacity="0.0477807971"></path>
                <use id="Rectangle" stroke="#0AA6D2" mask="url(#mask-2)" stroke-width="4" fill-opacity="0.901522871" fill="#ECF8FC" xlink:href="#path-1"></use>
                <path d="M182.586167,219.636073 C188.443908,216.122513 197.937169,216.120106 203.798923,219.636073 L381.990279,326.517916 C387.84802,330.031476 387.852033,335.725677 381.990279,339.241644 L203.798923,446.123487 C197.941182,449.637047 188.447921,449.639454 182.586167,446.123487 L4.39481064,339.241644 C-1.46293023,335.728084 -1.46694318,330.033883 4.39481064,326.517916 L182.586167,219.636073 Z" id="Rectangle" fill="#0AA6D2" opacity="0.0477807971"></path>
                <use id="Rectangle" stroke="#0AA6D2" mask="url(#mask-4)" stroke-width="4" fill-opacity="0.901522871" fill="#ECF8FC" xlink:href="#path-3"></use>
                <path d="M182.586167,159.636073 C188.443908,156.122513 197.937169,156.120106 203.798923,159.636073 L381.990279,266.517916 C387.84802,270.031476 387.852033,275.725677 381.990279,279.241644 L203.798923,386.123487 C197.941182,389.637047 188.447921,389.639454 182.586167,386.123487 L4.39481064,279.241644 C-1.46293023,275.728084 -1.46694318,270.033883 4.39481064,266.517916 L182.586167,159.636073 Z" id="Rectangle" fill="#0AA6D2" opacity="0.0477807971"></path>
                <use id="Rectangle" stroke="#0AA6D2" mask="url(#mask-6)" stroke-width="4" fill-opacity="0.901522871" fill="#ECF8FC" xlink:href="#path-5"></use>
                <path d="M182.586167,100.636073 C188.443908,97.1225125 197.937169,97.1201055 203.798923,100.636073 L381.990279,207.517916 C387.84802,211.031476 387.852033,216.725677 381.990279,220.241644 L203.798923,327.123487 C197.941182,330.637047 188.447921,330.639454 182.586167,327.123487 L4.39481064,220.241644 C-1.46293023,216.728084 -1.46694318,211.033883 4.39481064,207.517916 L182.586167,100.636073 Z" id="Rectangle" fill="#0AA6D2" opacity="0.0477807971"></path>
                <use id="Rectangle" stroke="#0AA6D2" mask="url(#mask-8)" stroke-width="4" fill-opacity="0.901522871" fill="#ECF8FC" xlink:href="#path-7"></use>
                <use id="Oval" stroke="#84D2E8" mask="url(#mask-10)" stroke-width="4" fill="#E0F4F9" xlink:href="#path-9"></use>
                <polyline id="Path-2" stroke="#84D2E8" stroke-width="3" stroke-linecap="round" stroke-linejoin="round" stroke-dasharray="4,6" points="277.152344 80.703125 197.238281 135.699219 197.238281 202.679688"></polyline>
                <polyline id="Path-2" stroke="#84D2E8" stroke-width="3" stroke-linecap="round" stroke-linejoin="round" stroke-dasharray="4,6" points="193.238281 52.4023438 193.238281 132.699219 193.238281 202.679687"></polyline>
                <use id="Shape" stroke="#84D2E8" mask="url(#mask-12)" stroke-width="4" fill-opacity="0.151862545" fill="#84D2E8" xlink:href="#path-11"></use>
                <use id="Shape" stroke="#84D2E8" mask="url(#mask-14)" stroke-width="4" fill-opacity="0.151862545" fill="#84D2E8" xlink:href="#path-13"></use>
                <polyline id="Path-2" stroke="#84D2E8" stroke-width="3" stroke-linecap="round" stroke-linejoin="round" stroke-dasharray="4,6" transform="translate(149.195312, 141.691406) scale(-1, 1) translate(-149.195312, -141.691406) " points="189.152344 80.703125 109.238281 135.699219 109.238281 202.679688"></polyline>
                <path d="M209.127654,18.179604 C209.527141,17.958999 208.955726,16.6812581 207.877654,16.929604 L200.377654,16.929604 L204.127654,4.42960401 C203.972557,3.52866533 202.342146,2.60087732 201.627654,3.17960401 L184.127654,23.179604 C183.728166,23.400209 184.299582,24.67795 185.377654,24.429604 L192.877654,24.429604 L189.127654,36.929604 C189.282751,37.8305427 190.913162,38.7583307 191.627654,38.179604 L209.127654,18.179604 Z" id="Shape" fill-opacity="0.151862545" fill="#84D2E8"></path>
                <path d="M103.127654,63.179604 C103.527141,62.958999 102.955726,61.6812581 101.877654,61.929604 L94.3776537,61.929604 L98.1276537,49.429604 C97.9725566,48.5286653 96.3421457,47.6008773 95.6276537,48.179604 L78.1276537,68.179604 C77.728166,68.400209 78.2995816,69.67795 79.3776537,69.429604 L86.8776537,69.429604 L83.1276537,81.929604 C83.2827508,82.8305427 84.9131618,83.7583307 85.6276537,83.179604 L103.127654,63.179604 Z" id="Shape" fill-opacity="0.151862545" fill="#84D2E8"></path>
                <path d="M314.127654,64.179604 C314.527141,63.958999 313.955726,62.6812581 312.877654,62.929604 L305.377654,62.929604 L309.127654,50.429604 C308.972557,49.5286653 307.342146,48.6008773 306.627654,49.179604 L289.127654,69.179604 C288.728166,69.400209 289.299582,70.67795 290.377654,70.429604 L297.877654,70.429604 L294.127654,82.929604 C294.282751,83.8305427 295.913162,84.7583307 296.627654,84.179604 L314.127654,64.179604 Z" id="Shape" fill-opacity="0.151862545" fill="#84D2E8"></path>
                <use id="Shape" stroke="#84D2E8" mask="url(#mask-16)" stroke-width="4" fill-opacity="0.151862545" fill="#84D2E8" xlink:href="#path-15"></use>
                <path d="M190.8,378.672 L192.544,378.672 L197.424,390 L195.12,390 L194.064,387.408 L189.152,387.408 L188.128,390 L185.872,390 L190.8,378.672 Z M193.36,385.68 L191.616,381.072 L189.84,385.68 L193.36,385.68 Z M207.568,385.84 C207.568,386.52267 207.450668,387.138664 207.216,387.688 C206.981332,388.237336 206.661335,388.703998 206.256,389.088 C205.850665,389.472002 205.370669,389.767999 204.816,389.976 C204.261331,390.184001 203.65867,390.288 203.008,390.288 C202.35733,390.288 201.754669,390.184001 201.2,389.976 C200.645331,389.767999 200.162669,389.472002 199.752,389.088 C199.341331,388.703998 199.021334,388.237336 198.792,387.688 C198.562666,387.138664 198.448,386.52267 198.448,385.84 L198.448,378.672 L200.464,378.672 L200.464,385.76 C200.464,386.090668 200.506666,386.418665 200.592,386.744 C200.677334,387.069335 200.818666,387.359999 201.016,387.616 C201.213334,387.872001 201.474665,388.079999 201.8,388.24 C202.125335,388.400001 202.527998,388.48 203.008,388.48 C203.488002,388.48 203.890665,388.400001 204.216,388.24 C204.541335,388.079999 204.802666,387.872001 205,387.616 C205.197334,387.359999 205.338666,387.069335 205.424,386.744 C205.509334,386.418665 205.552,386.090668 205.552,385.76 L205.552,378.672 L207.568,378.672 L207.568,385.84 Z M212.256,380.432 L208.784,380.432 L208.784,378.672 L217.744,378.672 L217.744,380.432 L214.272,380.432 L214.272,390 L212.256,390 L212.256,380.432 Z M218.512,384.304 C218.512,383.397329 218.663998,382.57867 218.968,381.848 C219.272002,381.11733 219.693331,380.496003 220.232,379.984 C220.770669,379.471997 221.410663,379.077335 222.152,378.8 C222.893337,378.522665 223.701329,378.384 224.576,378.384 C225.461338,378.384 226.27733,378.522665 227.024,378.8 C227.77067,379.077335 228.415997,379.471997 228.96,379.984 C229.504003,380.496003 229.927998,381.11733 230.232,381.848 C230.536002,382.57867 230.688,383.397329 230.688,384.304 C230.688,385.189338 230.536002,385.99733 230.232,386.728 C229.927998,387.45867 229.504003,388.087997 228.96,388.616 C228.415997,389.144003 227.77067,389.554665 227.024,389.848 C226.27733,390.141335 225.461338,390.288 224.576,390.288 C223.701329,390.288 222.893337,390.141335 222.152,389.848 C221.410663,389.554665 220.770669,389.144003 220.232,388.616 C219.693331,388.087997 219.272002,387.45867 218.968,386.728 C218.663998,385.99733 218.512,385.189338 218.512,384.304 Z M220.704,384.304 C220.704,384.912003 220.797332,385.469331 220.984,385.976 C221.170668,386.482669 221.437332,386.922665 221.784,387.296 C222.130668,387.669335 222.541331,387.959999 223.016,388.168 C223.490669,388.376001 224.015997,388.48 224.592,388.48 C225.168003,388.48 225.695998,388.376001 226.176,388.168 C226.656002,387.959999 227.069332,387.669335 227.416,387.296 C227.762668,386.922665 228.029332,386.482669 228.216,385.976 C228.402668,385.469331 228.496,384.912003 228.496,384.304 C228.496,383.71733 228.402668,383.173336 228.216,382.672 C228.029332,382.170664 227.765335,381.733335 227.424,381.36 C227.082665,380.986665 226.672002,380.693334 226.192,380.48 C225.711998,380.266666 225.17867,380.16 224.592,380.16 C224.00533,380.16 223.474669,380.266666 223,380.48 C222.525331,380.693334 222.117335,380.986665 221.776,381.36 C221.434665,381.733335 221.170668,382.170664 220.984,382.672 C220.797332,383.173336 220.704,383.71733 220.704,384.304 Z M232.64,378.672 L235.792,378.672 L238.736,386.72 L238.784,386.72 L241.696,378.672 L244.864,378.672 L244.864,390 L242.864,390 L242.864,380.896 L242.832,380.896 L239.392,390 L237.984,390 L234.592,380.896 L234.56,380.896 L234.56,390 L232.64,390 L232.64,378.672 Z M250.912,378.672 L252.656,378.672 L257.536,390 L255.232,390 L254.176,387.408 L249.264,387.408 L248.24,390 L245.984,390 L250.912,378.672 Z M253.472,385.68 L251.728,381.072 L249.952,385.68 L253.472,385.68 Z M260.944,380.432 L257.472,380.432 L257.472,378.672 L266.432,378.672 L266.432,380.432 L262.96,380.432 L262.96,390 L260.944,390 L260.944,380.432 Z M267.744,378.672 L269.76,378.672 L269.76,390 L267.744,390 L267.744,378.672 Z M271.712,384.304 C271.712,383.397329 271.863998,382.57867 272.168,381.848 C272.472002,381.11733 272.893331,380.496003 273.432,379.984 C273.970669,379.471997 274.610663,379.077335 275.352,378.8 C276.093337,378.522665 276.901329,378.384 277.776,378.384 C278.661338,378.384 279.47733,378.522665 280.224,378.8 C280.97067,379.077335 281.615997,379.471997 282.16,379.984 C282.704003,380.496003 283.127998,381.11733 283.432,381.848 C283.736002,382.57867 283.888,383.397329 283.888,384.304 C283.888,385.189338 283.736002,385.99733 283.432,386.728 C283.127998,387.45867 282.704003,388.087997 282.16,388.616 C281.615997,389.144003 280.97067,389.554665 280.224,389.848 C279.47733,390.141335 278.661338,390.288 277.776,390.288 C276.901329,390.288 276.093337,390.141335 275.352,389.848 C274.610663,389.554665 273.970669,389.144003 273.432,388.616 C272.893331,388.087997 272.472002,387.45867 272.168,386.728 C271.863998,385.99733 271.712,385.189338 271.712,384.304 Z M273.904,384.304 C273.904,384.912003 273.997332,385.469331 274.184,385.976 C274.370668,386.482669 274.637332,386.922665 274.984,387.296 C275.330668,387.669335 275.741331,387.959999 276.216,388.168 C276.690669,388.376001 277.215997,388.48 277.792,388.48 C278.368003,388.48 278.895998,388.376001 279.376,388.168 C279.856002,387.959999 280.269332,387.669335 280.616,387.296 C280.962668,386.922665 281.229332,386.482669 281.416,385.976 C281.602668,385.469331 281.696,384.912003 281.696,384.304 C281.696,383.71733 281.602668,383.173336 281.416,382.672 C281.229332,382.170664 280.965335,381.733335 280.624,381.36 C280.282665,380.986665 279.872002,380.693334 279.392,380.48 C278.911998,380.266666 278.37867,380.16 277.792,380.16 C277.20533,380.16 276.674669,380.266666 276.2,380.48 C275.725331,380.693334 275.317335,380.986665 274.976,381.36 C274.634665,381.733335 274.370668,382.170664 274.184,382.672 C273.997332,383.173336 273.904,383.71733 273.904,384.304 Z M285.84,378.672 L288.512,378.672 L293.776,387.152 L293.808,387.152 L293.808,378.672 L295.824,378.672 L295.824,390 L293.264,390 L287.888,381.248 L287.856,381.248 L287.856,390 L285.84,390 L285.84,378.672 Z" id="AUTOMATION" fill="#0AA6D2" opacity="0.604789402" transform="translate(240.848000, 384.336000) rotate(-31.000000) translate(-240.848000, -384.336000) "></path>
                <path d="M189.248,435.672 L193.264,435.672 C194.000004,435.672 194.74133,435.767999 195.488,435.96 C196.23467,436.152001 196.906664,436.469331 197.504,436.912 C198.101336,437.354669 198.586665,437.935996 198.96,438.656 C199.333335,439.376004 199.52,440.269328 199.52,441.336 C199.52,442.328005 199.333335,443.18133 198.96,443.896 C198.586665,444.61067 198.101336,445.197331 197.504,445.656 C196.906664,446.114669 196.23467,446.453332 195.488,446.672 C194.74133,446.890668 194.000004,447 193.264,447 L189.248,447 L189.248,435.672 Z M192.944,445.24 C193.466669,445.24 193.989331,445.178667 194.512,445.056 C195.034669,444.933333 195.506665,444.725335 195.928,444.432 C196.349335,444.138665 196.693332,443.741336 196.96,443.24 C197.226668,442.738664 197.36,442.104004 197.36,441.336 C197.36,440.525329 197.226668,439.864003 196.96,439.352 C196.693332,438.839997 196.349335,438.440001 195.928,438.152 C195.506665,437.863999 195.034669,437.666667 194.512,437.56 C193.989331,437.453333 193.466669,437.4 192.944,437.4 L191.264,437.4 L191.264,445.24 L192.944,445.24 Z M201.472,435.672 L208.976,435.672 L208.976,437.432 L203.488,437.432 L203.488,440.312 L208.688,440.312 L208.688,442.008 L203.488,442.008 L203.488,445.208 L209.264,445.208 L209.264,447 L201.472,447 L201.472,435.672 Z M211.232,435.672 L214.928,435.672 C215.57867,435.672 216.165331,435.730666 216.688,435.848 C217.210669,435.965334 217.658665,436.157332 218.032,436.424 C218.405335,436.690668 218.693332,437.031998 218.896,437.448 C219.098668,437.864002 219.2,438.36533 219.2,438.952 C219.2,439.581336 219.082668,440.109331 218.848,440.536 C218.613332,440.962669 218.296002,441.306665 217.896,441.568 C217.495998,441.829335 217.029336,442.018666 216.496,442.136 C215.962664,442.253334 215.397336,442.312 214.8,442.312 L213.248,442.312 L213.248,447 L211.232,447 L211.232,435.672 Z M214.656,440.616 C214.986668,440.616 215.301332,440.592 215.6,440.544 C215.898668,440.496 216.165332,440.410667 216.4,440.288 C216.634668,440.165333 216.821333,439.997334 216.96,439.784 C217.098667,439.570666 217.168,439.293335 217.168,438.952 C217.168,438.621332 217.098667,438.352001 216.96,438.144 C216.821333,437.935999 216.637334,437.773334 216.408,437.656 C216.178666,437.538666 215.917335,437.461334 215.624,437.424 C215.330665,437.386666 215.029335,437.368 214.72,437.368 L213.248,437.368 L213.248,440.616 L214.656,440.616 Z M220.992,435.672 L223.008,435.672 L223.008,445.208 L227.824,445.208 L227.824,447 L220.992,447 L220.992,435.672 Z M228.624,441.304 C228.624,440.397329 228.775998,439.57867 229.08,438.848 C229.384002,438.11733 229.805331,437.496003 230.344,436.984 C230.882669,436.471997 231.522663,436.077335 232.264,435.8 C233.005337,435.522665 233.813329,435.384 234.688,435.384 C235.573338,435.384 236.38933,435.522665 237.136,435.8 C237.88267,436.077335 238.527997,436.471997 239.072,436.984 C239.616003,437.496003 240.039998,438.11733 240.344,438.848 C240.648002,439.57867 240.8,440.397329 240.8,441.304 C240.8,442.189338 240.648002,442.99733 240.344,443.728 C240.039998,444.45867 239.616003,445.087997 239.072,445.616 C238.527997,446.144003 237.88267,446.554665 237.136,446.848 C236.38933,447.141335 235.573338,447.288 234.688,447.288 C233.813329,447.288 233.005337,447.141335 232.264,446.848 C231.522663,446.554665 230.882669,446.144003 230.344,445.616 C229.805331,445.087997 229.384002,444.45867 229.08,443.728 C228.775998,442.99733 228.624,442.189338 228.624,441.304 Z M230.816,441.304 C230.816,441.912003 230.909332,442.469331 231.096,442.976 C231.282668,443.482669 231.549332,443.922665 231.896,444.296 C232.242668,444.669335 232.653331,444.959999 233.128,445.168 C233.602669,445.376001 234.127997,445.48 234.704,445.48 C235.280003,445.48 235.807998,445.376001 236.288,445.168 C236.768002,444.959999 237.181332,444.669335 237.528,444.296 C237.874668,443.922665 238.141332,443.482669 238.328,442.976 C238.514668,442.469331 238.608,441.912003 238.608,441.304 C238.608,440.71733 238.514668,440.173336 238.328,439.672 C238.141332,439.170664 237.877335,438.733335 237.536,438.36 C237.194665,437.986665 236.784002,437.693334 236.304,437.48 C235.823998,437.266666 235.29067,437.16 234.704,437.16 C234.11733,437.16 233.586669,437.266666 233.112,437.48 C232.637331,437.693334 232.229335,437.986665 231.888,438.36 C231.546665,438.733335 231.282668,439.170664 231.096,439.672 C230.909332,440.173336 230.816,440.71733 230.816,441.304 Z M245.488,442.088 L241.232,435.672 L243.696,435.672 L246.544,440.44 L249.424,435.672 L251.76,435.672 L247.504,442.088 L247.504,447 L245.488,447 L245.488,442.088 Z M252.704,435.672 L255.856,435.672 L258.8,443.72 L258.848,443.72 L261.76,435.672 L264.928,435.672 L264.928,447 L262.928,447 L262.928,437.896 L262.896,437.896 L259.456,447 L258.048,447 L254.656,437.896 L254.624,437.896 L254.624,447 L252.704,447 L252.704,435.672 Z M267.424,435.672 L274.928,435.672 L274.928,437.432 L269.44,437.432 L269.44,440.312 L274.64,440.312 L274.64,442.008 L269.44,442.008 L269.44,445.208 L275.216,445.208 L275.216,447 L267.424,447 L267.424,435.672 Z M277.184,435.672 L279.856,435.672 L285.12,444.152 L285.152,444.152 L285.152,435.672 L287.168,435.672 L287.168,447 L284.608,447 L279.232,438.248 L279.2,438.248 L279.2,447 L277.184,447 L277.184,435.672 Z M291.952,437.432 L288.48,437.432 L288.48,435.672 L297.44,435.672 L297.44,437.432 L293.968,437.432 L293.968,447 L291.952,447 L291.952,437.432 Z" id="DEPLOYMENT" fill="#0AA6D2" opacity="0.604789402" transform="translate(243.344000, 441.336000) rotate(-31.000000) translate(-243.344000, -441.336000) "></path>
                <path d="M189.248,322.672 L192.4,322.672 L195.344,330.72 L195.392,330.72 L198.304,322.672 L201.472,322.672 L201.472,334 L199.472,334 L199.472,324.896 L199.44,324.896 L196,334 L194.592,334 L191.2,324.896 L191.168,324.896 L191.168,334 L189.248,334 L189.248,322.672 Z M203.424,328.304 C203.424,327.397329 203.575998,326.57867 203.88,325.848 C204.184002,325.11733 204.605331,324.496003 205.144,323.984 C205.682669,323.471997 206.322663,323.077335 207.064,322.8 C207.805337,322.522665 208.613329,322.384 209.488,322.384 C210.373338,322.384 211.18933,322.522665 211.936,322.8 C212.68267,323.077335 213.327997,323.471997 213.872,323.984 C214.416003,324.496003 214.839998,325.11733 215.144,325.848 C215.448002,326.57867 215.6,327.397329 215.6,328.304 C215.6,329.189338 215.448002,329.99733 215.144,330.728 C214.839998,331.45867 214.416003,332.087997 213.872,332.616 C213.327997,333.144003 212.68267,333.554665 211.936,333.848 C211.18933,334.141335 210.373338,334.288 209.488,334.288 C208.613329,334.288 207.805337,334.141335 207.064,333.848 C206.322663,333.554665 205.682669,333.144003 205.144,332.616 C204.605331,332.087997 204.184002,331.45867 203.88,330.728 C203.575998,329.99733 203.424,329.189338 203.424,328.304 Z M205.616,328.304 C205.616,328.912003 205.709332,329.469331 205.896,329.976 C206.082668,330.482669 206.349332,330.922665 206.696,331.296 C207.042668,331.669335 207.453331,331.959999 207.928,332.168 C208.402669,332.376001 208.927997,332.48 209.504,332.48 C210.080003,332.48 210.607998,332.376001 211.088,332.168 C211.568002,331.959999 211.981332,331.669335 212.328,331.296 C212.674668,330.922665 212.941332,330.482669 213.128,329.976 C213.314668,329.469331 213.408,328.912003 213.408,328.304 C213.408,327.71733 213.314668,327.173336 213.128,326.672 C212.941332,326.170664 212.677335,325.733335 212.336,325.36 C211.994665,324.986665 211.584002,324.693334 211.104,324.48 C210.623998,324.266666 210.09067,324.16 209.504,324.16 C208.91733,324.16 208.386669,324.266666 207.912,324.48 C207.437331,324.693334 207.029335,324.986665 206.688,325.36 C206.346665,325.733335 206.082668,326.170664 205.896,326.672 C205.709332,327.173336 205.616,327.71733 205.616,328.304 Z M217.552,322.672 L221.568,322.672 C222.304004,322.672 223.04533,322.767999 223.792,322.96 C224.53867,323.152001 225.210664,323.469331 225.808,323.912 C226.405336,324.354669 226.890665,324.935996 227.264,325.656 C227.637335,326.376004 227.824,327.269328 227.824,328.336 C227.824,329.328005 227.637335,330.18133 227.264,330.896 C226.890665,331.61067 226.405336,332.197331 225.808,332.656 C225.210664,333.114669 224.53867,333.453332 223.792,333.672 C223.04533,333.890668 222.304004,334 221.568,334 L217.552,334 L217.552,322.672 Z M221.248,332.24 C221.770669,332.24 222.293331,332.178667 222.816,332.056 C223.338669,331.933333 223.810665,331.725335 224.232,331.432 C224.653335,331.138665 224.997332,330.741336 225.264,330.24 C225.530668,329.738664 225.664,329.104004 225.664,328.336 C225.664,327.525329 225.530668,326.864003 225.264,326.352 C224.997332,325.839997 224.653335,325.440001 224.232,325.152 C223.810665,324.863999 223.338669,324.666667 222.816,324.56 C222.293331,324.453333 221.770669,324.4 221.248,324.4 L219.568,324.4 L219.568,332.24 L221.248,332.24 Z M229.776,322.672 L237.28,322.672 L237.28,324.432 L231.792,324.432 L231.792,327.312 L236.992,327.312 L236.992,329.008 L231.792,329.008 L231.792,332.208 L237.568,332.208 L237.568,334 L229.776,334 L229.776,322.672 Z M239.536,322.672 L241.552,322.672 L241.552,332.208 L246.368,332.208 L246.368,334 L239.536,334 L239.536,322.672 Z M247.712,322.672 L249.728,322.672 L249.728,332.208 L254.544,332.208 L254.544,334 L247.712,334 L247.712,322.672 Z M255.888,322.672 L257.904,322.672 L257.904,334 L255.888,334 L255.888,322.672 Z M260.4,322.672 L263.072,322.672 L268.336,331.152 L268.368,331.152 L268.368,322.672 L270.384,322.672 L270.384,334 L267.824,334 L262.448,325.248 L262.416,325.248 L262.416,334 L260.4,334 L260.4,322.672 Z M282.8,333.408 C282.223997,333.685335 281.592003,333.901333 280.904,334.056 C280.215997,334.210667 279.424004,334.288 278.528,334.288 C277.610662,334.288 276.773337,334.141335 276.016,333.848 C275.258663,333.554665 274.608003,333.144003 274.064,332.616 C273.519997,332.087997 273.096002,331.45867 272.792,330.728 C272.487998,329.99733 272.336,329.189338 272.336,328.304 C272.336,327.397329 272.493332,326.57867 272.808,325.848 C273.122668,325.11733 273.554664,324.496003 274.104,323.984 C274.653336,323.471997 275.30133,323.077335 276.048,322.8 C276.79467,322.522665 277.605329,322.384 278.48,322.384 C279.386671,322.384 280.215996,322.514665 280.968,322.776 C281.720004,323.037335 282.325331,323.381331 282.784,323.808 L281.392,325.312 C281.103999,324.991998 280.701336,324.720001 280.184,324.496 C279.666664,324.271999 279.104003,324.16 278.496,324.16 C277.898664,324.16 277.357336,324.266666 276.872,324.48 C276.386664,324.693334 275.973335,324.986665 275.632,325.36 C275.290665,325.733335 275.026668,326.170664 274.84,326.672 C274.653332,327.173336 274.56,327.71733 274.56,328.304 C274.56,328.912003 274.653332,329.469331 274.84,329.976 C275.026668,330.482669 275.293332,330.922665 275.64,331.296 C275.986668,331.669335 276.407998,331.959999 276.904,332.168 C277.400002,332.376001 277.962664,332.48 278.592,332.48 C279.456004,332.48 280.207997,332.346668 280.848,332.08 L280.848,329.2 L278.464,329.2 L278.464,327.536 L282.8,327.536 L282.8,333.408 Z" id="MODELLING" fill="#0AA6D2" opacity="0.604789402" transform="translate(236.024000, 328.336000) rotate(-31.000000) translate(-236.024000, -328.336000) "></path>
                <path d="M196.424,265.328 C196.125332,264.922665 195.736002,264.626668 195.256,264.44 C194.775998,264.253332 194.306669,264.16 193.848,264.16 C193.26133,264.16 192.728002,264.266666 192.248,264.48 C191.767998,264.693334 191.354668,264.986665 191.008,265.36 C190.661332,265.733335 190.394668,266.170664 190.208,266.672 C190.021332,267.173336 189.928,267.71733 189.928,268.304 C189.928,268.92267 190.018666,269.487997 190.2,270 C190.381334,270.512003 190.639998,270.951998 190.976,271.32 C191.312002,271.688002 191.714664,271.973332 192.184,272.176 C192.653336,272.378668 193.18133,272.48 193.768,272.48 C194.376003,272.48 194.914664,272.360001 195.384,272.12 C195.853336,271.879999 196.231999,271.562669 196.52,271.168 L198.136,272.304 C197.634664,272.933336 197.021337,273.421332 196.296,273.768 C195.570663,274.114668 194.722672,274.288 193.752,274.288 C192.866662,274.288 192.053337,274.141335 191.312,273.848 C190.570663,273.554665 189.933336,273.144003 189.4,272.616 C188.866664,272.087997 188.450668,271.45867 188.152,270.728 C187.853332,269.99733 187.704,269.189338 187.704,268.304 C187.704,267.397329 187.861332,266.57867 188.176,265.848 C188.490668,265.11733 188.922664,264.496003 189.472,263.984 C190.021336,263.471997 190.66933,263.077335 191.416,262.8 C192.16267,262.522665 192.973329,262.384 193.848,262.384 C194.210668,262.384 194.589331,262.418666 194.984,262.488 C195.378669,262.557334 195.757332,262.663999 196.12,262.808 C196.482668,262.952001 196.823998,263.130666 197.144,263.344 C197.464002,263.557334 197.735999,263.813332 197.96,264.112 L196.424,265.328 Z M198.84,268.304 C198.84,267.397329 198.991998,266.57867 199.296,265.848 C199.600002,265.11733 200.021331,264.496003 200.56,263.984 C201.098669,263.471997 201.738663,263.077335 202.48,262.8 C203.221337,262.522665 204.029329,262.384 204.904,262.384 C205.789338,262.384 206.60533,262.522665 207.352,262.8 C208.09867,263.077335 208.743997,263.471997 209.288,263.984 C209.832003,264.496003 210.255998,265.11733 210.56,265.848 C210.864002,266.57867 211.016,267.397329 211.016,268.304 C211.016,269.189338 210.864002,269.99733 210.56,270.728 C210.255998,271.45867 209.832003,272.087997 209.288,272.616 C208.743997,273.144003 208.09867,273.554665 207.352,273.848 C206.60533,274.141335 205.789338,274.288 204.904,274.288 C204.029329,274.288 203.221337,274.141335 202.48,273.848 C201.738663,273.554665 201.098669,273.144003 200.56,272.616 C200.021331,272.087997 199.600002,271.45867 199.296,270.728 C198.991998,269.99733 198.84,269.189338 198.84,268.304 Z M201.032,268.304 C201.032,268.912003 201.125332,269.469331 201.312,269.976 C201.498668,270.482669 201.765332,270.922665 202.112,271.296 C202.458668,271.669335 202.869331,271.959999 203.344,272.168 C203.818669,272.376001 204.343997,272.48 204.92,272.48 C205.496003,272.48 206.023998,272.376001 206.504,272.168 C206.984002,271.959999 207.397332,271.669335 207.744,271.296 C208.090668,270.922665 208.357332,270.482669 208.544,269.976 C208.730668,269.469331 208.824,268.912003 208.824,268.304 C208.824,267.71733 208.730668,267.173336 208.544,266.672 C208.357332,266.170664 208.093335,265.733335 207.752,265.36 C207.410665,264.986665 207.000002,264.693334 206.52,264.48 C206.039998,264.266666 205.50667,264.16 204.92,264.16 C204.33333,264.16 203.802669,264.266666 203.328,264.48 C202.853331,264.693334 202.445335,264.986665 202.104,265.36 C201.762665,265.733335 201.498668,266.170664 201.312,266.672 C201.125332,267.173336 201.032,267.71733 201.032,268.304 Z M212.968,262.672 L214.984,262.672 L214.984,272.208 L219.8,272.208 L219.8,274 L212.968,274 L212.968,262.672 Z M221.144,262.672 L223.16,262.672 L223.16,272.208 L227.976,272.208 L227.976,274 L221.144,274 L221.144,262.672 Z M229.32,262.672 L236.824,262.672 L236.824,264.432 L231.336,264.432 L231.336,267.312 L236.536,267.312 L236.536,269.008 L231.336,269.008 L231.336,272.208 L237.112,272.208 L237.112,274 L229.32,274 L229.32,262.672 Z M247.256,265.328 C246.957332,264.922665 246.568002,264.626668 246.088,264.44 C245.607998,264.253332 245.138669,264.16 244.68,264.16 C244.09333,264.16 243.560002,264.266666 243.08,264.48 C242.599998,264.693334 242.186668,264.986665 241.84,265.36 C241.493332,265.733335 241.226668,266.170664 241.04,266.672 C240.853332,267.173336 240.76,267.71733 240.76,268.304 C240.76,268.92267 240.850666,269.487997 241.032,270 C241.213334,270.512003 241.471998,270.951998 241.808,271.32 C242.144002,271.688002 242.546664,271.973332 243.016,272.176 C243.485336,272.378668 244.01333,272.48 244.6,272.48 C245.208003,272.48 245.746664,272.360001 246.216,272.12 C246.685336,271.879999 247.063999,271.562669 247.352,271.168 L248.968,272.304 C248.466664,272.933336 247.853337,273.421332 247.128,273.768 C246.402663,274.114668 245.554672,274.288 244.584,274.288 C243.698662,274.288 242.885337,274.141335 242.144,273.848 C241.402663,273.554665 240.765336,273.144003 240.232,272.616 C239.698664,272.087997 239.282668,271.45867 238.984,270.728 C238.685332,269.99733 238.536,269.189338 238.536,268.304 C238.536,267.397329 238.693332,266.57867 239.008,265.848 C239.322668,265.11733 239.754664,264.496003 240.304,263.984 C240.853336,263.471997 241.50133,263.077335 242.248,262.8 C242.99467,262.522665 243.805329,262.384 244.68,262.384 C245.042668,262.384 245.421331,262.418666 245.816,262.488 C246.210669,262.557334 246.589332,262.663999 246.952,262.808 C247.314668,262.952001 247.655998,263.130666 247.976,263.344 C248.296002,263.557334 248.567999,263.813332 248.792,264.112 L247.256,265.328 Z M252.504,264.432 L249.032,264.432 L249.032,262.672 L257.992,262.672 L257.992,264.432 L254.52,264.432 L254.52,274 L252.504,274 L252.504,264.432 Z M259.304,262.672 L261.32,262.672 L261.32,274 L259.304,274 L259.304,262.672 Z M263.272,268.304 C263.272,267.397329 263.423998,266.57867 263.728,265.848 C264.032002,265.11733 264.453331,264.496003 264.992,263.984 C265.530669,263.471997 266.170663,263.077335 266.912,262.8 C267.653337,262.522665 268.461329,262.384 269.336,262.384 C270.221338,262.384 271.03733,262.522665 271.784,262.8 C272.53067,263.077335 273.175997,263.471997 273.72,263.984 C274.264003,264.496003 274.687998,265.11733 274.992,265.848 C275.296002,266.57867 275.448,267.397329 275.448,268.304 C275.448,269.189338 275.296002,269.99733 274.992,270.728 C274.687998,271.45867 274.264003,272.087997 273.72,272.616 C273.175997,273.144003 272.53067,273.554665 271.784,273.848 C271.03733,274.141335 270.221338,274.288 269.336,274.288 C268.461329,274.288 267.653337,274.141335 266.912,273.848 C266.170663,273.554665 265.530669,273.144003 264.992,272.616 C264.453331,272.087997 264.032002,271.45867 263.728,270.728 C263.423998,269.99733 263.272,269.189338 263.272,268.304 Z M265.464,268.304 C265.464,268.912003 265.557332,269.469331 265.744,269.976 C265.930668,270.482669 266.197332,270.922665 266.544,271.296 C266.890668,271.669335 267.301331,271.959999 267.776,272.168 C268.250669,272.376001 268.775997,272.48 269.352,272.48 C269.928003,272.48 270.455998,272.376001 270.936,272.168 C271.416002,271.959999 271.829332,271.669335 272.176,271.296 C272.522668,270.922665 272.789332,270.482669 272.976,269.976 C273.162668,269.469331 273.256,268.912003 273.256,268.304 C273.256,267.71733 273.162668,267.173336 272.976,266.672 C272.789332,266.170664 272.525335,265.733335 272.184,265.36 C271.842665,264.986665 271.432002,264.693334 270.952,264.48 C270.471998,264.266666 269.93867,264.16 269.352,264.16 C268.76533,264.16 268.234669,264.266666 267.76,264.48 C267.285331,264.693334 266.877335,264.986665 266.536,265.36 C266.194665,265.733335 265.930668,266.170664 265.744,266.672 C265.557332,267.173336 265.464,267.71733 265.464,268.304 Z M277.4,262.672 L280.072,262.672 L285.336,271.152 L285.368,271.152 L285.368,262.672 L287.384,262.672 L287.384,274 L284.824,274 L279.448,265.248 L279.416,265.248 L279.416,274 L277.4,274 L277.4,262.672 Z" id="COLLECTION" fill="#0AA6D2" opacity="0.604789402" transform="translate(237.544000, 268.336000) rotate(-31.000000) translate(-237.544000, -268.336000) "></path>
            </g>
        </g>
    </g>
</svg>