<?xml version="1.0" encoding="UTF-8"?>
<svg width="194px" height="194px" viewBox="0 0 194 194" version="1.1" xmlns="http://www.w3.org/2000/svg" xmlns:xlink="http://www.w3.org/1999/xlink">
    <!-- Generator: Sketch 41 (35326) - http://www.bohemiancoding.com/sketch -->
    <title>home-manage</title>
    <desc>Created with Sketch.</desc>
    <defs>
        <path d="M15.5693631,27.5074984 C16.0688603,27.2118875 16.8783633,27.211685 17.3782027,27.5074984 L32.5728145,36.4999248 C33.0723118,36.7955357 33.072654,37.2746131 32.5728145,37.5704265 L17.3782027,46.5628529 C16.8787054,46.8584638 16.0692025,46.8586663 15.5693631,46.5628529 L0.374751295,37.5704265 C-0.124745989,37.2748156 -0.125088179,36.7957382 0.374751295,36.4999248 L15.5693631,27.5074984 Z" id="path-1"></path>
        <mask id="mask-2" maskContentUnits="userSpaceOnUse" maskUnits="objectBoundingBox" x="0" y="0" width="32.9475658" height="19.4989227" fill="white">
            <use xlink:href="#path-1"></use>
        </mask>
        <path d="M15.5693631,18.8824984 C16.0688603,18.5868875 16.8783633,18.586685 17.3782027,18.8824984 L32.5728145,27.8749248 C33.0723118,28.1705357 33.072654,28.6496131 32.5728145,28.9454265 L17.3782027,37.9378529 C16.8787054,38.2334638 16.0692025,38.2336663 15.5693631,37.9378529 L0.374751295,28.9454265 C-0.124745989,28.6498156 -0.125088179,28.1707382 0.374751295,27.8749248 L15.5693631,18.8824984 Z" id="path-3"></path>
        <mask id="mask-4" maskContentUnits="userSpaceOnUse" maskUnits="objectBoundingBox" x="0" y="0" width="32.9475658" height="19.4989227" fill="white">
            <use xlink:href="#path-3"></use>
        </mask>
        <path d="M15.5693631,9.94592204 C16.0688603,9.65031116 16.8783633,9.65010865 17.3782027,9.94592204 L32.5728145,18.9383485 C33.0723118,19.2339593 33.072654,19.7130368 32.5728145,20.0088502 L17.3782027,29.0012766 C16.8787054,29.2968874 16.0692025,29.29709 15.5693631,29.0012766 L0.374751295,20.0088502 C-0.124745989,19.7132393 -0.125088179,19.2341619 0.374751295,18.9383485 L15.5693631,9.94592204 Z" id="path-5"></path>
        <mask id="mask-6" maskContentUnits="userSpaceOnUse" maskUnits="objectBoundingBox" x="0" y="0" width="32.9475658" height="19.4989227" fill="white">
            <use xlink:href="#path-5"></use>
        </mask>
        <path d="M15.5693631,1.12264618 C16.0688603,0.827035298 16.8783633,0.826832784 17.3782027,1.12264618 L32.5728145,10.1150726 C33.0723118,10.4106835 33.072654,10.8897609 32.5728145,11.1855743 L17.3782027,20.1780007 C16.8787054,20.4736116 16.0692025,20.4738141 15.5693631,20.1780007 L0.374751295,11.1855743 C-0.124745989,10.8899634 -0.125088179,10.410886 0.374751295,10.1150726 L15.5693631,1.12264618 Z" id="path-7"></path>
        <mask id="mask-8" maskContentUnits="userSpaceOnUse" maskUnits="objectBoundingBox" x="0" y="0" width="32.9475658" height="19.4989227" fill="white">
            <use xlink:href="#path-7"></use>
        </mask>
        <rect id="path-9" x="13" y="0" width="63" height="20" rx="3"></rect>
        <mask id="mask-10" maskContentUnits="userSpaceOnUse" maskUnits="objectBoundingBox" x="0" y="0" width="63" height="20" fill="white">
            <use xlink:href="#path-9"></use>
        </mask>
        <rect id="path-11" x="13" y="52" width="63" height="20" rx="3"></rect>
        <mask id="mask-12" maskContentUnits="userSpaceOnUse" maskUnits="objectBoundingBox" x="0" y="0" width="63" height="20" fill="white">
            <use xlink:href="#path-11"></use>
        </mask>
        <rect id="path-13" x="29" y="26" width="63" height="20" rx="3"></rect>
        <mask id="mask-14" maskContentUnits="userSpaceOnUse" maskUnits="objectBoundingBox" x="0" y="0" width="63" height="20" fill="white">
            <use xlink:href="#path-13"></use>
        </mask>
        <rect id="path-15" x="13" y="77" width="63" height="20" rx="3"></rect>
        <mask id="mask-16" maskContentUnits="userSpaceOnUse" maskUnits="objectBoundingBox" x="0" y="0" width="63" height="20" fill="white">
            <use xlink:href="#path-15"></use>
        </mask>
        <rect id="path-17" x="19" y="34" width="5" height="5" rx="2.5"></rect>
        <mask id="mask-18" maskContentUnits="userSpaceOnUse" maskUnits="objectBoundingBox" x="0" y="0" width="5" height="5" fill="white">
            <use xlink:href="#path-17"></use>
        </mask>
    </defs>
    <g id="Page-1" stroke="none" stroke-width="1" fill="none" fill-rule="evenodd">
        <g id="Homepage" transform="translate(-786.000000, -1402.000000)">
            <g id="Group-4" transform="translate(733.000000, 1402.000000)">
                <g id="home-manage" transform="translate(53.000000, 0.000000)">
                    <rect id="Rectangle-3" fill="#FFFFFF" x="0" y="0" width="194" height="194" rx="97"></rect>
                    <g id="stack" transform="translate(154.000000, 134.000000)" stroke-width="1.5999999">
                        <use id="Rectangle" stroke="#D5D5D5" mask="url(#mask-2)" fill-opacity="0.849807518" fill="#FFFFFF" xlink:href="#path-1"></use>
                        <use id="Rectangle" stroke="#48BDDE" mask="url(#mask-4)" fill="#CAECF5" xlink:href="#path-3"></use>
                        <use id="Rectangle" stroke="#D5D5D5" mask="url(#mask-6)" fill="#FFFFFF" xlink:href="#path-5"></use>
                        <use id="Rectangle" stroke="#D5D5D5" mask="url(#mask-8)" fill-opacity="0.849807518" fill="#FFFFFF" xlink:href="#path-7"></use>
                    </g>
                    <rect id="Rectangle-3" fill-opacity="0.098901721" fill="#84D2E8" transform="translate(97.000000, 97.000000) rotate(45.000000) translate(-97.000000, -97.000000) " x="37" y="37" width="120" height="120" rx="10"></rect>
                    <g id="Group-14" transform="translate(57.000000, 48.000000)">
                        <rect id="Rectangle-9" fill="#48BDDE" x="34" y="8" width="12" height="3"></rect>
                        <use id="Rectangle-18" stroke="#48BDDE" mask="url(#mask-10)" stroke-width="4" fill="#FFFFFF" xlink:href="#path-9"></use>
                        <use id="Rectangle-18" stroke="#48BDDE" mask="url(#mask-12)" stroke-width="4" fill="#FFFFFF" xlink:href="#path-11"></use>
                        <use id="Rectangle-18" stroke="#48BDDE" mask="url(#mask-14)" stroke-width="4" fill="#FFFFFF" xlink:href="#path-13"></use>
                        <rect id="Rectangle-20" fill="#84D2E8" x="52" y="35" width="19" height="2"></rect>
                        <rect id="Rectangle-20" fill="#84D2E8" x="36" y="61" width="19" height="2"></rect>
                        <use id="Rectangle-18" stroke="#48BDDE" mask="url(#mask-16)" stroke-width="4" fill="#FFFFFF" xlink:href="#path-15"></use>
                        <rect id="Rectangle-20" fill="#84D2E8" x="36" y="86" width="19" height="2"></rect>
                        <rect id="Rectangle-19" fill="#48BDDE" x="0" y="7" width="6" height="6" rx="3"></rect>
                        <rect id="Rectangle-19" fill="#48BDDE" x="0" y="60" width="6" height="6" rx="3"></rect>
                        <rect id="Rectangle-19" fill="#48BDDE" x="0" y="84" width="6" height="6" rx="3"></rect>
                        <polyline id="Path-4" stroke="#48BDDE" stroke-linecap="round" stroke-dasharray="3,5" points="2.76953125 11.140625 2.76953125 36.4904538 21.7621531 36.4904538"></polyline>
                        <path d="M2.76953125,63.1367187 L2.76953125,87.4904538" id="Path-4" stroke="#48BDDE" stroke-linecap="round" stroke-dasharray="2,4"></path>
                        <use id="Rectangle-19" stroke="#48BDDE" mask="url(#mask-18)" stroke-width="2" fill="#F3FBFD" xlink:href="#path-17"></use>
                        <g id="Group-13" transform="translate(20.000000, 7.000000)" stroke="#48BDDE">
                            <rect id="Rectangle-8" x="0" y="0" width="10" height="6"></rect>
                            <polyline id="Path-6" points="0 0 5 4 10 0"></polyline>
                        </g>
                        <g id="Group-13" transform="translate(36.000000, 33.000000)" stroke="#48BDDE">
                            <rect id="Rectangle-8" x="0" y="0" width="10" height="6"></rect>
                            <polyline id="Path-6" points="0 0 5 4 10 0"></polyline>
                        </g>
                        <g id="Group-13" transform="translate(20.000000, 59.000000)" stroke="#48BDDE">
                            <rect id="Rectangle-8" x="0" y="0" width="10" height="6"></rect>
                            <polyline id="Path-6" points="0 0 5 4 10 0"></polyline>
                        </g>
                        <g id="Group-13" transform="translate(20.000000, 84.000000)" stroke="#48BDDE">
                            <rect id="Rectangle-8" x="0" y="0" width="10" height="6"></rect>
                            <polyline id="Path-6" points="0 0 5 4 10 0"></polyline>
                        </g>
                        <rect id="Rectangle-20" fill="#84D2E8" x="36" y="9" width="19" height="2"></rect>
                    </g>
                </g>
            </g>
        </g>
    </g>
</svg>