<svg xmlns="http://www.w3.org/2000/svg" width="58" height="58" viewBox="0 0 58 58">
  <g fill="#FFC111" transform="translate(10 10)">
    <path d="M26,23 L26,20.9289811 L30.6935546,20.9289811 C33.5578406,20.9225071 35.8800236,18.6419185 35.8932308,15.8224404 C35.9703993,13.737263 34.7209603,11.8251297 32.7614027,11.029511 C32.3978269,10.8753716 32.1504135,10.5362297 32.1182058,10.1478487 C31.7829033,5.58786173 27.9142109,2.06423972 23.2697394,2.0886268 C20.6042435,2.09887784 18.0816856,3.27646024 16.386931,5.30166461 C16.1214552,5.61617368 15.6920644,5.74622813 15.2928951,5.63302763 C14.6631717,5.45722312 14.0118523,5.36762344 13.3572931,5.36675378 C10.2742273,5.36060921 7.53524298,7.30279747 6.56465253,10.1833519 C6.45088901,10.5032134 6.19004528,10.7512004 5.86134372,10.8519951 C4.89680282,11.1233585 4.03387807,11.666337 3.37872375,12.4141351 C2.55251705,13.3584224 2.10003908,14.5643723 2.10435224,15.810606 C2.1076648,18.6360548 4.4336998,20.9257204 7.30402845,20.9289811 L14,20.9289811 L14,23 L7.32206201,23 C3.78184892,22.9970147 0.750046725,20.5030037 0.118312658,17.0740759 C-0.51342141,13.645148 1.43558581,10.2619615 4.74927424,9.03541574 C6.40492695,4.92846233 10.8197398,2.58708086 15.2147497,3.48508522 C18.0994925,0.399149912 22.5390272,-0.762538484 26.5996861,0.506000804 C30.660345,1.77454009 33.6069147,5.24362828 34.155998,9.40228194 C35.0359721,9.85737611 35.8130494,10.4834085 36.4402488,11.2425301 C37.4935917,12.5510752 38.0448346,14.1831368 37.997146,15.8520264 C37.9740012,19.8064338 34.7108411,23.0000656 30.6935546,23 L26,23 Z"/>
    <path fill-opacity=".4" stroke="#FFF" stroke-width="2" d="M17.9553606,26.3712239 L15,26.3712239 C13.8954305,26.3712239 13,25.4757934 13,24.3712239 C13,23.9264722 13.1482444,23.4944085 13.4212956,23.1433427 L18.3766562,16.7721647 C19.0547963,15.9002704 20.3113475,15.7432015 21.1832419,16.4213415 C21.3142906,16.5232684 21.4321382,16.641116 21.5340651,16.7721647 L26.4894257,23.1433427 C27.1675658,24.0152371 27.0104969,25.2717883 26.1386025,25.9499284 C25.7875367,26.2229795 25.355473,26.3712239 24.9107213,26.3712239 L21.9553606,26.3712239 L21.9553606,37.3712637 C21.9553606,38.4765582 21.0630389,39.3712239 19.9553606,39.3712239 C18.8521256,39.3712239 17.9553606,38.4701515 17.9553606,37.3712637 L17.9553606,26.3712239 Z"/>
  </g>
</svg>
