<svg xmlns="http://www.w3.org/2000/svg" width="58" height="58" viewBox="0 0 58 58">
  <g fill="none" fill-rule="evenodd" transform="translate(11 11)">
    <path fill="#F15242" d="M17,33.969258 L17,19 C17,18.4477153 17.4477153,18 18,18 C18.5522847,18 19,18.4477153 19,19 L19,33.969258 C27.3707297,33.4530616 34,26.5007053 34,18 C34,9.163444 26.836556,2 18,2 C9.163444,2 2,9.163444 2,18 C2,26.5007053 8.62927028,33.4530616 17,33.969258 Z M18,36 C8.0588745,36 0,27.9411255 0,18 C0,8.0588745 8.0588745,0 18,0 C27.9411255,0 36,8.0588745 36,18 C36,27.9411255 27.9411255,36 18,36 Z"/>
    <path stroke="#F15242" stroke-dasharray="52.167 20" stroke-linecap="round" stroke-linejoin="round" stroke-width="2" d="M18,28 C23.5228475,28 28,23.5228475 28,18 C28,12.4771525 23.5228475,8 18,8 C12.4771525,8 8,12.4771525 8,18 C8,23.5228475 12.4771525,28 18,28 Z" opacity=".4" transform="rotate(-32 18 18)"/>
  </g>
</svg>
