<svg xmlns="http://www.w3.org/2000/svg" width="58" height="58" viewBox="0 0 58 58">
  <g fill="#01B2D0" fill-rule="evenodd" transform="translate(11 11)">
    <path d="M18,36 C8.0588745,36 0,27.9411255 0,18 C0,8.0588745 8.0588745,0 18,0 C27.9411255,0 36,8.0588745 36,18 C36,27.9411255 27.9411255,36 18,36 Z M18,34 C26.836556,34 34,26.836556 34,18 C34,9.163444 26.836556,2 18,2 C9.163444,2 2,9.163444 2,18 C2,26.836556 9.163444,34 18,34 Z"/>
    <path fill-rule="nonzero" d="M23.8459993,17.5695104 C24.1917541,17.1785633 23.9174746,16.5579462 23.3989421,16.5579462 L19.5364078,16.5579462 L21.3316567,10.7926477 C21.5255534,10.1695441 20.7429561,9.71890418 20.3124021,10.2057343 L12.1540007,19.4304896 C11.8082459,19.8214367 12.0825254,20.4420538 12.6010579,20.4420538 L16.4610436,20.4420542 L14.6683433,26.2073523 C14.4744466,26.8304559 15.2570439,27.2810958 15.6875979,26.7942657 L23.8459993,17.5695104 Z" opacity=".397"/>
  </g>
</svg>
