<svg xmlns="http://www.w3.org/2000/svg" xmlns:xlink="http://www.w3.org/1999/xlink" width="419" height="370" viewBox="0 0 419 370">
  <defs>
    <path id="meaningful-actionable-insights-b" d="M12.9618641,3.02903886e-15 L43.0381359,-2.00830243e-15 C47.5452585,1.16688155e-15 49.17965,0.469285034 50.8273866,1.35050422 C52.4751232,2.23172342 53.7682766,3.52487676 54.6494958,5.17261339 C55.530715,6.82035001 56,8.45474155 56,12.9618641 L56,43.0381359 C56,47.5452585 55.530715,49.17965 54.6494958,50.8273866 C53.7682766,52.4751232 52.4751232,53.7682766 50.8273866,54.6494958 C49.17965,55.530715 47.5452585,56 43.0381359,56 L12.9618641,56 C8.45474155,56 6.82035001,55.530715 5.17261339,54.6494958 C3.52487676,53.7682766 2.23172342,52.4751232 1.35050422,50.8273866 C0.469285034,49.17965 5.22671215e-15,47.5452585 6.71619876e-16,43.0381359 L3.49116548e-16,12.9618641 C-2.02846768e-16,8.45474155 0.469285034,6.82035001 1.35050422,5.17261339 C2.23172342,3.52487676 3.52487676,2.23172342 5.17261339,1.35050422 C6.82035001,0.469285034 8.45474155,3.85698383e-15 12.9618641,3.02903886e-15 Z"/>
    <filter id="meaningful-actionable-insights-a" width="131.7%" height="131.7%" x="-15.9%" y="-12.3%" filterUnits="objectBoundingBox">
      <feMorphology in="SourceAlpha" operator="dilate" radius=".389" result="shadowSpreadOuter1"/>
      <feOffset dy="2" in="shadowSpreadOuter1" result="shadowOffsetOuter1"/>
      <feGaussianBlur in="shadowOffsetOuter1" result="shadowBlurOuter1" stdDeviation="2.5"/>
      <feComposite in="shadowBlurOuter1" in2="SourceAlpha" operator="out" result="shadowBlurOuter1"/>
      <feColorMatrix in="shadowBlurOuter1" values="0 0 0 0 0   0 0 0 0 0   0 0 0 0 0  0 0 0 0.100062274 0"/>
    </filter>
    <path id="meaningful-actionable-insights-d" d="M12.9618641,3.02903886e-15 L43.0381359,-2.00830243e-15 C47.5452585,1.16688155e-15 49.17965,0.469285034 50.8273866,1.35050422 C52.4751232,2.23172342 53.7682766,3.52487676 54.6494958,5.17261339 C55.530715,6.82035001 56,8.45474155 56,12.9618641 L56,43.0381359 C56,47.5452585 55.530715,49.17965 54.6494958,50.8273866 C53.7682766,52.4751232 52.4751232,53.7682766 50.8273866,54.6494958 C49.17965,55.530715 47.5452585,56 43.0381359,56 L12.9618641,56 C8.45474155,56 6.82035001,55.530715 5.17261339,54.6494958 C3.52487676,53.7682766 2.23172342,52.4751232 1.35050422,50.8273866 C0.469285034,49.17965 5.22671215e-15,47.5452585 6.71619876e-16,43.0381359 L3.49116548e-16,12.9618641 C-2.02846768e-16,8.45474155 0.469285034,6.82035001 1.35050422,5.17261339 C2.23172342,3.52487676 3.52487676,2.23172342 5.17261339,1.35050422 C6.82035001,0.469285034 8.45474155,3.85698383e-15 12.9618641,3.02903886e-15 Z"/>
    <filter id="meaningful-actionable-insights-c" width="131.7%" height="131.7%" x="-15.9%" y="-12.3%" filterUnits="objectBoundingBox">
      <feMorphology in="SourceAlpha" operator="dilate" radius=".389" result="shadowSpreadOuter1"/>
      <feOffset dy="2" in="shadowSpreadOuter1" result="shadowOffsetOuter1"/>
      <feGaussianBlur in="shadowOffsetOuter1" result="shadowBlurOuter1" stdDeviation="2.5"/>
      <feComposite in="shadowBlurOuter1" in2="SourceAlpha" operator="out" result="shadowBlurOuter1"/>
      <feColorMatrix in="shadowBlurOuter1" values="0 0 0 0 0   0 0 0 0 0   0 0 0 0 0  0 0 0 0.100062274 0"/>
    </filter>
    <path id="meaningful-actionable-insights-f" d="M12.9618641,3.02903886e-15 L43.0381359,-2.00830243e-15 C47.5452585,1.16688155e-15 49.17965,0.469285034 50.8273866,1.35050422 C52.4751232,2.23172342 53.7682766,3.52487676 54.6494958,5.17261339 C55.530715,6.82035001 56,8.45474155 56,12.9618641 L56,43.0381359 C56,47.5452585 55.530715,49.17965 54.6494958,50.8273866 C53.7682766,52.4751232 52.4751232,53.7682766 50.8273866,54.6494958 C49.17965,55.530715 47.5452585,56 43.0381359,56 L12.9618641,56 C8.45474155,56 6.82035001,55.530715 5.17261339,54.6494958 C3.52487676,53.7682766 2.23172342,52.4751232 1.35050422,50.8273866 C0.469285034,49.17965 5.22671215e-15,47.5452585 6.71619876e-16,43.0381359 L3.49116548e-16,12.9618641 C-2.02846768e-16,8.45474155 0.469285034,6.82035001 1.35050422,5.17261339 C2.23172342,3.52487676 3.52487676,2.23172342 5.17261339,1.35050422 C6.82035001,0.469285034 8.45474155,3.85698383e-15 12.9618641,3.02903886e-15 Z"/>
    <filter id="meaningful-actionable-insights-e" width="131.7%" height="131.7%" x="-15.9%" y="-12.3%" filterUnits="objectBoundingBox">
      <feMorphology in="SourceAlpha" operator="dilate" radius=".389" result="shadowSpreadOuter1"/>
      <feOffset dy="2" in="shadowSpreadOuter1" result="shadowOffsetOuter1"/>
      <feGaussianBlur in="shadowOffsetOuter1" result="shadowBlurOuter1" stdDeviation="2.5"/>
      <feComposite in="shadowBlurOuter1" in2="SourceAlpha" operator="out" result="shadowBlurOuter1"/>
      <feColorMatrix in="shadowBlurOuter1" values="0 0 0 0 0   0 0 0 0 0   0 0 0 0 0  0 0 0 0.100062274 0"/>
    </filter>
    <path id="meaningful-actionable-insights-h" d="M12.9618641,3.02903886e-15 L43.0381359,-2.00830243e-15 C47.5452585,1.16688155e-15 49.17965,0.469285034 50.8273866,1.35050422 C52.4751232,2.23172342 53.7682766,3.52487676 54.6494958,5.17261339 C55.530715,6.82035001 56,8.45474155 56,12.9618641 L56,43.0381359 C56,47.5452585 55.530715,49.17965 54.6494958,50.8273866 C53.7682766,52.4751232 52.4751232,53.7682766 50.8273866,54.6494958 C49.17965,55.530715 47.5452585,56 43.0381359,56 L12.9618641,56 C8.45474155,56 6.82035001,55.530715 5.17261339,54.6494958 C3.52487676,53.7682766 2.23172342,52.4751232 1.35050422,50.8273866 C0.469285034,49.17965 5.22671215e-15,47.5452585 6.71619876e-16,43.0381359 L3.49116548e-16,12.9618641 C-2.02846768e-16,8.45474155 0.469285034,6.82035001 1.35050422,5.17261339 C2.23172342,3.52487676 3.52487676,2.23172342 5.17261339,1.35050422 C6.82035001,0.469285034 8.45474155,3.85698383e-15 12.9618641,3.02903886e-15 Z"/>
    <filter id="meaningful-actionable-insights-g" width="131.7%" height="131.7%" x="-15.9%" y="-12.3%" filterUnits="objectBoundingBox">
      <feMorphology in="SourceAlpha" operator="dilate" radius=".389" result="shadowSpreadOuter1"/>
      <feOffset dy="2" in="shadowSpreadOuter1" result="shadowOffsetOuter1"/>
      <feGaussianBlur in="shadowOffsetOuter1" result="shadowBlurOuter1" stdDeviation="2.5"/>
      <feComposite in="shadowBlurOuter1" in2="SourceAlpha" operator="out" result="shadowBlurOuter1"/>
      <feColorMatrix in="shadowBlurOuter1" values="0 0 0 0 0   0 0 0 0 0   0 0 0 0 0  0 0 0 0.100062274 0"/>
    </filter>
    <path id="meaningful-actionable-insights-i" d="M24.5739012,0.00161472304 C24.5390864,0.000516711374 24.5040772,-3.55271368e-14 24.4690679,-3.55271368e-14 L24.4690679,-3.55271368e-14 L3.38338482,-3.55271368e-14 C3.36302758,-3.55271368e-14 3.34273518,0.000129177844 3.32244278,0.000516711374 L3.32244278,0.000516711374 C3.30247455,0.000129177844 3.28257114,-3.55271368e-14 3.26253807,-3.55271368e-14 L3.26253807,-3.55271368e-14 C1.44717872,-3.55271368e-14 -3.55271368e-15,1.44175391 -3.55271368e-15,3.25024372 L-3.55271368e-15,3.25024372 C-3.55271368e-15,3.65592674 0.0779280002,4.04513958 0.220298956,4.4036081 L0.220298956,4.4036081 C0.286881365,4.60557766 0.374339662,4.80386565 0.483322164,4.99582392 L0.483322164,4.99582392 L11.0261637,23.1734717 C11.1773518,23.4338942 11.3586868,23.6654455 11.5629722,23.8665108 L11.5629722,23.8665108 C12.1567032,24.4937985 13.0060665,24.8888889 13.9563732,24.8888889 L13.9563732,24.8888889 C14.7502404,24.8888889 15.4810261,24.5938467 16.0435081,24.1089777 L16.0435081,24.1089777 C16.3622219,23.8595352 16.6402213,23.545956 16.8564359,23.1734717 L16.8564359,23.1734717 L27.3992774,4.99582392 C27.5061853,4.8076118 27.5922821,4.61332833 27.6584107,4.41549246 L27.6584107,4.41549246 C27.8029859,4.05366532 27.8825996,3.66044796 27.8825996,3.25024372 L27.8825996,3.25024372 C27.8825996,1.44175391 26.4354209,-3.55271368e-14 24.6804849,-3.55271368e-14 L24.6804849,-3.55271368e-14 C24.6447625,-3.55271368e-14 24.6092346,0.000516711374 24.5739012,0.00161472304 L24.5739012,0.00161472304 Z M14.9835058,17.0941686 L23.3210886,2.678438 C23.351041,2.63768239 23.3706202,2.60661512 23.381512,2.58814269 L23.381512,2.58814269 C23.6281976,2.11651438 24.1073056,1.8056479 24.6804849,1.8056479 L24.6804849,1.8056479 C25.4349343,1.8056479 26.0700928,2.43926522 26.0700928,3.25024372 L26.0700928,3.25024372 C26.0700928,3.52739479 25.978226,3.79963709 25.8283993,4.03273851 L25.8283993,4.03273851 C25.8117375,4.04526876 25.8008458,4.06516215 25.7982525,4.09293538 L25.7982525,4.09293538 L16.6147424,19.9230988 L14.9835058,17.0941686 Z M3.38338482,1.8056479 L21.7502106,1.8056479 L20.1189739,4.63470726 L3.38338482,4.63470726 C3.35479393,4.63470726 3.32685136,4.63380302 3.29274975,4.63470726 L3.29274975,4.63470726 C3.27187387,4.63380302 3.24444995,4.63470726 3.20217952,4.63470726 L3.20217952,4.63470726 C2.4177778,4.63470726 1.78235989,4.00134829 1.78235989,3.25024372 L1.78235989,3.25024372 C1.78235989,2.43900686 2.4177778,1.8056479 3.20217952,1.8056479 L3.20217952,1.8056479 C3.24444995,1.8056479 3.27180903,1.80648755 3.29274975,1.8056479 L3.29274975,1.8056479 C3.30409534,1.80597084 3.31479262,1.80603543 3.32503606,1.80603543 L3.32503606,1.80603543 C3.34552296,1.80603543 3.36425939,1.8056479 3.38338482,1.8056479 L3.38338482,1.8056479 Z M8.80774415,6.44035516 L19.0749203,6.44035516 L13.9412674,15.291621 L8.80774415,6.44035516 Z M12.6272535,22.3307801 C12.6292633,22.3095303 12.6191495,22.2928664 12.596977,22.2705832 L12.596977,22.2705832 L3.44374336,6.44035516 L6.70634626,6.44035516 L15.0741408,20.8560858 C15.0852271,20.8955496 15.10338,20.9302339 15.1344994,20.9764795 L15.1344994,20.9764795 C15.2627369,21.188525 15.3459812,21.4556002 15.3459812,21.7589097 L15.3459812,21.7589097 C15.3459812,22.5100789 14.7111467,23.1433733 13.9563732,23.1433733 L13.9563732,23.1433733 C13.3605028,23.1433733 12.8648626,22.8059608 12.6272535,22.3307801 L12.6272535,22.3307801 Z"/>
  </defs>
  <g fill="none" fill-rule="evenodd" transform="translate(5)">
    <g transform="translate(45 76)">
      <path stroke="#A5E3EE" stroke-linecap="round" stroke-linejoin="round" stroke-width="4" d="M0,3 L74.2825651,3"/>
      <circle cx="11" cy="3" r="3.5" fill="#01B2D0" stroke="#FFF"/>
      <circle cx="23" cy="3" r="3.5" fill="#01B2D0" stroke="#FFF"/>
      <circle cx="35" cy="3" r="3.5" fill="#01B2D0" stroke="#FFF"/>
      <circle cx="47" cy="3" r="3.5" fill="#01B2D0" stroke="#FFF"/>
    </g>
    <g transform="translate(34 146)">
      <path stroke="#6772E5" stroke-linecap="round" stroke-linejoin="round" stroke-opacity=".4" stroke-width="4" d="M0,3 L74.2825651,3"/>
      <circle cx="23" cy="3" r="3.5" fill="#6772E5" stroke="#FFF"/>
      <circle cx="35" cy="3" r="3.5" fill="#6772E5" stroke="#FFF"/>
      <circle cx="47" cy="3" r="3.5" fill="#6772E5" stroke="#FFF"/>
      <circle cx="59" cy="3" r="3.5" fill="#6772E5" stroke="#FFF"/>
    </g>
    <g transform="translate(45 218)">
      <path stroke="#385091" stroke-linecap="round" stroke-linejoin="round" stroke-opacity=".4" stroke-width="4" d="M0,3 L74.2825651,3"/>
      <circle cx="23" cy="3" r="3.5" fill="#385091" stroke="#FFF"/>
      <circle cx="35" cy="3" r="3.5" fill="#385091" stroke="#FFF"/>
      <circle cx="47" cy="3" r="3.5" fill="#385091" stroke="#FFF"/>
      <circle cx="59" cy="3" r="3.5" fill="#385091" stroke="#FFF"/>
    </g>
    <g transform="translate(43 288)">
      <path stroke="#75B2FF" stroke-linecap="round" stroke-linejoin="round" stroke-opacity=".4" stroke-width="4" d="M0,3 L74.2825651,3"/>
      <circle cx="14" cy="3" r="3.5" fill="#499AFF" stroke="#FFF"/>
      <circle cx="26" cy="3" r="3.5" fill="#499AFF" stroke="#FFF"/>
      <circle cx="38" cy="3" r="3.5" fill="#499AFF" stroke="#FFF"/>
      <circle cx="50" cy="3" r="3.5" fill="#499AFF" stroke="#FFF"/>
    </g>
    <g transform="translate(94)">
      <rect width="320" height="370" fill="#F0FBFC" rx="13"/>
      <g transform="translate(50 150)">
        <rect width="40" height="68" y="102" fill="#01B2D0" fill-opacity=".22" rx="8"/>
        <rect width="40" height="119" x="60" y="51" fill="#01B2D0" fill-opacity=".22" rx="8"/>
        <rect width="40" height="124" x="120" y="46" fill="#01B2D0" fill-opacity=".22" rx="8"/>
        <rect width="40" height="170" x="180" fill="#FFC111" rx="8"/>
      </g>
      <g transform="translate(60 76)">
        <polyline stroke="#01B2D0" stroke-linecap="round" stroke-linejoin="round" stroke-width="6" points="10 113.111 70 60.804 130 56.955 190.035 9.998"/>
        <circle cx="10" cy="112" r="12" fill="#A0F1FF" stroke="#F0FBFC" stroke-width="4"/>
        <circle cx="70" cy="61" r="12" fill="#A0F1FF" stroke="#F0FBFC" stroke-width="4"/>
        <circle cx="130" cy="56" r="12" fill="#A0F1FF" stroke="#F0FBFC" stroke-width="4"/>
        <circle cx="190" cy="10" r="12" fill="#A0F1FF" stroke="#F0FBFC" stroke-width="4"/>
      </g>
    </g>
    <g transform="translate(0 265)">
      <use fill="#000" filter="url(#meaningful-actionable-insights-a)" xlink:href="#meaningful-actionable-insights-b"/>
      <use fill="#FFF" stroke="#E8E8E8" stroke-width=".778" xlink:href="#meaningful-actionable-insights-b"/>
      <g transform="translate(17.111 17.111)">
        <path fill="#5CA4FF" d="M11.2777778,0 L11.2777778,11.2777778 L22.5555556,11.2777778 L22.5555556,3.75925926 C22.5555556,1.6830777 20.8724779,-3.81388365e-16 18.7962963,0 L11.2777778,0 Z" opacity=".9"/>
        <path fill="#499AFF" d="M0,11.2777778 L0,18.7962963 C-6.67750918e-16,20.8724779 1.6830777,22.5555556 3.75925926,22.5555556 L11.2777778,22.5555556 L11.2777778,11.2777778 L0,11.2777778 Z"/>
        <path fill="#E7F3FF" d="M11.2777778,11.2777778 L11.2777778,22.5555556 L18.7962963,22.5555556 C20.8724779,22.5555556 22.5555556,20.8724779 22.5555556,18.7962963 L22.5555556,11.2777778 L11.2777778,11.2777778 Z"/>
        <path fill="#499AFF" d="M0,3.75925926 L0,11.2777778 L11.2777778,11.2777778 L11.2777778,0 L3.75925926,0 C1.6830777,3.81388365e-16 -2.5425891e-16,1.6830777 0,3.75925926 Z"/>
      </g>
    </g>
    <g transform="translate(8 193)">
      <use fill="#000" filter="url(#meaningful-actionable-insights-c)" xlink:href="#meaningful-actionable-insights-d"/>
      <use fill="#FFF" stroke="#E8E8E8" stroke-width=".778" xlink:href="#meaningful-actionable-insights-d"/>
      <g transform="translate(13 13)">
        <path fill="#385091" d="M11.0962747,3.2345953 C9.67041084,4.65673629 8.71425901,6.37057441 8.2291543,8.18365535 C9.13033231,7.94357702 10.0558559,7.8186423 10.982793,7.80947781 L7.85399723,10.9301044 C7.84685063,11.6191645 7.90418047,12.3092428 8.02606529,12.9896084 L13.0477669,7.98109661 C13.6889972,8.09443864 14.3218245,8.26527415 14.9387878,8.49234987 C15.1187093,8.21295039 15.3316936,7.9481201 15.5768768,7.70357702 C17.4262747,5.85900783 20.4244684,5.85900783 22.2737878,7.70357702 C24.1229501,9.5478329 24.1231857,12.5384334 22.2737878,14.3830026 C22.0286046,14.6275457 21.763081,14.8399739 21.4829501,15.0194256 C21.7106203,15.6343081 21.8816674,16.2656397 21.9955417,16.9050392 L16.973369,21.9140992 C17.6555941,22.0356658 18.3474789,22.0929243 19.0383428,22.0856397 L22.1676098,18.9646214 C22.1584213,19.8891384 22.0333951,20.8124804 21.7922171,21.7113838 C23.6100443,21.2274674 25.3286046,20.274047 26.7544684,18.851906 C31.0785522,14.5391123 31.0783166,7.54715405 26.7544684,3.2345953 C22.4303847,-1.07819843 15.4203585,-1.07819843 11.0962747,3.2345953"/>
        <path fill="#385091" d="M14.6548429 13.1371018C14.3855497 12.5739164 14.2347644 11.9684334 14.2020157 11.3577023L9.18848168 16.3580679C9.44308901 16.8273368 9.73405759 17.2818799 10.0619372 17.7180157L14.6548429 13.1371018M18.7063351 15.8041253C18.0942408 15.7716971 17.4874084 15.6210705 16.9227487 15.3524804L12.3298429 19.9333943C12.7668063 20.2601828 13.2226178 20.5503916 13.6931152 20.8043342L18.7063351 15.8041253"/>
        <path fill="#0F1024" d="M14.1815183 11.3054569C14.1289791 10.3337859 14.3765969 9.3491906 14.9231937 8.5008094 14.3062304 8.27373368 13.6734031 8.10289817 13.0321728 7.98955614L8.0104712 12.9980679C8.12418848 13.6377023 8.29539267 14.2688773 8.52329843 14.8839948 8.70251309 15.3692428 8.91769634 15.8447781 9.16798429 16.3058225L14.1815183 11.3054569M18.6781414 15.7789034L13.6649215 20.7791123C14.1271728 21.0288251 14.6038743 21.2432898 15.0907068 21.4223499 15.7069634 21.6496606 16.3400262 21.8201828 16.9810209 21.9338381L22.0031937 16.9247781C21.8893194 16.2853786 21.7182723 15.654047 21.4906021 15.0391645 20.6397644 15.5845692 19.652356 15.8313055 18.6781414 15.7789034M21.837644 21.702376C22.078822 20.8034726 22.2038482 19.8801305 22.2130366 18.9556136L19.0837696 22.0766319C20.0107068 22.0675457 20.936466 21.942846 21.837644 21.702376M8.22856021 8.20707572C7.9878534 9.10590078 7.86282723 10.0292428 7.85340314 10.9535248L10.982199 7.83289817C10.0552618 7.84206266 9.12973822 7.96699739 8.22856021 8.20707572M16.8822251 15.3120627C16.4083508 15.0869452 15.9644764 14.7786423 15.572199 14.3875457 15.1798429 13.9960574 14.8709686 13.553577 14.6452618 13.0809399L10.052356 17.6618538C10.3653141 18.0782507 10.7117277 18.4775718 11.0915969 18.8564491 11.471466 19.2354047 11.8718325 19.5809138 12.2893194 19.8929765L16.8822251 15.3120627"/>
        <path fill="#385091" d="M8.20421466 8.22454308C6.38638743 8.7083812 4.66829843 9.66180157 3.24219895 11.0840992 1.10929319 13.2115144.0279581152 15.9910966 0 18.7796084L7.82905759 10.9709922C7.83848168 10.0467102 7.96350785 9.12336815 8.20421466 8.22454308M11.2303665 29.9584073C14.026178 29.9300522 16.8132723 28.8521671 18.9464921 26.7246736 20.3725131 25.3022977 21.3281937 23.5884595 21.8132984 21.7754569 20.9121204 22.0159269 19.9863613 22.1406266 19.0594241 22.1497128L11.2303665 29.9584073M7.78649215 15.5251958C8.03167539 15.2806527 8.29719895 15.0682245 8.57756545 14.8885379 8.34965969 14.2734204 8.1784555 13.6422454 8.06473822 13.002611L.235602094 20.8113055C.439633508 21.9552219.825314136 23.0731332 1.39311518 24.1190601L6.40664921 19.1186162C6.33698953 17.8267363 6.79712042 16.5119843 7.78649215 15.5251958M15.0664398 21.462141C14.8862827 21.7418538 14.6732984 22.0065274 14.4281152 22.2511488 13.4387435 23.2379373 12.1200785 23.6968668 10.8248168 23.627389L5.81151832 28.6275979C6.85986911 29.1936031 7.98054974 29.5785117 9.12769634 29.7823238L16.9567539 21.9736292C16.3157592 21.8599739 15.6826963 21.6894517 15.0664398 21.462141M7.79740838 22.2203655C7.40497382 21.8289556 7.09617801 21.3863969 6.8704712 20.9138381L2.27748691 25.4946736C2.59044503 25.9111488 2.93685864 26.3103916 3.31672775 26.6893473 3.69667539 27.0682245 4.09696335 27.4137337 4.51445026 27.7258747L9.10743455 23.1448825C8.63356021 22.919765 8.18960733 22.6115405 7.79740838 22.2203655"/>
      </g>
    </g>
    <g transform="translate(0 121)">
      <use fill="#000" filter="url(#meaningful-actionable-insights-e)" xlink:href="#meaningful-actionable-insights-f"/>
      <use fill="#FFF" stroke="#E8E8E8" stroke-width=".778" xlink:href="#meaningful-actionable-insights-f"/>
      <path fill="#6772E5" d="M26.5779528,23.9111111 C26.5779528,23.0444444 27.2834646,22.7111111 28.4519685,22.7111111 C30.1275591,22.7111111 32.2440945,23.2222222 33.919685,24.1333333 L33.919685,18.9111111 C32.0897638,18.1777778 30.2818898,17.8888889 28.4519685,17.8888889 C23.976378,17.8888889 21,20.2444444 21,24.1777778 C21,30.3111111 29.3779528,29.3333333 29.3779528,31.9777778 C29.3779528,33 28.496063,33.3333333 27.2614173,33.3333333 C25.4314961,33.3333333 23.0944882,32.5777778 21.2425197,31.5555556 L21.2425197,36.8444444 C23.2929134,37.7333333 25.3653543,38.1111111 27.2614173,38.1111111 C31.8472441,38.1111111 35,35.8222222 35,31.8444444 C34.9779528,25.2222222 26.5779528,26.4 26.5779528,23.9111111 Z"/>
    </g>
    <g transform="translate(8 49)">
      <use fill="#000" filter="url(#meaningful-actionable-insights-g)" xlink:href="#meaningful-actionable-insights-h"/>
      <use fill="#FFF" stroke="#E8E8E8" stroke-width=".778" xlink:href="#meaningful-actionable-insights-h"/>
      <use fill="#0AA6D2" transform="translate(14 15.556)" xlink:href="#meaningful-actionable-insights-i"/>
    </g>
  </g>
</svg>
