<?xml version="1.0" encoding="UTF-8"?>
<svg width="58px" height="58px" viewBox="0 0 58 58" version="1.1" xmlns="http://www.w3.org/2000/svg" xmlns:xlink="http://www.w3.org/1999/xlink">
    <!-- Generator: Sketch 50.2 (55047) - http://www.bohemiancoding.com/sketch -->
    <title>customer-data</title>
    <desc>Created with Sketch.</desc>
    <defs></defs>
    <g id="customer-data" stroke="none" stroke-width="1" fill="none" fill-rule="evenodd">
        <g id="Group-18" transform="translate(10.000000, 15.000000)" fill="#FFC111">
            <path d="M28.7909477,22 C28.3024076,19.5433517 26.9167074,17.9662128 24.1564809,17.13552 C25.8960262,16.6380432 27.1083012,15.9330207 26.20006,14.2589665 C22.6505733,7.71224463 25.1874639,4 29.00048,4 C32.7393335,4 35.3410264,7.57428228 31.8009,14.2580051 C30.6373385,16.454106 33.0393442,16.9761517 35.6194363,17.5722259 C37.7055908,18.0538924 37.9746404,19.0378956 37.9998413,20.7044999 C38.0111217,21.4188276 37.4195006,22 36.7042751,22 L28.7909477,22 Z" id="Combined-Shape" fill-opacity="0.398182745"></path>
            <path d="M26.9996549,24.1849047 C27.0241397,25.7353964 25.7524506,27 24.200382,27 L2.79861794,27 C1.24696341,27 -0.0241189484,25.7361651 0.000343721176,24.1849901 C0.0496460736,21.045954 0.985847892,19.5923074 4.08237094,18.8773599 C4.26870448,18.834318 4.26870448,18.834318 4.45390939,18.7915661 C6.74731488,18.2617647 7.75318307,17.9531332 8.4646118,17.4877157 C9.13410176,17.0497347 9.23302789,16.6485137 8.73209075,15.725195 C3.9350896,6.87754049 6.56246164,0 13.5006667,0 C20.3898242,0 23.0244796,6.74612151 18.2737737,15.7154061 C17.7865073,16.6350705 17.8806507,17.037629 18.5173294,17.4667587 C19.206945,17.9315687 20.2413219,18.2558688 22.4658207,18.771315 C22.6911008,18.823423 22.6911223,18.8234279 22.9186955,18.8759629 C26.0160459,19.5911189 26.9521847,21.0455556 26.9996549,24.1849047 Z M22.4686929,20.8246798 C22.2413827,20.7722057 22.2413827,20.7722057 22.0143552,20.7196935 C19.5259043,20.1430861 18.373733,19.7818548 17.3995084,19.1252147 C15.9034099,18.1168248 15.5465466,16.590872 16.5064431,14.7791676 C20.6255428,7.00234894 18.6719069,2 13.5006667,2 C8.29336678,2 6.33914016,7.11548135 10.4901648,14.7716881 C11.4850953,16.6055266 11.1040507,18.1509535 9.55952663,19.1613828 C8.56882154,19.8095032 7.4590085,20.1500282 4.90407532,20.7402453 C4.71829704,20.7831296 4.71829704,20.7831296 4.53264049,20.8260151 C2.42960203,21.3115798 2.03612499,21.9225341 2.00009607,24.2164628 C1.99339862,24.6411478 2.35430867,25 2.79861794,25 L24.200382,25 C24.6450406,25 25.0065995,24.6404556 24.9998939,24.2158137 C24.9651995,21.9213766 24.5718618,21.3102747 22.4686929,20.8246798 Z" id="Combined-Shape" fill-rule="nonzero"></path>
        </g>
    </g>
</svg>