<?xml version="1.0" encoding="UTF-8"?>
<svg width="58px" height="58px" viewBox="0 0 58 58" version="1.1" xmlns="http://www.w3.org/2000/svg" xmlns:xlink="http://www.w3.org/1999/xlink">
    <!-- Generator: Sketch 50.2 (55047) - http://www.bohemiancoding.com/sketch -->
    <title>events</title>
    <desc>Created with Sketch.</desc>
    <defs></defs>
    <g id="events" stroke="none" stroke-width="1" fill="none" fill-rule="evenodd">
        <g id="Group-8" transform="translate(11.000000, 12.000000)" fill="#F15242" fill-rule="nonzero">
            <path d="M10.8588327,6.67897974 C11.1757746,6.33402643 10.9243517,5.78642316 10.4490303,5.78642316 L6.90837385,5.78642313 L8.55401868,0.699394992 C8.73175728,0.149597705 8.01437646,-0.248025725 7.61970194,0.181530258 L0.141167285,8.32102026 C-0.175774602,8.66597357 0.0756482789,9.21357684 0.550969711,9.21357684 L4.08928999,9.21357723 L2.44598132,14.300605 C2.26824272,14.8504023 2.98562354,15.2480257 3.38029806,14.8184697 L10.8588327,6.67897974 Z" id="Shape" opacity="0.397433036"></path>
            <path d="M19.5,4 L32.5,4 C34.4329966,4 36,5.56700338 36,7.5 C36,9.43299662 34.4329966,11 32.5,11 L19.5,11 C17.5670034,11 16,9.43299662 16,7.5 C16,5.56700338 17.5670034,4 19.5,4 Z M19.5,6 C18.6715729,6 18,6.67157288 18,7.5 C18,8.32842712 18.6715729,9 19.5,9 L32.5,9 C33.3284271,9 34,8.32842712 34,7.5 C34,6.67157288 33.3284271,6 32.5,6 L19.5,6 Z" id="Rectangle-10"></path>
            <path d="M19.5,22 L32.5,22 C34.4329966,22 36,23.5670034 36,25.5 C36,27.4329966 34.4329966,29 32.5,29 L19.5,29 C17.5670034,29 16,27.4329966 16,25.5 C16,23.5670034 17.5670034,22 19.5,22 Z M19.5,24 C18.6715729,24 18,24.6715729 18,25.5 C18,26.3284271 18.6715729,27 19.5,27 L32.5,27 C33.3284271,27 34,26.3284271 34,25.5 C34,24.6715729 33.3284271,24 32.5,24 L19.5,24 Z" id="Rectangle-10"></path>
            <path d="M10.8588327,24.6789797 C11.1757746,24.3340264 10.9243517,23.7864232 10.4490303,23.7864232 L6.90837385,23.7864231 L8.55401868,18.699395 C8.73175728,18.1495977 8.01437646,17.7519743 7.61970194,18.1815303 L0.141167285,26.3210203 C-0.175774602,26.6659736 0.0756482789,27.2135768 0.550969711,27.2135768 L4.08928999,27.2135772 L2.44598132,32.300605 C2.26824272,32.8504023 2.98562354,33.2480257 3.38029806,32.8184697 L10.8588327,24.6789797 Z" id="Shape" opacity="0.397433036"></path>
        </g>
    </g>
</svg>