<?xml version="1.0" encoding="UTF-8"?>
<svg width="58px" height="58px" viewBox="0 0 58 58" version="1.1" xmlns="http://www.w3.org/2000/svg" xmlns:xlink="http://www.w3.org/1999/xlink">
    <!-- Generator: Sketch 50.2 (55047) - http://www.bohemiancoding.com/sketch -->
    <title>sdks</title>
    <desc>Created with Sketch.</desc>
    <defs></defs>
    <g id="sdks" stroke="none" stroke-width="1" fill="none" fill-rule="evenodd">
        <g id="Group-13" transform="translate(9.000000, 13.000000)" fill="#01B2D0">
            <path d="M29,8 L27,8 L27,5 C27,4.44771525 26.5522847,4 26,4 L3,4 C2.44771525,4 2,4.44771525 2,5 L2,24 C2,24.5522847 2.44771525,25 3,25 L21,25 L21,27 L1.99328744,27 C0.892425187,27 0,26.1016617 0,24.9926701 L0,2.00732994 C0,0.898712226 0.899712682,0 1.99328744,0 L27.0067126,0 C28.1075748,0 29,0.898338318 29,2.00732994 L29,8 Z M3,1 C2.44771525,1 2,1.44771525 2,2 C2,2.55228475 2.44771525,3 3,3 C3.55228475,3 4,2.55228475 4,2 C4,1.44771525 3.55228475,1 3,1 Z M6,1 C5.44771525,1 5,1.44771525 5,2 C5,2.55228475 5.44771525,3 6,3 C6.55228475,3 7,2.55228475 7,2 C7,1.44771525 6.55228475,1 6,1 Z M9,1 C8.44771525,1 8,1.44771525 8,2 C8,2.55228475 8.44771525,3 9,3 C9.55228475,3 10,2.55228475 10,2 C10,1.44771525 9.55228475,1 9,1 Z" id="Combined-Shape"></path>
            <path d="M28,12 L26,12 C25.4477153,12 25,12.4477153 25,13 L25,32 C25,32.5522847 25.4477153,33 26,33 L37,33 C37.5522847,33 38,32.5522847 38,32 L38,13 C38,12.4477153 37.5522847,12 37,12 L35,12 L35,13.5 C35,13.7761424 34.7761424,14 34.5,14 L28.5,14 C28.2238576,14 28,13.7761424 28,13.5 L28,12 Z M23,12.0035949 C23,10.89704 23.8900584,10 25.0001062,10 L37.9998938,10 C39.104522,10 40,10.8897632 40,12.0035949 L40,32.9964051 C40,34.10296 39.1099416,35 37.9998938,35 L25.0001062,35 C23.895478,35 23,34.1102368 23,32.9964051 L23,12.0035949 Z" id="Combined-Shape" opacity="0.397823661"></path>
        </g>
    </g>
</svg>