<?xml version="1.0" encoding="UTF-8"?>
<svg width="58px" height="58px" viewBox="0 0 58 58" version="1.1" xmlns="http://www.w3.org/2000/svg" xmlns:xlink="http://www.w3.org/1999/xlink">
    <!-- Generator: Sketch 50.2 (55047) - http://www.bohemiancoding.com/sketch -->
    <title>sources</title>
    <desc>Created with Sketch.</desc>
    <defs></defs>
    <g id="sources" stroke="none" stroke-width="1" fill="none" fill-rule="evenodd">
        <g id="Group-9" transform="translate(11.000000, 11.000000)" fill="#6FD350" fill-rule="nonzero">
            <path d="M3,26 L7,26 C8.65685425,26 10,27.3431458 10,29 L10,33 C10,34.6568542 8.65685425,36 7,36 L3,36 C1.34314575,36 2.02906125e-16,34.6568542 0,33 L0,29 C-2.02906125e-16,27.3431458 1.34314575,26 3,26 Z M3,28 C2.44771525,28 2,28.4477153 2,29 L2,33 C2,33.5522847 2.44771525,34 3,34 L7,34 C7.55228475,34 8,33.5522847 8,33 L8,29 C8,28.4477153 7.55228475,28 7,28 L3,28 Z" id="Rectangle-4"></path>
            <path d="M3,13 L7,13 C8.65685425,13 10,14.3431458 10,16 L10,20 C10,21.6568542 8.65685425,23 7,23 L3,23 C1.34314575,23 2.02906125e-16,21.6568542 0,20 L0,16 C-2.02906125e-16,14.3431458 1.34314575,13 3,13 Z M3,15 C2.44771525,15 2,15.4477153 2,16 L2,20 C2,20.5522847 2.44771525,21 3,21 L7,21 C7.55228475,21 8,20.5522847 8,20 L8,16 C8,15.4477153 7.55228475,15 7,15 L3,15 Z" id="Rectangle-4-Copy" opacity="0.403738839"></path>
            <path d="M3,0 L7,0 C8.65685425,-3.04359188e-16 10,1.34314575 10,3 L10,7 C10,8.65685425 8.65685425,10 7,10 L3,10 C1.34314575,10 2.02906125e-16,8.65685425 0,7 L0,3 C-2.02906125e-16,1.34314575 1.34314575,3.04359188e-16 3,0 Z M3,2 C2.44771525,2 2,2.44771525 2,3 L2,7 C2,7.55228475 2.44771525,8 3,8 L7,8 C7.55228475,8 8,7.55228475 8,7 L8,3 C8,2.44771525 7.55228475,2 7,2 L3,2 Z" id="Rectangle-4-Copy-4"></path>
            <path d="M16,26 L20,26 C21.6568542,26 23,27.3431458 23,29 L23,33 C23,34.6568542 21.6568542,36 20,36 L16,36 C14.3431458,36 13,34.6568542 13,33 L13,29 C13,27.3431458 14.3431458,26 16,26 Z M16,28 C15.4477153,28 15,28.4477153 15,29 L15,33 C15,33.5522847 15.4477153,34 16,34 L20,34 C20.5522847,34 21,33.5522847 21,33 L21,29 C21,28.4477153 20.5522847,28 20,28 L16,28 Z" id="Rectangle-4" opacity="0.403738839"></path>
            <path d="M16,13 L20,13 C21.6568542,13 23,14.3431458 23,16 L23,20 C23,21.6568542 21.6568542,23 20,23 L16,23 C14.3431458,23 13,21.6568542 13,20 L13,16 C13,14.3431458 14.3431458,13 16,13 Z M16,15 C15.4477153,15 15,15.4477153 15,16 L15,20 C15,20.5522847 15.4477153,21 16,21 L20,21 C20.5522847,21 21,20.5522847 21,20 L21,16 C21,15.4477153 20.5522847,15 20,15 L16,15 Z" id="Rectangle-4-Copy-2"></path>
            <path d="M16,0 L20,0 C21.6568542,-3.04359188e-16 23,1.34314575 23,3 L23,7 C23,8.65685425 21.6568542,10 20,10 L16,10 C14.3431458,10 13,8.65685425 13,7 L13,3 C13,1.34314575 14.3431458,3.04359188e-16 16,0 Z M16,2 C15.4477153,2 15,2.44771525 15,3 L15,7 C15,7.55228475 15.4477153,8 16,8 L20,8 C20.5522847,8 21,7.55228475 21,7 L21,3 C21,2.44771525 20.5522847,2 20,2 L16,2 Z" id="Rectangle-4-Copy-5" opacity="0.403738839"></path>
            <path d="M29,26 L33,26 C34.6568542,26 36,27.3431458 36,29 L36,33 C36,34.6568542 34.6568542,36 33,36 L29,36 C27.3431458,36 26,34.6568542 26,33 L26,29 C26,27.3431458 27.3431458,26 29,26 Z M29,28 C28.4477153,28 28,28.4477153 28,29 L28,33 C28,33.5522847 28.4477153,34 29,34 L33,34 C33.5522847,34 34,33.5522847 34,33 L34,29 C34,28.4477153 33.5522847,28 33,28 L29,28 Z" id="Rectangle-4"></path>
            <path d="M29,13 L33,13 C34.6568542,13 36,14.3431458 36,16 L36,20 C36,21.6568542 34.6568542,23 33,23 L29,23 C27.3431458,23 26,21.6568542 26,20 L26,16 C26,14.3431458 27.3431458,13 29,13 Z M29,15 C28.4477153,15 28,15.4477153 28,16 L28,20 C28,20.5522847 28.4477153,21 29,21 L33,21 C33.5522847,21 34,20.5522847 34,20 L34,16 C34,15.4477153 33.5522847,15 33,15 L29,15 Z" id="Rectangle-4-Copy-3" opacity="0.403738839"></path>
            <path d="M29,0 L33,0 C34.6568542,-3.04359188e-16 36,1.34314575 36,3 L36,7 C36,8.65685425 34.6568542,10 33,10 L29,10 C27.3431458,10 26,8.65685425 26,7 L26,3 C26,1.34314575 27.3431458,3.04359188e-16 29,0 Z M29,2 C28.4477153,2 28,2.44771525 28,3 L28,7 C28,7.55228475 28.4477153,8 29,8 L33,8 C33.5522847,8 34,7.55228475 34,7 L34,3 C34,2.44771525 33.5522847,2 33,2 L29,2 Z" id="Rectangle-4-Copy-6"></path>
        </g>
    </g>
</svg>