<?xml version="1.0" encoding="UTF-8"?>
<svg width="169px" height="164px" viewBox="0 0 169 164" version="1.1" xmlns="http://www.w3.org/2000/svg" xmlns:xlink="http://www.w3.org/1999/xlink">
    <!-- Generator: Sketch 41.1 (35376) - http://www.bohemiancoding.com/sketch -->
    <title>home-capture</title>
    <desc>Created with Sketch.</desc>
    <defs>
        <path d="M15.5693631,26.3941979 C16.0688603,26.098587 16.8783633,26.0983845 17.3782027,26.3941979 L32.5728145,35.3866243 C33.0723118,35.6822352 33.072654,36.1613126 32.5728145,36.457126 L17.3782027,45.4495524 C16.8787054,45.7451633 16.0692025,45.7453658 15.5693631,45.4495524 L0.374751295,36.457126 C-0.124745989,36.1615151 -0.125088179,35.6824377 0.374751295,35.3866243 L15.5693631,26.3941979 Z" id="path-1"></path>
        <mask id="mask-2" maskContentUnits="userSpaceOnUse" maskUnits="objectBoundingBox" x="0" y="0" width="32.9475658" height="19.4989227" fill="white">
            <use xlink:href="#path-1"></use>
        </mask>
        <path d="M15.5693631,17.67006 C16.0688603,17.3744491 16.8783633,17.3742466 17.3782027,17.67006 L32.5728145,26.6624864 C33.0723118,26.9580973 33.072654,27.4371747 32.5728145,27.7329881 L17.3782027,36.7254145 C16.8787054,37.0210254 16.0692025,37.0212279 15.5693631,36.7254145 L0.374751295,27.7329881 C-0.124745989,27.4373772 -0.125088179,26.9582998 0.374751295,26.6624864 L15.5693631,17.67006 Z" id="path-3"></path>
        <mask id="mask-4" maskContentUnits="userSpaceOnUse" maskUnits="objectBoundingBox" x="0" y="0" width="32.9475658" height="19.4989227" fill="white">
            <use xlink:href="#path-3"></use>
        </mask>
        <path d="M15.5693631,8.94592204 C16.0688603,8.65031116 16.8783633,8.65010865 17.3782027,8.94592204 L32.5728145,17.9383485 C33.0723118,18.2339593 33.072654,18.7130368 32.5728145,19.0088502 L17.3782027,28.0012766 C16.8787054,28.2968874 16.0692025,28.29709 15.5693631,28.0012766 L0.374751295,19.0088502 C-0.124745989,18.7132393 -0.125088179,18.2341619 0.374751295,17.9383485 L15.5693631,8.94592204 Z" id="path-5"></path>
        <mask id="mask-6" maskContentUnits="userSpaceOnUse" maskUnits="objectBoundingBox" x="0" y="0" width="32.9475658" height="19.4989227" fill="white">
            <use xlink:href="#path-5"></use>
        </mask>
        <path d="M15.5693631,0.22178411 C16.0688603,-0.0738267712 16.8783633,-0.0740292848 17.3782027,0.22178411 L32.5728145,9.21421052 C33.0723118,9.50982141 33.072654,9.98889883 32.5728145,10.2847122 L17.3782027,19.2771386 C16.8787054,19.5727495 16.0692025,19.572952 15.5693631,19.2771386 L0.374751295,10.2847122 C-0.124745989,9.98910134 -0.125088179,9.51002392 0.374751295,9.21421052 L15.5693631,0.22178411 Z" id="path-7"></path>
        <mask id="mask-8" maskContentUnits="userSpaceOnUse" maskUnits="objectBoundingBox" x="0" y="0" width="32.9475658" height="19.4989227" fill="white">
            <use xlink:href="#path-7"></use>
        </mask>
        <rect id="path-9" x="25" y="0" width="90" height="84" rx="3"></rect>
        <mask id="mask-10" maskContentUnits="userSpaceOnUse" maskUnits="objectBoundingBox" x="0" y="0" width="90" height="84" fill="white">
            <use xlink:href="#path-9"></use>
        </mask>
        <rect id="path-11" x="0" y="17" width="35" height="67" rx="5"></rect>
        <mask id="mask-12" maskContentUnits="userSpaceOnUse" maskUnits="objectBoundingBox" x="0" y="0" width="35" height="67" fill="white">
            <use xlink:href="#path-11"></use>
        </mask>
        <rect id="path-13" x="3" y="25" width="29" height="50" rx="1"></rect>
        <mask id="mask-14" maskContentUnits="userSpaceOnUse" maskUnits="objectBoundingBox" x="0" y="0" width="29" height="50" fill="white">
            <use xlink:href="#path-13"></use>
        </mask>
        <path d="M99.1276537,118.179604 C99.5271415,117.958999 98.9557258,116.681258 97.8776537,116.929604 L90.3776537,116.929604 L94.1276537,104.429604 C93.9725566,103.528665 92.3421457,102.600877 91.6276537,103.179604 L74.1276537,123.179604 C73.728166,123.400209 74.2995816,124.67795 75.3776537,124.429604 L82.8776537,124.429604 L79.1276537,136.929604 C79.2827508,137.830543 80.9131618,138.758331 81.6276537,138.179604 L99.1276537,118.179604 Z" id="path-15"></path>
        <mask id="mask-16" maskContentUnits="userSpaceOnUse" maskUnits="objectBoundingBox" x="-3" y="-3" width="31.2553075" height="41.359208">
            <rect x="71" y="100" width="31.2553075" height="41.359208" fill="white"></rect>
            <use xlink:href="#path-15" fill="black"></use>
        </mask>
    </defs>
    <g id="Page-1" stroke="none" stroke-width="1" fill="none" fill-rule="evenodd">
        <g id="Customers" transform="translate(-151.000000, -201.000000)">
            <g id="Group-10" transform="translate(79.000000, 197.000000)">
                <g id="home-capture" transform="translate(68.000000, 0.000000)">
                    <g id="stack" transform="translate(140.000000, 122.000000)" stroke-width="1.5999999">
                        <use id="Rectangle" stroke="#D5D5D5" mask="url(#mask-2)" fill-opacity="0.849807518" fill="#FFFFFF" xlink:href="#path-1"></use>
                        <use id="Rectangle" stroke="#D5D5D5" mask="url(#mask-4)" fill-opacity="0.849807518" fill="#FFFFFF" xlink:href="#path-3"></use>
                        <use id="Rectangle" stroke="#D5D5D5" mask="url(#mask-6)" fill-opacity="0.849807518" fill="#FFFFFF" xlink:href="#path-5"></use>
                        <use id="Rectangle" stroke="#FFD358" mask="url(#mask-8)" fill="#FFEFC3" xlink:href="#path-7"></use>
                    </g>
                    <rect id="Rectangle-3" fill-opacity="0.098901721" fill="#84D2E8" transform="translate(85.000000, 85.000000) rotate(45.000000) translate(-85.000000, -85.000000) " x="25" y="25" width="120" height="120" rx="10"></rect>
                    <g id="Capture-Data" transform="translate(26.000000, 39.000000)">
                        <use id="Rectangle-12" stroke="#48BDDE" mask="url(#mask-10)" stroke-width="4" fill="#FFFFFF" xlink:href="#path-9"></use>
                        <g id="Group-12" transform="translate(33.000000, 18.000000)" fill="#48BDDE">
                            <rect id="Rectangle-14" opacity="0.19" x="0" y="0" width="8" height="2"></rect>
                            <rect id="Rectangle-14" opacity="0.15" x="31" y="0" width="8" height="2"></rect>
                            <rect id="Rectangle-14" opacity="0.25" x="12" y="0" width="15" height="2"></rect>
                            <rect id="Rectangle-14" opacity="0.37" x="0" y="8" width="8" height="2"></rect>
                            <rect id="Rectangle-14" opacity="0.31" x="24" y="8" width="13" height="2"></rect>
                            <rect id="Rectangle-14" opacity="0.31" x="53" y="8" width="13" height="2"></rect>
                            <rect id="Rectangle-14" opacity="0.13" x="19" y="12" width="8" height="2"></rect>
                            <rect id="Rectangle-14" opacity="0.13" x="50" y="12" width="8" height="2"></rect>
                            <rect id="Rectangle-14" opacity="0.33" x="23" y="16" width="14" height="2"></rect>
                            <rect id="Rectangle-14" opacity="0.15" x="12" y="8" width="8" height="2"></rect>
                            <rect id="Rectangle-14" opacity="0.07" x="41" y="8" width="8" height="2"></rect>
                            <rect id="Rectangle-14" opacity="0.25" x="0" y="16" width="7" height="2"></rect>
                            <rect id="Rectangle-14" opacity="0.39" x="11" y="16" width="8" height="2"></rect>
                            <rect id="Rectangle-14" opacity="0.39" x="51" y="16" width="8" height="2"></rect>
                            <rect id="Rectangle-14" opacity="0.09" x="0" y="20" width="17" height="2"></rect>
                            <rect id="Rectangle-14" opacity="0.19" x="0" y="24" width="9" height="2"></rect>
                            <rect id="Rectangle-14" opacity="0.25" x="13" y="24" width="9" height="2"></rect>
                            <rect id="Rectangle-14" opacity="0.23" x="41" y="16" width="6" height="2"></rect>
                            <rect id="Rectangle-14" opacity="0.17" x="21" y="20" width="10" height="2"></rect>
                            <rect id="Rectangle-14" opacity="0.35" x="22" y="4" width="13" height="2"></rect>
                            <rect id="Rectangle-14" opacity="0.13" x="0" y="4" width="18" height="2"></rect>
                            <rect id="Rectangle-14" opacity="0.31" x="39" y="4" width="18" height="2"></rect>
                            <rect id="Rectangle-14" opacity="0.35" x="0" y="12" width="15" height="2"></rect>
                            <rect id="Rectangle-14" opacity="0.13" x="31" y="12" width="15" height="2"></rect>
                        </g>
                        <path d="M26.5,11 L113.5,11" id="Line" stroke="#48BDDE" stroke-width="2" stroke-linecap="square"></path>
                        <rect id="Rectangle-13" fill="#84D2E8" x="30" y="4" width="4" height="4" rx="2"></rect>
                        <rect id="Rectangle-13" fill="#84D2E8" x="36" y="4" width="4" height="4" rx="2"></rect>
                        <rect id="Rectangle-13" fill="#84D2E8" x="42" y="4" width="4" height="4" rx="2"></rect>
                        <use id="Rectangle-15" stroke="#48BDDE" mask="url(#mask-12)" stroke-width="4" fill="#FFFFFF" xlink:href="#path-11"></use>
                        <rect id="Rectangle-7" fill="#84D2E8" x="14" y="22" width="8" height="1" rx="0.5"></rect>
                        <circle id="Oval-2" fill="#84D2E8" cx="17.5" cy="78.5" r="2.5"></circle>
                        <use id="Rectangle-16" stroke="#48BDDE" mask="url(#mask-14)" stroke-width="2" fill="#FFFFFF" xlink:href="#path-13"></use>
                        <rect id="Rectangle-14" fill="#48BDDE" opacity="0.150000006" x="7" y="29" width="5" height="2"></rect>
                        <rect id="Rectangle-14" fill="#48BDDE" opacity="0.25" x="14" y="29" width="9" height="2"></rect>
                        <rect id="Rectangle-14" fill="#48BDDE" opacity="0.35" x="7" y="37" width="5" height="2"></rect>
                        <rect id="Rectangle-14" fill="#48BDDE" opacity="0.35" x="20" y="41" width="5" height="2"></rect>
                        <rect id="Rectangle-14" fill="#48BDDE" opacity="0.65" x="14" y="37" width="7" height="2"></rect>
                        <rect id="Rectangle-14" fill="#48BDDE" opacity="0.7" x="7" y="45" width="4" height="2"></rect>
                        <rect id="Rectangle-14" fill="#48BDDE" opacity="0.25" x="13" y="45" width="5" height="2"></rect>
                        <rect id="Rectangle-14" fill="#48BDDE" opacity="0.200000003" x="20" y="33" width="8" height="2"></rect>
                        <rect id="Rectangle-14" fill="#48BDDE" opacity="0.35" x="7" y="33" width="11" height="2"></rect>
                        <rect id="Rectangle-14" fill="#48BDDE" opacity="0.35" x="7" y="41" width="11" height="2"></rect>
                    </g>
                    <g id="Shape">
                        <use fill="#48BDDE" fill-rule="evenodd" xlink:href="#path-15"></use>
                        <use stroke="#FFFFFF" mask="url(#mask-16)" stroke-width="6" xlink:href="#path-15"></use>
                    </g>
                </g>
            </g>
        </g>
    </g>
</svg>