<?xml version="1.0" encoding="UTF-8"?>
<svg width="175px" height="165px" viewBox="0 0 175 165" version="1.1" xmlns="http://www.w3.org/2000/svg" xmlns:xlink="http://www.w3.org/1999/xlink">
    <!-- Generator: Sketch 41.1 (35376) - http://www.bohemiancoding.com/sketch -->
    <title>home-model</title>
    <desc>Created with Sketch.</desc>
    <defs>
        <path d="M15.5693631,27.5074984 C16.0688603,27.2118875 16.8783633,27.211685 17.3782027,27.5074984 L32.5728145,36.4999248 C33.0723118,36.7955357 33.072654,37.2746131 32.5728145,37.5704265 L17.3782027,46.5628529 C16.8787054,46.8584638 16.0692025,46.8586663 15.5693631,46.5628529 L0.374751295,37.5704265 C-0.124745989,37.2748156 -0.125088179,36.7957382 0.374751295,36.4999248 L15.5693631,27.5074984 Z" id="path-1"></path>
        <mask id="mask-2" maskContentUnits="userSpaceOnUse" maskUnits="objectBoundingBox" x="0" y="0" width="32.9475658" height="19.4989227" fill="white">
            <use xlink:href="#path-1"></use>
        </mask>
        <path d="M15.5693631,18.8824984 C16.0688603,18.5868875 16.8783633,18.586685 17.3782027,18.8824984 L32.5728145,27.8749248 C33.0723118,28.1705357 33.072654,28.6496131 32.5728145,28.9454265 L17.3782027,37.9378529 C16.8787054,38.2334638 16.0692025,38.2336663 15.5693631,37.9378529 L0.374751295,28.9454265 C-0.124745989,28.6498156 -0.125088179,28.1707382 0.374751295,27.8749248 L15.5693631,18.8824984 Z" id="path-3"></path>
        <mask id="mask-4" maskContentUnits="userSpaceOnUse" maskUnits="objectBoundingBox" x="0" y="0" width="32.9475658" height="19.4989227" fill="white">
            <use xlink:href="#path-3"></use>
        </mask>
        <path d="M15.5693631,9.94592204 C16.0688603,9.65031116 16.8783633,9.65010865 17.3782027,9.94592204 L32.5728145,18.9383485 C33.0723118,19.2339593 33.072654,19.7130368 32.5728145,20.0088502 L17.3782027,29.0012766 C16.8787054,29.2968874 16.0692025,29.29709 15.5693631,29.0012766 L0.374751295,20.0088502 C-0.124745989,19.7132393 -0.125088179,19.2341619 0.374751295,18.9383485 L15.5693631,9.94592204 Z" id="path-5"></path>
        <mask id="mask-6" maskContentUnits="userSpaceOnUse" maskUnits="objectBoundingBox" x="0" y="0" width="32.9475658" height="19.4989227" fill="white">
            <use xlink:href="#path-5"></use>
        </mask>
        <path d="M15.5693631,1.12264618 C16.0688603,0.827035298 16.8783633,0.826832784 17.3782027,1.12264618 L32.5728145,10.1150726 C33.0723118,10.4106835 33.072654,10.8897609 32.5728145,11.1855743 L17.3782027,20.1780007 C16.8787054,20.4736116 16.0692025,20.4738141 15.5693631,20.1780007 L0.374751295,11.1855743 C-0.124745989,10.8899634 -0.125088179,10.410886 0.374751295,10.1150726 L15.5693631,1.12264618 Z" id="path-7"></path>
        <mask id="mask-8" maskContentUnits="userSpaceOnUse" maskUnits="objectBoundingBox" x="0" y="0" width="32.9475658" height="19.4989227" fill="white">
            <use xlink:href="#path-7"></use>
        </mask>
        <polygon id="path-9" points="49.0097902 7.70454545 90.3636364 32.4776224 90.3636364 80.7199301 49.0097902 105.493007 6.36363636 80.7199301 6.36363636 32.4776224"></polygon>
        <mask id="mask-10" maskContentUnits="userSpaceOnUse" maskUnits="objectBoundingBox" x="0" y="0" width="84" height="97.7884615" fill="white">
            <use xlink:href="#path-9"></use>
        </mask>
        <ellipse id="path-11" cx="48.3636364" cy="56.5" rx="21.6363636" ry="21.8295455"></ellipse>
        <mask id="mask-12" maskContentUnits="userSpaceOnUse" maskUnits="objectBoundingBox" x="0" y="0" width="43.2727273" height="43.6590909" fill="white">
            <use xlink:href="#path-11"></use>
        </mask>
        <ellipse id="path-13" cx="9.54545455" cy="35.3125" rx="9.54545455" ry="9.63068182"></ellipse>
        <mask id="mask-14" maskContentUnits="userSpaceOnUse" maskUnits="objectBoundingBox" x="0" y="0" width="19.0909091" height="19.2613636" fill="white">
            <use xlink:href="#path-13"></use>
        </mask>
        <ellipse id="path-15" cx="49" cy="9.63068182" rx="9.54545455" ry="9.63068182"></ellipse>
        <mask id="mask-16" maskContentUnits="userSpaceOnUse" maskUnits="objectBoundingBox" x="0" y="0" width="19.0909091" height="19.2613636" fill="white">
            <use xlink:href="#path-15"></use>
        </mask>
        <ellipse id="path-17" cx="88.4545455" cy="35.3125" rx="9.54545455" ry="9.63068182"></ellipse>
        <mask id="mask-18" maskContentUnits="userSpaceOnUse" maskUnits="objectBoundingBox" x="0" y="0" width="19.0909091" height="19.2613636" fill="white">
            <use xlink:href="#path-17"></use>
        </mask>
        <ellipse id="path-19" cx="88.4545455" cy="80.2556818" rx="9.54545455" ry="9.63068182"></ellipse>
        <mask id="mask-20" maskContentUnits="userSpaceOnUse" maskUnits="objectBoundingBox" x="0" y="0" width="19.0909091" height="19.2613636" fill="white">
            <use xlink:href="#path-19"></use>
        </mask>
        <ellipse id="path-21" cx="49" cy="103.369318" rx="9.54545455" ry="9.63068182"></ellipse>
        <mask id="mask-22" maskContentUnits="userSpaceOnUse" maskUnits="objectBoundingBox" x="0" y="0" width="19.0909091" height="19.2613636" fill="white">
            <use xlink:href="#path-21"></use>
        </mask>
        <ellipse id="path-23" cx="9.54545455" cy="80.2556818" rx="9.54545455" ry="9.63068182"></ellipse>
        <mask id="mask-24" maskContentUnits="userSpaceOnUse" maskUnits="objectBoundingBox" x="0" y="0" width="19.0909091" height="19.2613636" fill="white">
            <use xlink:href="#path-23"></use>
        </mask>
    </defs>
    <g id="Page-1" stroke="none" stroke-width="1" fill="none" fill-rule="evenodd">
        <g id="Customers" transform="translate(-478.000000, -201.000000)">
            <g id="Group-9" transform="translate(409.000000, 197.000000)">
                <g id="home-model" transform="translate(65.000000, 0.000000)">
                    <g id="stack" transform="translate(146.000000, 122.000000)" stroke-width="1.5999999">
                        <use id="Rectangle" stroke="#D5D5D5" mask="url(#mask-2)" fill-opacity="0.849807518" fill="#FFFFFF" xlink:href="#path-1"></use>
                        <use id="Rectangle" stroke="#D5D5D5" mask="url(#mask-4)" fill-opacity="0.849807518" fill="#FFFFFF" xlink:href="#path-3"></use>
                        <use id="Rectangle" stroke="#6FD350" mask="url(#mask-6)" fill="#DAF3D3" xlink:href="#path-5"></use>
                        <use id="Rectangle" stroke="#D5D5D5" mask="url(#mask-8)" fill-opacity="0.849807518" fill="#FFFFFF" xlink:href="#path-7"></use>
                    </g>
                    <rect id="Rectangle-3" fill-opacity="0.098901721" fill="#84D2E8" transform="translate(85.000000, 85.000000) rotate(45.000000) translate(-85.000000, -85.000000) " x="25" y="25" width="120" height="120" rx="10"></rect>
                    <g id="Group-11" transform="translate(36.000000, 28.000000)">
                        <use id="Polygon" stroke="#48BDDE" mask="url(#mask-10)" stroke-width="4" fill="#F3FBFD" xlink:href="#path-9"></use>
                        <path d="M88.3339844,35.4579634 L9.54545455,80.2556818" id="Line" stroke="#48BDDE" stroke-width="2" stroke-linecap="square"></path>
                        <path d="M48,9.63068182 L48,103.369318" id="Line" stroke="#48BDDE" stroke-width="2" stroke-linecap="square"></path>
                        <path d="M88.7602983,80.4124312 L8.27272727,35.3125" id="Path-3" stroke="#48BDDE" stroke-width="2"></path>
                        <use id="Oval-4" stroke="#48BDDE" mask="url(#mask-12)" stroke-width="4" fill="#FFFFFF" xlink:href="#path-11"></use>
                        <use id="Oval-4" stroke="#48BDDE" mask="url(#mask-14)" stroke-width="4" fill="#FFFFFF" xlink:href="#path-13"></use>
                        <use id="Oval-4" stroke="#48BDDE" mask="url(#mask-16)" stroke-width="4" fill="#FFFFFF" xlink:href="#path-15"></use>
                        <use id="Oval-4" stroke="#48BDDE" mask="url(#mask-18)" stroke-width="4" fill="#FFFFFF" xlink:href="#path-17"></use>
                        <path d="M53.7945046,55.0107027 C53.9201891,54.57491 54.0089427,54.1082342 54.0643392,53.7593713 C54.460454,53.5786488 54.764837,53.2658159 54.9322178,52.8729162 C55.167504,52.3027253 55.2955712,51.081133 55.2979539,51.0296614 C55.398025,50.0602799 55.0442021,49.5038148 55.0114408,49.4746476 C55.4236384,45.5496531 54.1155661,44.7741479 53.2453048,44.6357465 C52.9361566,44.5865625 52.4685624,44.4750408 52.2588896,44.2514253 C51.7728299,43.7355656 51.5560092,43.1613715 50.713744,43.2059802 C50.4022131,43.2237093 49.9810806,43.1299166 49.7416247,42.9360403 C49.4205632,42.6763947 48.9756042,42.375 48.6456078,42.375 C48.3221637,42.375 47.9147313,42.6655285 47.6169006,42.9200269 C47.3845927,43.121338 46.972395,43.2219936 46.6608641,43.2036926 C45.818599,43.1567962 45.6017782,43.733278 45.1157185,44.2491377 C44.9060457,44.4727531 44.4360689,44.5842749 44.1293033,44.6334589 C43.2590421,44.7718602 41.9515654,45.5473655 42.3631674,49.47236 C42.3280234,49.5061024 41.9789658,50.0665708 42.0766543,51.0273738 C42.0814196,51.0788454 42.2071041,52.3027253 42.4423904,52.8706285 C42.6073886,53.2635283 42.9147498,53.5763612 43.310269,53.7570836 C43.3656655,54.1082342 43.4568017,54.5726223 43.5801036,55.0084151 C43.7802458,55.7078568 44.4318993,56.8848404 45.3784052,57.82963 C45.248551,62.4094574 36.8390039,61.0265875 35.6363636,66.254385 C38.7659684,69.839667 43.454419,72.1255774 48.6896867,72.1255774 C53.9249544,72.1255774 58.6157877,69.839667 61.7382445,66.2566726 C60.5445391,61.0157212 52.1540532,62.3539825 52.0218164,57.7850213 C52.9546221,56.8470946 53.6015103,55.6918434 53.7945046,55.0107027 Z" id="Path" fill="#84D2E8" opacity="0.598788496"></path>
                        <use id="Oval-4" stroke="#48BDDE" mask="url(#mask-20)" stroke-width="4" fill="#FFFFFF" xlink:href="#path-19"></use>
                        <use id="Oval-4" stroke="#48BDDE" mask="url(#mask-22)" stroke-width="4" fill="#FFFFFF" xlink:href="#path-21"></use>
                        <use id="Oval-4" stroke="#48BDDE" mask="url(#mask-24)" stroke-width="4" fill="#FFFFFF" xlink:href="#path-23"></use>
                        <path d="M12.6611534,80.0031314 C12.7560612,79.9532197 12.6203078,79.6641315 12.3641861,79.7203197 L10.5823824,79.7203197 L11.4732843,76.892202 C11.4364373,76.6883652 11.0490943,76.4784537 10.8793497,76.6093903 L6.72180778,81.1343785 C6.62689995,81.1842902 6.76265335,81.4733784 7.01877506,81.4171903 L8.80057875,81.4171903 L7.9096769,84.2453079 C7.94652391,84.4491447 8.33386688,84.6590562 8.50361147,84.5281197 L12.6611534,80.0031314 Z" id="Shape" fill="#0AA6D2" opacity="0.502660779"></path>
                        <path d="M12.6611534,35.0031314 C12.7560612,34.9532197 12.6203078,34.6641315 12.3641861,34.7203197 L10.5823824,34.7203197 L11.4732843,31.892202 C11.4364373,31.6883652 11.0490943,31.4784537 10.8793497,31.6093903 L6.72180778,36.1343785 C6.62689995,36.1842902 6.76265335,36.4733784 7.01877506,36.4171903 L8.80057875,36.4171903 L7.9096769,39.2453079 C7.94652391,39.4491447 8.33386688,39.6590562 8.50361147,39.5281197 L12.6611534,35.0031314 Z" id="Shape" fill="#0AA6D2" opacity="0.502660779"></path>
                        <path d="M91.6611534,35.0031314 C91.7560612,34.9532197 91.6203078,34.6641315 91.3641861,34.7203197 L89.5823824,34.7203197 L90.4732843,31.892202 C90.4364373,31.6883652 90.0490943,31.4784537 89.8793497,31.6093903 L85.7218078,36.1343785 C85.6268999,36.1842902 85.7626533,36.4733784 86.0187751,36.4171903 L87.8005787,36.4171903 L86.9096769,39.2453079 C86.9465239,39.4491447 87.3338669,39.6590562 87.5036115,39.5281197 L91.6611534,35.0031314 Z" id="Shape" fill="#0AA6D2" opacity="0.502660779"></path>
                        <path d="M51.6611534,9.00313143 C51.7560612,8.95321968 51.6203078,8.66413154 51.3641861,8.72031967 L49.5823824,8.72031967 L50.4732843,5.89220203 C50.4364373,5.68836518 50.0490943,5.47845369 49.8793497,5.60939027 L45.7218078,10.1343785 C45.6268999,10.1842902 45.7626533,10.4733784 46.0187751,10.4171903 L47.8005787,10.4171903 L46.9096769,13.2453079 C46.9465239,13.4491447 47.3338669,13.6590562 47.5036115,13.5281197 L51.6611534,9.00313143 Z" id="Shape" fill="#0AA6D2" opacity="0.502660779"></path>
                        <path d="M91.6611534,80.0031314 C91.7560612,79.9532197 91.6203078,79.6641315 91.3641861,79.7203197 L89.5823824,79.7203197 L90.4732843,76.892202 C90.4364373,76.6883652 90.0490943,76.4784537 89.8793497,76.6093903 L85.7218078,81.1343785 C85.6268999,81.1842902 85.7626533,81.4733784 86.0187751,81.4171903 L87.8005787,81.4171903 L86.9096769,84.2453079 C86.9465239,84.4491447 87.3338669,84.6590562 87.5036115,84.5281197 L91.6611534,80.0031314 Z" id="Shape" fill="#0AA6D2" opacity="0.502660779"></path>
                        <path d="M51.6611534,103.003131 C51.7560612,102.95322 51.6203078,102.664132 51.3641861,102.72032 L49.5823824,102.72032 L50.4732843,99.892202 C50.4364373,99.6883652 50.0490943,99.4784537 49.8793497,99.6093903 L45.7218078,104.134378 C45.6268999,104.18429 45.7626533,104.473378 46.0187751,104.41719 L47.8005787,104.41719 L46.9096769,107.245308 C46.9465239,107.449145 47.3338669,107.659056 47.5036115,107.52812 L51.6611534,103.003131 Z" id="Shape" fill="#0AA6D2" opacity="0.502660779"></path>
                    </g>
                </g>
            </g>
        </g>
    </g>
</svg>