<?xml version="1.0" encoding="UTF-8"?>
<svg width="58px" height="58px" viewBox="0 0 58 58" version="1.1" xmlns="http://www.w3.org/2000/svg" xmlns:xlink="http://www.w3.org/1999/xlink">
    <!-- Generator: Sketch 50.2 (55047) - http://www.bohemiancoding.com/sketch -->
    <title>custom</title>
    <desc>Created with Sketch.</desc>
    <defs></defs>
    <g id="custom" stroke="none" stroke-width="1" fill="none" fill-rule="evenodd">
        <g id="custom-reports" transform="translate(11.000000, 11.000000)" fill="#6FD350">
            <path d="M1.87119471,9.99968729 C4.6768074,4.35438584 10.3590456,0.390953749 17,0.0273088497 L17,8.04937524 C13.6574723,8.38124161 10.7991219,10.3589755 9.24684538,13.1606804 L1.87119471,9.99968729 Z" id="Combined-Shape"></path>
            <path d="M31.7956385,29.5626791 L25.943122,24.0759449 C27.2333197,22.3918063 28,20.285437 28,18 C28,12.8146519 24.0533227,8.55109967 19,8.04937524 L19,0.0273083803 C28.475989,0.546190085 36,8.39443158 36,18 C36,22.4020784 34.4197754,26.4350755 31.7956385,29.5626791 Z" id="Combined-Shape" opacity="0.403627232"></path>
            <path d="M24.425782,28.1363667 C22.5293112,29.3410174 20.3140778,30 18,30 C11.372583,30 6,24.627417 6,18 C6,17.3863681 6.04622874,16.7783738 6.13740966,16.1799355 L2.36915674,14.5649699 C2.12482395,15.6825713 2,16.8321688 2,18 C2,26.836556 9.163444,34 18,34 C21.4449662,34 24.71485,32.9084438 27.4150408,30.9387968 L24.425782,28.1363667 Z M18,36 C8.0588745,36 0,27.9411255 0,18 C0,15.8353738 0.38209302,13.7599902 1.08251247,11.8376158 L8.45823035,14.9986377 C8.16050765,15.9460748 8,16.9542931 8,18 C8,23.5228475 12.4771525,28 18,28 C20.5171727,28 22.8171229,27.0699596 24.5749663,25.5347629 L30.4274703,31.0214854 C27.1965666,34.1058976 22.819479,36 18,36 Z" id="Combined-Shape" fill-rule="nonzero"></path>
        </g>
    </g>
</svg>