<?xml version="1.0" encoding="UTF-8"?>
<svg width="58px" height="58px" viewBox="0 0 58 58" version="1.1" xmlns="http://www.w3.org/2000/svg" xmlns:xlink="http://www.w3.org/1999/xlink">
    <!-- Generator: Sketch 50.2 (55047) - http://www.bohemiancoding.com/sketch -->
    <title>history</title>
    <desc>Created with Sketch.</desc>
    <defs></defs>
    <g id="history" stroke="none" stroke-width="1" fill="none" fill-rule="evenodd">
        <g transform="translate(8.000000, 11.000000)" fill="#01B2D0" id="Combined-Shape">
            <path d="M4,18 C4,8.0588745 12.0588745,0 22,0 C31.9411255,0 40,8.0588745 40,18 C40,27.9411255 31.9411255,36 22,36 C21.4477153,36 21,35.5522847 21,35 C21,34.4477153 21.4477153,34 22,34 C30.836556,34 38,26.836556 38,18 C38,9.163444 30.836556,2 22,2 C13.163444,2 6,9.163444 6,18 L8.79289322,18 C9.06903559,18 9.29289322,18.2238576 9.29289322,18.5 C9.29289322,18.6326082 9.2402148,18.7597852 9.14644661,18.8535534 L5.49497475,22.5050253 C5.22160774,22.7783923 4.77839226,22.7783923 4.50502525,22.5050253 L0.853553391,18.8535534 C0.658291245,18.6582912 0.658291245,18.3417088 0.853553391,18.1464466 C0.94732158,18.0526784 1.07449854,18 1.20710678,18 L4,18 Z" fill-rule="nonzero"></path>
            <path d="M22.9999962,17.6161389 L27.2786278,22.3680407 C27.648177,22.7784667 27.6150398,23.4107615 27.2046139,23.7803107 C26.7941879,24.14986 26.161893,24.1167228 25.7923438,23.7062968 L21.2596594,18.6722408 C21.0983275,18.4946701 21.0000038,18.2588193 21.0000038,18.0000038 L21.0000038,17.9958148 L21.0000038,7.99999619 C21.0000038,7.44771354 21.4477174,7 22,7 C22.5522826,7 22.9999962,7.44771354 22.9999962,7.99999619 L22.9999962,17.6161389 Z" opacity="0.400558036"></path>
        </g>
    </g>
</svg>