<?xml version="1.0" encoding="UTF-8"?>
<svg width="21px" height="20px" viewBox="0 0 21 20" version="1.1" xmlns="http://www.w3.org/2000/svg" xmlns:xlink="http://www.w3.org/1999/xlink">
    <!-- Generator: Sketch 50.2 (55047) - http://www.bohemiancoding.com/sketch -->
    <title>plus</title>
    <desc>Created with Sketch.</desc>
    <defs></defs>
    <g id="Page-1" stroke="none" stroke-width="1" fill="none" fill-rule="evenodd" opacity="0.446763393">
        <g id="Segment-V6---Build" transform="translate(-709.000000, -271.000000)" fill="#9AA0A9">
            <g id="Group-12" transform="translate(479.000000, 230.000000)">
                <g id="Group-4" transform="translate(230.717435, 41.000000)">
                    <path d="M12.1314197,7.90487555 L17.691458,7.90487555 C18.8996544,7.90487555 19.8790911,8.88431223 19.8790911,10.0925086 C19.8790911,11.300705 18.8996544,12.2801417 17.691458,12.2801417 L12.1314197,12.2801417 L12.1314197,17.84018 C12.1314197,19.0483764 11.1519831,20.027813 9.94378667,20.027813 C8.73559029,20.027813 7.7561536,19.0483764 7.7561536,17.84018 L7.7561536,12.2801417 L2.19611531,12.2801417 C0.987918924,12.2801417 0.00848223778,11.300705 0.00848223778,10.0925086 C0.00848223778,8.88431223 0.987918924,7.90487555 2.19611531,7.90487555 L7.7561536,7.90487555 L7.7561536,2.34483725 C7.7561536,1.13664087 8.73559029,0.157204184 9.94378667,0.157204184 C11.1519831,0.157204184 12.1314197,1.13664087 12.1314197,2.34483725 L12.1314197,7.90487555 Z" id="plus"></path>
                </g>
            </g>
        </g>
    </g>
</svg>