<?xml version="1.0" encoding="UTF-8"?>
<svg width="58px" height="58px" viewBox="0 0 58 58" version="1.1" xmlns="http://www.w3.org/2000/svg" xmlns:xlink="http://www.w3.org/1999/xlink">
    <!-- Generator: Sketch 48.2 (47327) - http://www.bohemiancoding.com/sketch -->
    <title>event-detail</title>
    <desc>Created with Sketch.</desc>
    <defs></defs>
    <g id="Event-Manager" stroke="none" stroke-width="1" fill="none" fill-rule="evenodd">
        <g id="event-detail" fill="#6FD350">
            <path d="M37.4613229,38.28975 C31.9006814,42.3254458 24.0788869,41.8955291 19,37 C13.633165,31.4321549 13.633165,22.5678451 19,17 C24.5678451,11.633165 33.4321549,11.633165 39,17 C43.8955291,22.0788869 44.3254458,29.9006814 40.28975,35.4613229 L47.6690476,42.8406204 C48.4500961,43.621669 48.4500961,44.887999 47.6690476,45.6690476 C46.887999,46.4500961 45.621669,46.4500961 44.8406204,45.6690476 L37.4613229,38.28975 Z M37.6120182,18.4399675 C32.8188504,13.8198425 25.1811496,13.8198425 20.4399675,18.3879818 C15.8198425,23.1811496 15.8198425,30.8188504 20.3879818,35.5600325 C25.172323,40.1716496 32.7907304,40.1801419 37.5855094,35.5855094 C42.180142,30.7907305 42.1717453,23.1724187 37.6120182,18.4399675 Z" id="Combined-Shape" fill-rule="nonzero"></path>
            <rect id="Rectangle-13" x="24" y="22" width="10" height="10" rx="5"></rect>
            <path d="M7,25 L11,25 C12.1045695,25 13,25.8954305 13,27 C13,28.1045695 12.1045695,29 11,29 L7,29 C5.8954305,29 5,28.1045695 5,27 C5,25.8954305 5.8954305,25 7,25 Z M47,25 L51,25 C52.1045695,25 53,25.8954305 53,27 C53,28.1045695 52.1045695,29 51,29 L47,29 C45.8954305,29 45,28.1045695 45,27 C45,25.8954305 45.8954305,25 47,25 Z M40.3774056,23.0481651 C41.2362472,25.6067428 41.2362472,28.3932572 40.3774056,30.9518349 C38.4639582,30.6527951 37,28.9973605 37,27 C37,25.0026395 38.4639582,23.3472049 40.3774056,23.0481651 Z M17.6225944,30.9518349 C16.7637528,28.3932572 16.7637528,25.6067428 17.6225944,23.0481651 C19.5360418,23.3472049 21,25.0026395 21,27 C21,28.9973605 19.5360418,30.6527951 17.6225944,30.9518349 Z" id="Combined-Shape" opacity="0.400418931"></path>
        </g>
    </g>
</svg>