<?xml version="1.0" encoding="UTF-8"?>
<svg width="58px" height="58px" viewBox="0 0 58 58" version="1.1" xmlns="http://www.w3.org/2000/svg" xmlns:xlink="http://www.w3.org/1999/xlink">
    <!-- Generator: Sketch 48.2 (47327) - http://www.bohemiancoding.com/sketch -->
    <title>event-speed</title>
    <desc>Created with Sketch.</desc>
    <defs></defs>
    <g id="Event-Manager" stroke="none" stroke-width="1" fill="none" fill-rule="evenodd">
        <g id="event-speed" fill="#48BDDE">
            <path d="M29.5377583,46.9887628 C29.5094787,46.991901 29.4808315,46.9938654 29.4518651,46.9946051 C29.0982254,47.0036363 28.745454,47.0024048 28.3938503,46.9909766 C27.8418571,46.9730352 27.4089225,46.5110119 27.4268639,45.9590186 C27.4448053,45.4070254 27.9068287,44.9740908 28.4588219,44.9920322 C28.7717683,45.0022039 29.0858466,45.0033003 29.4008061,44.995257 C29.4265932,44.9945984 29.4521773,44.9949221 29.4775224,44.9961939 C29.5027455,44.9933933 29.5282644,44.9915248 29.5540453,44.9906245 C29.8689501,44.9796278 30.1823915,44.9595805 30.4941266,44.9305623 C31.0440341,44.8793736 31.5313187,45.283665 31.5825074,45.8335725 C31.6336961,46.3834799 31.2294046,46.8707645 30.6794972,46.9219532 C30.3293237,46.9545494 29.9773423,46.9770617 29.6238443,46.9894061 C29.5948873,46.9904173 29.5661749,46.990187 29.5377583,46.9887628 Z M36.8205782,45.2153149 C36.323303,45.4555976 35.7253941,45.247264 35.4851114,44.7499887 C35.2448287,44.2527135 35.4531623,43.6548047 35.9504375,43.4145219 C36.2330977,43.2779409 36.5115866,43.1330522 36.7855732,42.9800668 C37.26778,42.7108179 37.8769553,42.8834544 38.1462042,43.3656613 C38.4154531,43.8478682 38.2428166,44.4570434 37.7606097,44.7262924 C37.4522319,44.8984807 37.1387635,45.0615682 36.8205782,45.2153149 Z M42.687205,40.6856221 C42.328567,41.1056188 41.6973588,41.1553598 41.2773621,40.7967218 C40.8573655,40.4380837 40.8076245,39.8068756 41.1662625,39.3868789 C41.3701699,39.1480854 41.5670497,38.9033776 41.7566219,38.6530912 C42.09008,38.2128366 42.7172981,38.1262609 43.1575527,38.459719 C43.5978073,38.7931772 43.684383,39.4203953 43.3509249,39.8606499 C43.1377884,40.1420475 42.9164443,40.4171628 42.687205,40.6856221 Z M46.2185463,34.2480934 C46.057609,34.7764093 45.498859,35.0742285 44.9705431,34.9132912 C44.4422273,34.752354 44.1444081,34.1936039 44.3053453,33.6652881 C44.3966614,33.3655207 44.4791457,33.0628907 44.5526616,32.75772 C44.6820072,32.2207953 45.222126,31.8903871 45.7590507,32.0197327 C46.2959754,32.1490783 46.6263836,32.6891971 46.497038,33.2261218 C46.4142555,33.5697592 46.3213729,33.9105399 46.2185463,34.2480934 Z M46.8649218,26.8266747 C46.9310272,27.374989 46.5401197,27.8730745 45.9918055,27.9391799 C45.4434912,28.0052853 44.9454057,27.6143779 44.8793003,27.0660636 C44.8416604,26.7538581 44.7949772,26.4436108 44.7393516,26.1355887 C44.6412022,25.5920953 45.0022249,25.071941 45.5457184,24.9737916 C46.0892119,24.8756422 46.6093662,25.236665 46.7075155,25.7801584 C46.7700909,26.126664 46.8225968,26.4756083 46.8649218,26.8266747 Z M44.4913969,19.8353537 C44.7729524,20.31048 44.6160322,20.9238917 44.1409059,21.2054471 C43.6657796,21.4870026 43.0523679,21.3300824 42.7708125,20.8549561 C42.6108179,20.5849644 42.4428965,20.3197501 42.2672904,20.0596466 C41.9582585,19.6019156 42.0788028,18.9803313 42.5365338,18.6712994 C42.9942648,18.3622674 43.6158491,18.4828118 43.9248811,18.9405428 C44.1224416,19.2331648 44.3113714,19.5315597 44.4913969,19.8353537 Z M39.4307923,14.3327451 C39.8805895,14.6532149 39.9854301,15.2776397 39.6649603,15.727437 C39.3444905,16.1772342 38.7200657,16.2820748 38.2702685,15.961605 C38.014663,15.7794922 37.7537862,15.6049123 37.4879839,15.4381169 C37.0201772,15.1445605 36.8789195,14.5273538 37.172476,14.0595471 C37.4660324,13.5917405 38.0832391,13.4504828 38.5510458,13.7440392 C38.8499821,13.9316267 39.1433596,14.1279562 39.4307923,14.3327451 Z M32.7230605,11.3864467 C33.2634627,11.5003933 33.6091733,12.0308479 33.4952267,12.5712502 C33.38128,13.1116525 32.8508254,13.457363 32.3104231,13.3434164 C32.0039253,13.2787897 31.6951799,13.2231614 31.3844883,13.1766405 C30.8382925,13.0948568 30.4618122,12.5857788 30.5435959,12.0395829 C30.6253797,11.4933871 31.1344577,11.1169068 31.6806535,11.1986905 C32.0303957,11.2510586 32.3779818,11.313685 32.7230605,11.3864467 Z M25.2896379,11.3831675 C25.8302205,11.2700796 26.3601252,11.6166325 26.4732131,12.1572151 C26.586301,12.6977977 26.2397481,13.2277024 25.6991655,13.3407903 C25.3918361,13.4050825 25.0870011,13.47833 24.78495,13.5604073 C24.2519913,13.7052298 23.7025412,13.3905832 23.5577187,12.8576246 C23.4128963,12.324666 23.7275428,11.7752158 24.2605015,11.6303934 C24.6005529,11.5379902 24.9437112,11.4555341 25.2896379,11.3831675 Z M18.5212216,14.3596012 C18.9701112,14.0378613 19.5948298,14.1409365 19.9165697,14.5898261 C20.2383096,15.0387157 20.1352344,15.6634344 19.6863448,15.9851743 C19.4311972,16.1680503 19.181451,16.358401 18.9374349,16.5559537 C18.508188,16.9034671 17.8784994,16.837209 17.530986,16.4079622 C17.1834726,15.9787153 17.2497306,15.3490267 17.6789775,15.0015133 C17.9533869,14.7793545 18.2342572,14.5652818 18.5212216,14.3596012 Z M13.5333925,19.7812562 C13.8166465,19.3071406 14.4306159,19.1524167 14.9047315,19.4356706 C15.3788471,19.7189246 15.5335711,20.332894 15.2503171,20.8070096 C15.0893796,21.0763898 14.9363925,21.3504398 14.7915793,21.6288104 C14.5366975,22.1187631 13.9328898,22.3093258 13.442937,22.054444 C12.9529842,21.7995621 12.7624216,21.1957544 13.0173034,20.7058017 C13.1802342,20.392604 13.352348,20.0842918 13.5333925,19.7812562 Z M11.1249932,26.8260348 C11.19106,26.2777159 11.6891179,25.8867732 12.2374368,25.95284 C12.7857558,26.0189067 13.1766984,26.5169647 13.1106317,27.0652836 C13.0731708,27.3761887 13.04479,27.6887614 13.025574,28.0027247 C12.9918347,28.5539779 12.5176046,28.9735058 11.9663514,28.9397666 C11.4150982,28.9060273 10.9955702,28.4317972 11.0293095,27.880544 C11.0509209,27.5274428 11.0828464,27.1758307 11.1249932,26.8260348 Z M11.7640746,34.2179793 C11.6043486,33.689296 11.9034476,33.13123 12.4321309,32.971504 C12.9608142,32.8117779 13.5188802,33.1108769 13.6786063,33.6395602 C13.769436,33.9402012 13.869074,34.2377663 13.9773657,34.5319459 C14.1681535,35.0502301 13.9026652,35.6250465 13.384381,35.8158342 C12.8660968,36.0066219 12.2912805,35.7411336 12.1004927,35.2228494 C11.9785501,34.8915864 11.8663519,34.5565107 11.7640746,34.2179793 Z M15.3241945,40.7099474 C14.9646749,40.2907052 15.0130896,39.6593939 15.4323318,39.2998743 C15.8515741,38.9403546 16.4828853,38.9887693 16.842405,39.4080116 C17.0466606,39.6461976 17.2578658,39.8783798 17.4757212,40.1042415 C17.8591365,40.5017477 17.8477136,41.1348096 17.4502074,41.5182249 C17.0527013,41.9016402 16.4196393,41.8902173 16.036224,41.4927112 C15.7912998,41.2387858 15.5538452,40.9777472 15.3241945,40.7099474 Z M21.1520695,45.2053408 C20.6551496,44.9643242 20.4476989,44.3661084 20.6887155,43.8691884 C20.9297321,43.3722685 21.5279479,43.1648179 22.0248679,43.4058345 C22.3070217,43.542685 22.5931876,43.671205 22.8830203,43.7912029 C23.393299,44.0024709 23.635695,44.5874 23.4244271,45.0976786 C23.2131591,45.6079573 22.62823,45.8503533 22.1179514,45.6390854 C21.7917106,45.5040136 21.4696201,45.3593595 21.1520695,45.2053408 Z" id="Combined-Shape" fill-rule="nonzero" opacity="0.40087183"></path>
            <path d="M47,29 C47,29.5522847 46.5522847,30 46,30 C45.4477153,30 45,29.5522847 45,29 C45,20.163444 37.836556,13 29,13 C28.4477153,13 28,12.5522847 28,12 C28,11.4477153 28.4477153,11 29,11 C38.9411255,11 47,19.0588745 47,29 Z" id="Oval-6"></path>
            <path d="M36.4364903,27.7335626 C36.6741532,27.6057293 36.3342071,26.8653209 35.6928413,27.0092291 L31.2309471,27.0092291 L33.4618942,19.7658944 C33.3696239,19.2438304 32.3996611,18.706208 31.9745961,19.0415609 L21.5635097,30.6308965 C21.3258468,30.7587297 21.6657929,31.4991382 22.3071587,31.3552299 L26.7690529,31.3552299 L24.5381058,38.5985647 C24.6303761,39.1206287 25.6003389,39.658251 26.0254039,39.3228981 L36.4364903,27.7335626 Z" id="Shape"></path>
        </g>
    </g>
</svg>