<?xml version="1.0" encoding="UTF-8"?>
<svg width="58px" height="58px" viewBox="0 0 58 58" version="1.1" xmlns="http://www.w3.org/2000/svg" xmlns:xlink="http://www.w3.org/1999/xlink">
    <!-- Generator: Sketch 48.2 (47327) - http://www.bohemiancoding.com/sketch -->
    <title>event-tidy</title>
    <desc>Created with Sketch.</desc>
    <defs></defs>
    <g id="Event-Manager" stroke="none" stroke-width="1" fill="none" fill-rule="evenodd">
        <g id="event-tidy" fill="#FCBE10">
            <path d="M34.0009597,27.5327788 C35.1965625,28.2243977 36.0009597,29.5170853 36.0009597,30.99765 C36.0009597,32.0627222 35.5846909,33.0305696 34.9059711,33.7473744 C36.879415,36.6028718 37.9091202,41.6823736 37.9950866,48.9858798 C38.0015874,49.5381266 37.5591724,49.9910805 37.0069257,49.9975808 C37.0043103,49.9976116 35.039611,49.9976335 31.1128279,49.9976467 C30.6835401,49.9976467 30.302148,49.7236524 30.165133,49.3168171 C30.1176326,49.1757754 30.0710398,49.0416951 30.0253545,48.9145762 C30.0434254,48.8853625 30.0608831,48.857954 30.0777115,48.832369 C30.1219179,48.7651596 30.1417188,48.7401705 30.110677,48.7694094 C30.077712,48.8004597 30.0427553,48.8307057 30.0055568,48.8597686 C29.5974178,47.7356739 29.3824665,45.8071582 29.1208742,45.8071582 C28.8686043,45.8071582 28.3637472,47.6963281 27.8461318,48.7417312 C27.8281815,48.7246251 27.8107997,48.7072478 27.7939716,48.6896455 C27.7762639,48.701855 27.7980417,48.7447717 27.8209888,48.79271 C27.7277107,48.9825678 27.6301945,49.1891229 27.52844,49.4123754 C27.3659654,49.7688733 27.0102742,49.99765 26.6184978,49.99765 L23.000162,49.997683 C22.4478591,49.997683 22.0001291,49.549953 22.0001291,48.99765 C22.0377736,41.6305752 23.0493483,36.5255502 25.0348561,33.681393 C24.3923346,32.971708 24.0009597,32.0303843 24.0009597,30.99765 C24.0009597,29.5170853 24.805357,28.2243977 26.0009597,27.5327788 L26.0009597,8.99765005 C26.0009597,6.78851105 27.7918207,4.99765005 30.0009597,4.99765005 C32.2100987,4.99765005 34.0009597,6.78851105 34.0009597,8.99765005 L34.0009597,27.5327788 Z M32.0009597,26.99765 L32.0009597,8.99765005 C32.0009597,7.89308055 31.1055292,6.99765005 30.0009597,6.99765005 C28.8963902,6.99765005 28.0009597,7.89308055 28.0009597,8.99765005 L28.0009597,26.99765 L32.0009597,26.99765 Z M33.2033698,34.8137713 C32.8238531,34.9332361 32.4199287,34.99765 32.0009597,34.99765 L28.0009597,34.99765 C27.5499802,34.99765 27.1164321,34.9230173 26.7119926,34.785429 C25.0850121,37.0005528 24.1297549,41.319959 24.0114864,47.9976738 L25.9793648,47.9976559 C26.9674773,45.9025896 28.4879787,42.6196323 29.2287596,42.6084217 C29.9695404,42.597211 31.0871612,45.9329995 31.8251705,47.9976471 L35.9769886,47.9976738 C35.8142731,41.3500266 34.8360462,37.0378959 33.2033698,34.8137713 Z M28.0009597,28.99765 C26.8963902,28.99765 26.0009597,29.8930805 26.0009597,30.99765 C26.0009597,32.1022195 26.8963902,32.99765 28.0009597,32.99765 L32.0009597,32.99765 C33.1055292,32.99765 34.0009597,32.1022195 34.0009597,30.99765 C34.0009597,29.8930805 33.1055292,28.99765 32.0009597,28.99765 L28.0009597,28.99765 Z" id="Rectangle-6" fill-rule="nonzero" transform="translate(29.997643, 27.497667) rotate(-315.000000) translate(-29.997643, -27.497667) "></path>
            <circle id="Oval" opacity="0.402173913" cx="33.5" cy="40.5" r="1.5"></circle>
            <circle id="Oval" opacity="0.402173913" cx="37.5" cy="47.5" r="1.5"></circle>
            <circle id="Oval" opacity="0.402173913" cx="28.5" cy="47.5" r="1.5"></circle>
        </g>
    </g>
</svg>