<svg height="40" viewBox="0 0 40 40" width="40" xmlns="http://www.w3.org/2000/svg"><path d="m22.5 13.9644661 8.1066017-8.10660172c.9763107-.97631073 2.5592232-.97631073 3.5355339 0 .9763108.97631073.9763108 2.55922317 0 3.5355339l-8.1066017 8.10660172h11.4644661c1.3807119 0 2.5 1.1192881 2.5 2.5s-1.1192881 2.5-2.5 2.5h-11.4644661l8.1066017 8.1066017c.9763108.9763107.9763108 2.5592232 0 3.5355339-.9763107.9763108-2.5592232.9763108-3.5355339 0l-8.1066017-8.1066017v11.4644661c0 1.3807119-1.1192881 2.5-2.5 2.5s-2.5-1.1192881-2.5-2.5v-11.4644661l-8.10660172 8.1066017c-.97631073.9763108-2.55922317.9763108-3.5355339 0-.97631073-.9763107-.97631073-2.5592232 0-3.5355339l8.10660172-8.1066017h-11.4644661c-1.38071187 0-2.5-1.1192881-2.5-2.5s1.11928813-2.5 2.5-2.5h11.4644661l-8.10660172-8.10660172c-.97631073-.97631073-.97631073-2.55922317 0-3.5355339s2.55922317-.97631073 3.5355339 0l8.10660172 8.10660172v-11.4644661c0-1.38071187 1.1192881-2.5 2.5-2.5s2.5 1.11928813 2.5 2.5z" fill="#efdfb1" fill-rule="evenodd" transform=""/></svg>