<?xml version="1.0" encoding="UTF-8"?>
<svg width="668px" height="228px" viewBox="0 0 668 228" version="1.1" xmlns="http://www.w3.org/2000/svg" xmlns:xlink="http://www.w3.org/1999/xlink">
    <!-- Generator: Sketch 41.1 (35376) - http://www.bohemiancoding.com/sketch -->
    <title>fusion-api-diagram</title>
    <desc>Created with Sketch.</desc>
    <defs>
        <rect id="path-1" x="13.8327329" y="13.6823768" width="66.2769949" height="66.5777072" rx="5"></rect>
        <mask id="mask-2" maskContentUnits="userSpaceOnUse" maskUnits="objectBoundingBox" x="0" y="0" width="66.2769949" height="66.5777072" fill="white">
            <use xlink:href="#path-1"></use>
        </mask>
        <path d="M13.4094828,26.8545035 C6.01429421,26.8545035 -3.55271368e-15,20.8322397 -3.55271368e-15,13.4272517 C-3.55271368e-15,6.02226378 6.01429421,0 13.4094828,0 C20.8046713,0 26.8189655,6.02226378 26.8189655,13.4272517 C26.8189655,20.8322397 20.8046713,26.8545035 13.4094828,26.8545035 L13.4094828,26.8545035 Z" id="path-3"></path>
        <mask id="mask-4" maskContentUnits="userSpaceOnUse" maskUnits="objectBoundingBox" x="-2" y="-2" width="30.8189655" height="30.8545035">
            <rect x="-2" y="-2" width="30.8189655" height="30.8545035" fill="white"></rect>
            <use xlink:href="#path-3" fill="black"></use>
        </mask>
        <path d="M12.9128352,25.8598922 C5.79154257,25.8598922 -3.55271368e-15,20.0606753 -3.55271368e-15,12.9299461 C-3.55271368e-15,5.79921697 5.79154257,0 12.9128352,0 C20.0341279,0 25.8256705,5.79921697 25.8256705,12.9299461 C25.8256705,20.0606753 20.0341279,25.8598922 12.9128352,25.8598922 L12.9128352,25.8598922 Z" id="path-5"></path>
        <mask id="mask-6" maskContentUnits="userSpaceOnUse" maskUnits="objectBoundingBox" x="-2" y="-2" width="29.8256705" height="29.8598922">
            <rect x="-2" y="-2" width="29.8256705" height="29.8598922" fill="white"></rect>
            <use xlink:href="#path-5" fill="black"></use>
        </mask>
        <path d="M14.4094828,88.8545035 C7.01429421,88.8545035 1,82.8322397 1,75.4272517 C1,68.0222638 7.01429421,62 14.4094828,62 C21.8046713,62 27.8189655,68.0222638 27.8189655,75.4272517 C27.8189655,82.8322397 21.8046713,88.8545035 14.4094828,88.8545035 L14.4094828,88.8545035 Z" id="path-7"></path>
        <mask id="mask-8" maskContentUnits="userSpaceOnUse" maskUnits="objectBoundingBox" x="-2" y="-2" width="30.8189655" height="30.8545035">
            <rect x="-1" y="60" width="30.8189655" height="30.8545035" fill="white"></rect>
            <use xlink:href="#path-7" fill="black"></use>
        </mask>
        <path d="M13.4094828,153.854503 C6.01429421,153.854503 0,147.83224 0,140.427252 C0,133.022264 6.01429421,127 13.4094828,127 C20.8046713,127 26.8189655,133.022264 26.8189655,140.427252 C26.8189655,147.83224 20.8046713,153.854503 13.4094828,153.854503 L13.4094828,153.854503 Z" id="path-9"></path>
        <mask id="mask-10" maskContentUnits="userSpaceOnUse" maskUnits="objectBoundingBox" x="-2" y="-2" width="30.8189655" height="30.8545035">
            <rect x="-2" y="125" width="30.8189655" height="30.8545035" fill="white"></rect>
            <use xlink:href="#path-9" fill="black"></use>
        </mask>
        <path d="M0,3.00826887 C0,1.34684785 1.34207218,0 3.00478911,0 L179.995211,0 C181.65471,0 183,1.33895785 183,3.00826887 L183,224.991731 C183,226.653152 181.657928,228 179.995211,228 L3.00478911,228 C1.34528991,228 0,226.661042 0,224.991731 L0,3.00826887 Z" id="path-11"></path>
        <mask id="mask-12" maskContentUnits="userSpaceOnUse" maskUnits="objectBoundingBox" x="0" y="0" width="183" height="228" fill="white">
            <use xlink:href="#path-11"></use>
        </mask>
        <rect id="path-13" x="42" y="85" width="100" height="30" rx="5"></rect>
        <filter x="-50%" y="-50%" width="200%" height="200%" filterUnits="objectBoundingBox" id="filter-14">
            <feOffset dx="0" dy="0" in="SourceAlpha" result="shadowOffsetOuter1"></feOffset>
            <feGaussianBlur stdDeviation="5" in="shadowOffsetOuter1" result="shadowBlurOuter1"></feGaussianBlur>
            <feColorMatrix values="0 0 0 0 0   0 0 0 0 0   0 0 0 0 0  0 0 0 0.100033967 0" type="matrix" in="shadowBlurOuter1"></feColorMatrix>
        </filter>
    </defs>
    <g id="Page-2" stroke="none" stroke-width="1" fill="none" fill-rule="evenodd">
        <g id="Ext-Attributes" transform="translate(-386.000000, -1532.000000)">
            <g id="fusion-api-diagram" transform="translate(388.000000, 1532.000000)">
                <path d="M294.531444,146.256 L302.757444,146.256 L302.757444,148.236 L296.799444,148.236 L296.799444,151.728 L302.415444,151.728 L302.415444,153.636 L296.799444,153.636 L296.799444,159 L294.531444,159 L294.531444,146.256 Z M311.865444,159 L309.813444,159 L309.813444,157.614 L309.777444,157.614 C309.585443,158.046002 309.252446,158.426998 308.778444,158.757 C308.304442,159.087002 307.743447,159.252 307.095444,159.252 C306.531441,159.252 306.048446,159.153001 305.646444,158.955 C305.244442,158.756999 304.914445,158.496002 304.656444,158.172 C304.398443,157.847998 304.209445,157.476002 304.089444,157.056 C303.969443,156.635998 303.909444,156.204002 303.909444,155.76 L303.909444,150.36 L306.069444,150.36 L306.069444,155.148 C306.069444,155.400001 306.087444,155.663999 306.123444,155.94 C306.159444,156.216001 306.237443,156.464999 306.357444,156.687 C306.477445,156.909001 306.642443,157.091999 306.852444,157.236 C307.062445,157.380001 307.341442,157.452 307.689444,157.452 C308.025446,157.452 308.322443,157.383001 308.580444,157.245 C308.838445,157.106999 309.048443,156.930001 309.210444,156.714 C309.372445,156.497999 309.495444,156.249001 309.579444,155.967 C309.663444,155.684999 309.705444,155.400001 309.705444,155.112 L309.705444,150.36 L311.865444,150.36 L311.865444,159 Z M319.191444,152.664 C318.999443,152.411999 318.735446,152.193001 318.399444,152.007 C318.063442,151.820999 317.697446,151.728 317.301444,151.728 C316.953442,151.728 316.635445,151.799999 316.347444,151.944 C316.059443,152.088001 315.915444,152.327998 315.915444,152.664 C315.915444,153.000002 316.074442,153.236999 316.392444,153.375 C316.710446,153.513001 317.175441,153.653999 317.787444,153.798 C318.111446,153.87 318.438442,153.965999 318.768444,154.086 C319.098446,154.206001 319.398443,154.364999 319.668444,154.563 C319.938445,154.761001 320.157443,155.006999 320.325444,155.301 C320.493445,155.595001 320.577444,155.951998 320.577444,156.372 C320.577444,156.900003 320.478445,157.346998 320.280444,157.713 C320.082443,158.079002 319.818446,158.375999 319.488444,158.604 C319.158442,158.832001 318.774446,158.996999 318.336444,159.099 C317.898442,159.201001 317.445446,159.252 316.977444,159.252 C316.305441,159.252 315.651447,159.129001 315.015444,158.883 C314.379441,158.636999 313.851446,158.286002 313.431444,157.83 L314.853444,156.498 C315.093445,156.810002 315.405442,157.067999 315.789444,157.272 C316.173446,157.476001 316.599442,157.578 317.067444,157.578 C317.223445,157.578 317.382443,157.56 317.544444,157.524 C317.706445,157.488 317.856443,157.431 317.994444,157.353 C318.132445,157.275 318.243444,157.170001 318.327444,157.038 C318.411444,156.905999 318.453444,156.744001 318.453444,156.552 C318.453444,156.191998 318.288446,155.934001 317.958444,155.778 C317.628442,155.621999 317.133447,155.466001 316.473444,155.31 C316.149442,155.238 315.834445,155.145001 315.528444,155.031 C315.222442,154.916999 314.949445,154.767001 314.709444,154.581 C314.469443,154.394999 314.277445,154.164001 314.133444,153.888 C313.989443,153.611999 313.917444,153.270002 313.917444,152.862 C313.917444,152.381998 314.016443,151.968002 314.214444,151.62 C314.412445,151.271998 314.673442,150.987001 314.997444,150.765 C315.321446,150.542999 315.687442,150.378001 316.095444,150.27 C316.503446,150.161999 316.923442,150.108 317.355444,150.108 C317.979447,150.108 318.588441,150.215999 319.182444,150.432 C319.776447,150.648001 320.247442,150.977998 320.595444,151.422 L319.191444,152.664 Z M322.485444,150.36 L324.645444,150.36 L324.645444,159 L322.485444,159 L322.485444,150.36 Z M322.179444,147.426 C322.179444,147.077998 322.308443,146.775001 322.566444,146.517 C322.824445,146.258999 323.151442,146.13 323.547444,146.13 C323.943446,146.13 324.276443,146.252999 324.546444,146.499 C324.816445,146.745001 324.951444,147.053998 324.951444,147.426 C324.951444,147.798002 324.816445,148.106999 324.546444,148.353 C324.276443,148.599001 323.943446,148.722 323.547444,148.722 C323.151442,148.722 322.824445,148.593001 322.566444,148.335 C322.308443,148.076999 322.179444,147.774002 322.179444,147.426 Z M326.769444,154.644 C326.769444,153.959997 326.892443,153.339003 327.138444,152.781 C327.384445,152.222997 327.717442,151.746002 328.137444,151.35 C328.557446,150.953998 329.055441,150.648001 329.631444,150.432 C330.207447,150.215999 330.819441,150.108 331.467444,150.108 C332.115447,150.108 332.727441,150.215999 333.303444,150.432 C333.879447,150.648001 334.377442,150.953998 334.797444,151.35 C335.217446,151.746002 335.550443,152.222997 335.796444,152.781 C336.042445,153.339003 336.165444,153.959997 336.165444,154.644 C336.165444,155.328003 336.042445,155.951997 335.796444,156.516 C335.550443,157.080003 335.217446,157.562998 334.797444,157.965 C334.377442,158.367002 333.879447,158.681999 333.303444,158.91 C332.727441,159.138001 332.115447,159.252 331.467444,159.252 C330.819441,159.252 330.207447,159.138001 329.631444,158.91 C329.055441,158.681999 328.557446,158.367002 328.137444,157.965 C327.717442,157.562998 327.384445,157.080003 327.138444,156.516 C326.892443,155.951997 326.769444,155.328003 326.769444,154.644 Z M328.965444,154.644 C328.965444,154.980002 329.016443,155.315998 329.118444,155.652 C329.220444,155.988002 329.373443,156.287999 329.577444,156.552 C329.781445,156.816001 330.039442,157.031999 330.351444,157.2 C330.663446,157.368001 331.035442,157.452 331.467444,157.452 C331.899446,157.452 332.271442,157.368001 332.583444,157.2 C332.895446,157.031999 333.153443,156.816001 333.357444,156.552 C333.561445,156.287999 333.714443,155.988002 333.816444,155.652 C333.918444,155.315998 333.969444,154.980002 333.969444,154.644 C333.969444,154.307998 333.918444,153.975002 333.816444,153.645 C333.714443,153.314998 333.561445,153.018001 333.357444,152.754 C333.153443,152.489999 332.895446,152.277001 332.583444,152.115 C332.271442,151.952999 331.899446,151.872 331.467444,151.872 C331.035442,151.872 330.663446,151.952999 330.351444,152.115 C330.039442,152.277001 329.781445,152.489999 329.577444,152.754 C329.373443,153.018001 329.220444,153.314998 329.118444,153.645 C329.016443,153.975002 328.965444,154.307998 328.965444,154.644 Z M338.253444,150.36 L340.305444,150.36 L340.305444,151.746 L340.341444,151.746 C340.533445,151.313998 340.866442,150.933002 341.340444,150.603 C341.814446,150.272998 342.375441,150.108 343.023444,150.108 C343.587447,150.108 344.070442,150.206999 344.472444,150.405 C344.874446,150.603001 345.204443,150.863998 345.462444,151.188 C345.720445,151.512002 345.909443,151.883998 346.029444,152.304 C346.149445,152.724002 346.209444,153.155998 346.209444,153.6 L346.209444,159 L344.049444,159 L344.049444,154.212 C344.049444,153.959999 344.031444,153.696001 343.995444,153.42 C343.959444,153.143999 343.881445,152.895001 343.761444,152.673 C343.641443,152.450999 343.476445,152.268001 343.266444,152.124 C343.056443,151.979999 342.777446,151.908 342.429444,151.908 C342.081442,151.908 341.781445,151.976999 341.529444,152.115 C341.277443,152.253001 341.070445,152.429999 340.908444,152.646 C340.746443,152.862001 340.623444,153.110999 340.539444,153.393 C340.455444,153.675001 340.413444,153.959999 340.413444,154.248 L340.413444,159 L338.253444,159 L338.253444,150.36 Z" id="Fusion" fill="#48BDDE"></path>
                <path d="M166.5,113 L281.5,113" id="Line" stroke="#0CA7D2" stroke-width="4" stroke-linecap="square" stroke-dasharray="4,10" opacity="0.229506341"></path>
                <path d="M357.5,113 L472,113" id="Line" stroke="#0CA7D2" stroke-width="4" stroke-linecap="square" stroke-dasharray="4,10" opacity="0.229506341"></path>
                <g id="Group-15" transform="translate(62.000000, 65.000000)">
                    <use id="Rectangle-27" stroke="#0AA6D2" mask="url(#mask-2)" stroke-width="4" fill="#FFFFFF" transform="translate(46.971230, 46.971230) rotate(-315.000000) translate(-46.971230, -46.971230) " xlink:href="#path-1"></use>
                    <path d="M36.6,39.424 L38.998,39.424 L45.708,55 L42.54,55 L41.088,51.436 L34.334,51.436 L32.926,55 L29.824,55 L36.6,39.424 Z M40.12,49.06 L37.722,42.724 L35.28,49.06 L40.12,49.06 Z M47.248,39.424 L52.33,39.424 C53.2246711,39.424 54.0313297,39.5046659 54.75,39.666 C55.4686703,39.8273341 56.0846641,40.0913315 56.598,40.458 C57.1113359,40.8246685 57.5073319,41.2939971 57.786,41.866 C58.0646681,42.4380029 58.204,43.1273293 58.204,43.934 C58.204,44.7993377 58.0426683,45.5253304 57.72,46.112 C57.3973317,46.6986696 56.9610028,47.1716649 56.411,47.531 C55.8609973,47.8903351 55.219337,48.1506659 54.486,48.312 C53.752663,48.4733341 52.9753374,48.554 52.154,48.554 L50.02,48.554 L50.02,55 L47.248,55 L47.248,39.424 Z M51.956,46.222 C52.4106689,46.222 52.8433313,46.1890003 53.254,46.123 C53.6646687,46.0569997 54.0313317,45.9396675 54.354,45.771 C54.6766683,45.6023325 54.9333324,45.3713348 55.124,45.078 C55.3146676,44.7846652 55.41,44.4033357 55.41,43.934 C55.41,43.4793311 55.3146676,43.1090014 55.124,42.823 C54.9333324,42.5369986 54.6803349,42.3133341 54.365,42.152 C54.0496651,41.9906659 53.6903354,41.8843336 53.287,41.833 C52.8836647,41.7816664 52.4693355,41.756 52.044,41.756 L50.02,41.756 L50.02,46.222 L51.956,46.222 Z M60.668,39.424 L63.44,39.424 L63.44,55 L60.668,55 L60.668,39.424 Z" id="API" fill="#0AA6D2"></path>
                </g>
                <g id="Page-1" transform="translate(41.000000, 14.000000)">
                    <g id="Fill-1">
                        <use fill-opacity="0.201143569" fill="#84D2E8" fill-rule="evenodd" xlink:href="#path-3"></use>
                        <use stroke="#0AA6D2" mask="url(#mask-4)" stroke-width="4" xlink:href="#path-3"></use>
                    </g>
                    <path d="M15.8742843,16.0007245 C16.6072031,15.2703037 17.1154724,14.3706391 17.2671108,13.8401933 C17.3658629,13.5008148 17.4355978,13.137386 17.4791236,12.8657051 C17.7903567,12.7249654 18.0295147,12.4813434 18.1610283,12.1753683 C18.345896,11.7313259 18.4465202,10.7799974 18.4483923,10.7399133 C18.5270196,9.98499671 18.249016,9.5516434 18.2232749,9.52892909 C18.5471445,6.47229623 17.5193733,5.86836294 16.8355966,5.76058134 C16.5926944,5.72227878 16.225299,5.63542997 16.0605561,5.46128696 C15.6786521,5.05955553 15.5082929,4.61239548 14.8465132,4.64713501 C14.6017389,4.66094174 14.270849,4.58789966 14.0827051,4.43691634 C13.8304425,4.23471449 13.4808319,4 13.221549,4 C12.9674143,4 12.6472889,4.22625229 12.413279,4.42444574 C12.2307514,4.58121898 11.9068818,4.65960561 11.6621075,4.64535349 C11.0003278,4.60883245 10.8299686,5.05777401 10.4480646,5.45950545 C10.2833217,5.63364845 9.91405416,5.72049727 9.67302405,5.75879982 C8.98924735,5.86658143 7.96194424,6.47051472 8.28534581,9.52714758 C8.25773265,9.55342491 7.98347314,9.98989587 8.06022836,10.7381318 C8.06397252,10.7782159 8.16272467,11.7313259 8.34759242,12.1735868 C8.47723386,12.4795619 8.718732,12.7231839 9.02949704,12.8639235 C9.07302287,13.137386 9.14462987,13.4990333 9.24150994,13.8384118 C9.39876454,14.3831097 9.91077803,15.2996987 10.6544612,16.0354641 L10.6399526,16.0354641 C10.552433,19.6020553 3.94493166,18.5251301 3,22.5963352 C5.4589752,25.3884132 9.14275779,27.1685912 13.2561824,27.1685912 C17.3696071,27.1685912 21.0552617,25.3884132 23.5086207,22.5981167 C22.5707093,18.5166679 15.9781847,19.5588536 15.8742843,16.0007245 L15.8742843,16.0007245 Z" id="Fill-2" fill-opacity="0.696359828" fill="#84D2E8"></path>
                </g>
                <g id="Page-1" transform="translate(50.000000, 179.000000)">
                    <g id="Fill-1">
                        <use fill-opacity="0.201143569" fill="#84D2E8" fill-rule="evenodd" xlink:href="#path-5"></use>
                        <use stroke="#0AA6D2" mask="url(#mask-6)" stroke-width="4" xlink:href="#path-5"></use>
                    </g>
                </g>
                <path d="M69.559297,191.48851 C69.947239,191.063531 69.6394934,190.388889 69.0576923,190.388889 L64.7238721,190.388889 L66.7381678,184.121716 C66.9557227,183.444371 66.077637,182.954503 65.5945491,183.483712 L56.440703,193.51149 C56.052761,193.936469 56.3605066,194.611111 56.9423077,194.611111 L61.2732684,194.611112 L59.2618322,200.878284 C59.0442773,201.555629 59.922363,202.045497 60.4054509,201.516288 L69.559297,191.48851 Z" id="Shape" fill-opacity="0.704087409" fill="#84D2E8"></path>
                <g id="Fill-1">
                    <use fill-opacity="0.201143569" fill="#84D2E8" fill-rule="evenodd" xlink:href="#path-7"></use>
                    <use stroke="#0AA6D2" mask="url(#mask-8)" stroke-width="4" xlink:href="#path-7"></use>
                </g>
                <g id="Fill-1">
                    <use fill-opacity="0.201143569" fill="#84D2E8" fill-rule="evenodd" xlink:href="#path-9"></use>
                    <use stroke="#0AA6D2" mask="url(#mask-10)" stroke-width="4" xlink:href="#path-9"></use>
                </g>
                <g id="Group-24" transform="translate(483.000000, 0.000000)">
                    <g id="Group">
                        <use id="Rectangle" stroke="#0AA6D2" mask="url(#mask-12)" stroke-width="4" fill="#E7F6FB" xlink:href="#path-11"></use>
                        <rect id="Rectangle" fill="#D3EEF7" x="11.5689655" y="147.963048" width="51.5344828" height="46.8637413" rx="2"></rect>
                        <rect id="Rectangle" fill="#D3EEF7" x="66.2586207" y="147.963048" width="51.5344828" height="46.8637413" rx="2"></rect>
                        <rect id="Rectangle" fill="#D3EEF7" x="120.422414" y="147.963048" width="51.5344828" height="46.8637413" rx="2"></rect>
                        <rect id="Rectangle-16" fill="#D8EFF7" x="2" y="2" width="179" height="19.482679" rx="3"></rect>
                    </g>
                    <g id="Page-1" transform="translate(78.000000, 61.000000)" fill="#84D2E8">
                        <path d="M13.4094828,26.8545035 C6.01429421,26.8545035 -3.55271368e-15,20.8322397 -3.55271368e-15,13.4272517 C-3.55271368e-15,6.02226378 6.01429421,0 13.4094828,0 C20.8046713,0 26.8189655,6.02226378 26.8189655,13.4272517 C26.8189655,20.8322397 20.8046713,26.8545035 13.4094828,26.8545035 L13.4094828,26.8545035 Z" id="Fill-1" fill-opacity="0.201143569"></path>
                        <path d="M16.0294567,16.2131957 C16.7623755,15.4827749 17.2706448,14.5831102 17.4222832,14.0526644 C17.5210353,13.713286 17.5907702,13.3498571 17.6342961,13.0781762 C17.9455291,12.9374366 18.1846872,12.6938145 18.3162007,12.3878395 C18.5010684,11.9437971 18.6016927,10.9924685 18.6035647,10.9523845 C18.682192,10.1974678 18.4041884,9.76411453 18.3784473,9.74140023 C18.7023169,6.68476736 17.6745458,6.08083407 16.9907691,5.97305247 C16.7478669,5.93474991 16.3804714,5.8479011 16.2157285,5.67375809 C15.8338245,5.27202666 15.6634654,4.82486661 15.0016856,4.85960614 C14.7569113,4.87341287 14.4260214,4.80037079 14.2378775,4.64938747 C13.9856149,4.44718562 13.6360043,4.21247113 13.3767214,4.21247113 C13.1225867,4.21247113 12.8024613,4.43872343 12.5684515,4.63691687 C12.3859238,4.79369012 12.0620542,4.87207674 11.8172799,4.85782462 C11.1555002,4.82130358 10.985141,5.27024514 10.603237,5.67197658 C10.4384941,5.84611959 10.0692266,5.9329684 9.82819646,5.97127095 C9.14441977,6.07905256 8.11711665,6.68298585 8.44051823,9.73961871 C8.41290507,9.76589604 8.13864556,10.202367 8.21540078,10.9506029 C8.21914493,10.990687 8.31789708,11.9437971 8.50276484,12.3860579 C8.63240628,12.692033 8.87390441,12.9356551 9.18466945,13.0763947 C9.22819528,13.3498571 9.29980229,13.7115045 9.39668235,14.0508829 C9.55393695,14.5955808 10.0659504,15.5121699 10.8096337,16.2479352 L10.795125,16.2479352 C10.7076054,19.8145265 4.10010407,18.7376012 3.15517241,22.8088063 C5.61414761,25.6008844 9.29793021,27.3810624 13.4113548,27.3810624 C17.5247795,27.3810624 21.2104341,25.6008844 23.6637931,22.8105879 C22.7258817,18.729139 16.1333571,19.7713248 16.0294567,16.2131957 L16.0294567,16.2131957 Z" id="Fill-2" fill-opacity="0.401154891"></path>
                    </g>
                    <rect id="Rectangle-14" fill="#B3E2F1" x="34.1810345" y="40.5450346" width="35.7586207" height="9.47806005" rx="3"></rect>
                    <rect id="Rectangle-14" fill="#D3EEF7" x="56.2672414" y="113.050808" width="27.8706897" height="6.3187067" rx="3"></rect>
                    <rect id="Rectangle-14" fill="#B3E2F1" x="74.1465517" y="40.5450346" width="25.2413793" height="9.47806005" rx="3"></rect>
                    <rect id="Rectangle-14" fill="#B3E2F1" x="103.068966" y="40.5450346" width="45.75" height="9.47806005" rx="3"></rect>
                    <rect id="Rectangle-14" fill="#D3EEF7" x="89.9224138" y="113.050808" width="36.8103448" height="6.3187067" rx="3"></rect>
                    <g id="Rectangle-26">
                        <use fill="black" fill-opacity="1" filter="url(#filter-14)" xlink:href="#path-13"></use>
                        <use fill="#FFFFFF" fill-rule="evenodd" xlink:href="#path-13"></use>
                    </g>
                    <rect id="Rectangle-14" fill="#B3E2F1" x="64.6810345" y="96.3602771" width="27.8706897" height="8.42494226" rx="3"></rect>
                    <rect id="Rectangle-14" fill="#B3E2F1" x="96.2327586" y="96.3602771" width="22.612069" height="8.42494226" rx="3"></rect>
                    <rect id="Rectangle-14" fill="#B3E2F1" x="11.5689655" y="134.799076" width="27.8706897" height="6.3187067" rx="3"></rect>
                    <rect id="Rectangle-14" fill="#B3E2F1" x="11.5689655" y="199.039261" width="27.8706897" height="6.3187067" rx="3"></rect>
                    <rect id="Rectangle-14" fill="#B3E2F1" x="66.2586207" y="199.039261" width="27.8706897" height="6.3187067" rx="3"></rect>
                    <rect id="Rectangle-14" fill="#B3E2F1" x="120.422414" y="199.039261" width="27.8706897" height="6.3187067" rx="3"></rect>
                    <rect id="Rectangle-14" fill="#D3EEF7" x="11.5689655" y="207.990762" width="16.8275862" height="5.26558891" rx="2.63279446"></rect>
                    <rect id="Rectangle-14" fill="#D3EEF7" x="66.2586207" y="207.990762" width="16.8275862" height="5.26558891" rx="2.63279446"></rect>
                    <rect id="Rectangle-14" fill="#D3EEF7" x="120.422414" y="207.990762" width="16.8275862" height="5.26558891" rx="2.63279446"></rect>
                    <rect id="Rectangle-14" fill="#B3E2F1" x="23.6637931" y="7.26558891" width="27.8706897" height="3.15935335" rx="1"></rect>
                    <rect id="Rectangle-14" fill="#B3E2F1" x="23.6637931" y="13.0577367" width="59.4224138" height="3.15935335" rx="1"></rect>
                    <rect id="Rectangle-25" fill="#B3E2F1" x="5.78448276" y="7.26558891" width="13.1465517" height="8.95150115" rx="3"></rect>
                    <path d="M8.14843124,10.0360303 C7.08598986,9.18495093 7.32404731,8.49501478 8.67747427,8.49501478 L16.0381255,8.49501478 C17.3927493,8.49501478 17.6381091,9.17814259 16.5671686,10.0360303 L14.2815202,11.866972 C13.2190788,12.7180514 11.5050202,12.7248597 10.4340796,11.866972 L8.14843124,10.0360303 Z" id="Rectangle-25" fill="#D7EFF7" opacity="0.569463315"></path>
                    <text id="{{" font-family="AvenirNext-DemiBold, Avenir Next" font-size="18" font-weight="500" fill="#0CA7D2">
                        <tspan x="49" y="105">{{</tspan>
                    </text>
                    <text id="}}" font-family="AvenirNext-DemiBold, Avenir Next" font-size="18" font-weight="500" fill="#0CA7D2">
                        <tspan x="123" y="105">}}</tspan>
                    </text>
                </g>
                <g id="Group-28" transform="translate(290.000000, 92.000000)">
                    <rect id="Rectangle-27" fill="#48BDDE" style="mix-blend-mode: multiply;" transform="translate(20.765432, 20.344827) rotate(-315.000000) translate(-20.765432, -20.344827) " x="6.44444444" y="5.95886177" width="28.6419753" height="28.7719298" rx="5"></rect>
                    <rect id="Rectangle-27" fill="#0AA6D2" style="mix-blend-mode: multiply;" transform="translate(37.298881, 20.298881) rotate(-315.000000) translate(-37.298881, -20.298881) " x="22.9778932" y="5.91291591" width="28.6419753" height="28.7719298" rx="5"></rect>
                </g>
                <rect id="Rectangle-28" fill-opacity="0.701511549" fill="#84D2E8" x="5" y="68" width="19" height="15" rx="1"></rect>
                <polygon id="Rectangle-28" fill="#E7F6FB" points="11.4482422 76.8212891 15.125 78.8212891 19.4902344 74 22 77.8212891 22 81.4267578 7 81.4267578"></polygon>
                <rect id="Rectangle-29" fill="#E7F6FB" x="9" y="71" width="3" height="3" rx="1.5"></rect>
                <path d="M11.4462487,148.924477 C12.0019574,149.480186 12.7327417,149.748792 13.4614417,149.739673 C14.1898812,149.749834 14.9206654,149.480186 15.4774162,148.924477 L21.4604681,142.971907 C23.5131773,140.919198 23.5131773,137.591459 21.4604681,135.53875 C19.4088011,133.487083 16.0808017,133.487083 14.0291347,135.53875 L13.4968737,136.062935 L12.9708653,135.53875 C10.9191983,133.487083 7.59119891,133.487083 5.53953187,135.53875 C3.48682271,137.591459 3.48682271,140.918156 5.53953187,142.970865 L11.4462487,148.924477 Z" id="Page-1" fill-opacity="0.696189991" fill="#84D2E8"></path>
            </g>
        </g>
    </g>
</svg>