<?xml version="1.0" encoding="UTF-8"?>
<svg width="819px" height="309px" viewBox="0 0 819 309" version="1.1" xmlns="http://www.w3.org/2000/svg" xmlns:xlink="http://www.w3.org/1999/xlink">
    <!-- Generator: Sketch 41.1 (35376) - http://www.bohemiancoding.com/sketch -->
    <title>home-hero</title>
    <desc>Created with Sketch.</desc>
    <defs>
        <path d="M0,2.99162174 C0,1.33939468 1.35058409,0 2.99927538,0 L156.000725,0 C157.657179,0 159,1.34329262 159,2.99162174 L159,195.008378 C159,196.660605 157.649416,198 156.000725,198 L2.99927538,198 C1.34282133,198 0,196.656707 0,195.008378 L0,2.99162174 Z" id="path-1"></path>
        <mask id="mask-2" maskContentUnits="userSpaceOnUse" maskUnits="objectBoundingBox" x="0" y="0" width="159" height="198" fill="white">
            <use xlink:href="#path-1"></use>
        </mask>
        <path d="M0,2.99162174 C0,1.33939468 1.35058409,0 2.99927538,0 L156.000725,0 C157.657179,0 159,1.34329262 159,2.99162174 L159,195.008378 C159,196.660605 157.649416,198 156.000725,198 L2.99927538,198 C1.34282133,198 0,196.656707 0,195.008378 L0,2.99162174 Z" id="path-3"></path>
        <mask id="mask-4" maskContentUnits="userSpaceOnUse" maskUnits="objectBoundingBox" x="0" y="0" width="159" height="198" fill="white">
            <use xlink:href="#path-3"></use>
        </mask>
        <path d="M0,2.99162174 C0,1.33939468 1.35058409,0 2.99927538,0 L156.000725,0 C157.657179,0 159,1.34329262 159,2.99162174 L159,195.008378 C159,196.660605 157.649416,198 156.000725,198 L2.99927538,198 C1.34282133,198 0,196.656707 0,195.008378 L0,2.99162174 Z" id="path-5"></path>
        <mask id="mask-6" maskContentUnits="userSpaceOnUse" maskUnits="objectBoundingBox" x="0" y="0" width="159" height="198" fill="white">
            <use xlink:href="#path-5"></use>
        </mask>
        <path d="M0,2.99162174 C0,1.33939468 1.35058409,0 2.99927538,0 L156.000725,0 C157.657179,0 159,1.34329262 159,2.99162174 L159,195.008378 C159,196.660605 157.649416,198 156.000725,198 L2.99927538,198 C1.34282133,198 0,196.656707 0,195.008378 L0,2.99162174 Z" id="path-7"></path>
        <mask id="mask-8" maskContentUnits="userSpaceOnUse" maskUnits="objectBoundingBox" x="0" y="0" width="159" height="198" fill="white">
            <use xlink:href="#path-7"></use>
        </mask>
        <path d="M0,2.99162174 C0,1.33939468 1.35058409,0 2.99927538,0 L156.000725,0 C157.657179,0 159,1.34329262 159,2.99162174 L159,195.008378 C159,196.660605 157.649416,198 156.000725,198 L2.99927538,198 C1.34282133,198 0,196.656707 0,195.008378 L0,2.99162174 Z" id="path-9"></path>
        <mask id="mask-10" maskContentUnits="userSpaceOnUse" maskUnits="objectBoundingBox" x="0" y="0" width="159" height="198" fill="white">
            <use xlink:href="#path-9"></use>
        </mask>
    </defs>
    <g id="Page-2" stroke="none" stroke-width="1" fill="none" fill-rule="evenodd">
        <g id="Ext-Attributes" transform="translate(-312.000000, -476.000000)">
            <g id="home-hero" transform="translate(312.000000, 474.000000)">
                <g id="Group-14" transform="translate(82.000000, 0.000000)">
                    <polyline id="Path-6" stroke="#BAE9AC" stroke-width="3" stroke-linecap="round" stroke-linejoin="round" stroke-dasharray="6,8" opacity="0.5" transform="translate(432.571383, 64.729536) scale(1, -1) translate(-432.571383, -64.729536) " points="374.476949 95.54288 490.665817 95.54288 490.665817 33.9161921"></polyline>
                    <polyline id="Path-6" stroke="#FFC111" stroke-width="3" stroke-linecap="round" stroke-linejoin="round" stroke-dasharray="6,8" opacity="0.1" transform="translate(585.981284, 74.729536) scale(1, -1) translate(-585.981284, -74.729536) " points="515.827444 105.54288 656.135124 105.54288 656.135124 43.9161921"></polyline>
                    <polyline id="Path-6" stroke="#9A56FC" stroke-width="3" stroke-linecap="round" stroke-linejoin="round" stroke-dasharray="6,8" opacity="0.1" transform="translate(70.656532, 74.729536) scale(-1, -1) translate(-70.656532, -74.729536) " points="0.502691832 105.54288 140.810371 105.54288 140.810371 43.9161921"></polyline>
                    <polyline id="Path-6" stroke="#F7ADA5" stroke-width="3" stroke-linecap="round" stroke-linejoin="round" stroke-dasharray="6,8" opacity="0.5" transform="translate(221.444650, 64.040085) scale(-1, -1) translate(-221.444650, -64.040085) " points="160.593781 94.8534286 282.29552 94.8534286 282.29552 33.2267407"></polyline>
                    <path d="M325.932673,85.4206625 L325.932673,70.4208136" id="Line" stroke="#B3E2F1" stroke-width="3" stroke-linecap="round" stroke-linejoin="round" stroke-dasharray="6,8"></path>
                    <rect id="Rectangle-27" fill="#CEEDF6" transform="translate(325.794080, 32.610279) rotate(-315.000000) translate(-325.794080, -32.610279) " x="302.958046" y="9.65923266" width="45.6720677" height="45.9020923" rx="5"></rect>
                    <rect id="Rectangle-27" fill="#CEEDF6" opacity="0.318670743" transform="translate(328.550516, 35.368084) rotate(-315.000000) translate(-328.550516, -35.368084) " x="305.714482" y="12.4170382" width="45.6720677" height="45.9020923" rx="5"></rect>
                    <path d="M318.250578,26.7649232 L319.885578,26.7649232 L324.460578,37.3849232 L322.300578,37.3849232 L321.310578,34.9549232 L316.705578,34.9549232 L315.745578,37.3849232 L313.630578,37.3849232 L318.250578,26.7649232 Z M320.650578,33.3349232 L319.015578,29.0149232 L317.350578,33.3349232 L320.650578,33.3349232 Z M325.510578,26.7649232 L328.975578,26.7649232 C329.585581,26.7649232 330.135576,26.8199226 330.625578,26.9299232 C331.115581,27.0399237 331.535577,27.2199219 331.885578,27.4699232 C332.23558,27.7199244 332.505577,28.0399212 332.695578,28.4299232 C332.885579,28.8199251 332.980578,29.2899204 332.980578,29.8399232 C332.980578,30.4299261 332.870579,30.9249212 332.650578,31.3249232 C332.430577,31.7249252 332.13308,32.047422 331.758078,32.2924232 C331.383076,32.5374244 330.945581,32.7149226 330.445578,32.8249232 C329.945576,32.9349237 329.415581,32.9899232 328.855578,32.9899232 L327.400578,32.9899232 L327.400578,37.3849232 L325.510578,37.3849232 L325.510578,26.7649232 Z M328.720578,31.3999232 C329.03058,31.3999232 329.325577,31.3774234 329.605578,31.3324232 C329.88558,31.287423 330.135577,31.2074238 330.355578,31.0924232 C330.575579,30.9774226 330.750578,30.8199242 330.880578,30.6199232 C331.010579,30.4199222 331.075578,30.1599248 331.075578,29.8399232 C331.075578,29.5299216 331.010579,29.2774242 330.880578,29.0824232 C330.750578,28.8874222 330.578079,28.7349237 330.363078,28.6249232 C330.148077,28.5149226 329.90308,28.4424234 329.628078,28.4074232 C329.353077,28.372423 329.07058,28.3549232 328.780578,28.3549232 L327.400578,28.3549232 L327.400578,31.3999232 L328.720578,31.3999232 Z M334.660578,26.7649232 L336.550578,26.7649232 L336.550578,37.3849232 L334.660578,37.3849232 L334.660578,26.7649232 Z" id="API" fill="#0AA6D2"></path>
                </g>
                <g id="Group-24" transform="translate(330.000000, 93.000000)">
                    <g id="Group">
                        <use id="Rectangle" stroke="#0AA6D2" mask="url(#mask-2)" stroke-width="4" fill="#E7F6FB" xlink:href="#path-1"></use>
                        <rect id="Rectangle" fill="#D3EEF7" x="10.0517241" y="128.494226" width="44.7758621" height="40.6974596" rx="2"></rect>
                        <rect id="Rectangle" fill="#D3EEF7" x="57.5689655" y="128.494226" width="44.7758621" height="40.6974596" rx="2"></rect>
                        <rect id="Rectangle" fill="#D3EEF7" x="104.62931" y="128.494226" width="44.7758621" height="40.6974596" rx="2"></rect>
                        <rect id="Rectangle-16" fill="#D8EFF7" x="1.73770492" y="1.73684211" width="155.52459" height="16.9191686" rx="3"></rect>
                    </g>
                    <g id="Page-1" transform="translate(67.770492, 52.973684)" fill="#84D2E8">
                        <path d="M11.6508621,23.3210162 C5.22553431,23.3210162 3.55271368e-15,18.0911555 3.55271368e-15,11.6605081 C3.55271368e-15,5.22986065 5.22553431,0 11.6508621,0 C18.0761898,0 23.3017241,5.22986065 23.3017241,11.6605081 C23.3017241,18.0911555 18.0761898,23.3210162 11.6508621,23.3210162 L11.6508621,23.3210162 Z" id="Fill-1" fill-opacity="0.201143569"></path>
                        <path d="M13.9272329,14.0798805 C14.5640311,13.4455677 15.0056422,12.6642799 15.1373936,12.2036296 C15.2231946,11.9089062 15.283784,11.5932969 15.3216015,11.3573635 C15.5920171,11.2351423 15.7998102,11.0235758 15.914076,10.7578606 C16.0746988,10.3722448 16.1621264,9.54609108 16.163753,9.51128124 C16.2320685,8.85569576 15.9905243,8.47936262 15.9681591,8.45963704 C16.249554,5.80519271 15.3565725,5.28072433 14.7624715,5.18712451 C14.5514253,5.15386177 14.2322129,5.07844043 14.0890756,4.92721098 C13.7572574,4.57833894 13.6092404,4.19001574 13.0342514,4.22018428 C12.8215787,4.23217434 12.5340842,4.16874306 12.3706149,4.03762596 C12.1514359,3.86202962 11.8476758,3.65819861 11.6223973,3.65819861 C11.4015917,3.65819861 11.12345,3.85468087 10.92013,4.02679623 C10.7615404,4.16294142 10.4801455,4.23101401 10.2674727,4.21863717 C9.69248375,4.18692153 9.54446678,4.57679184 9.21264853,4.92566387 C9.06951125,5.07689332 8.74867227,5.15231466 8.53925266,5.18557741 C7.9451516,5.27917722 7.05257676,5.8036456 7.33356502,8.45808993 C7.30957325,8.48090972 7.0712822,8.85995029 7.13797117,9.50973413 C7.14122429,9.54454398 7.22702533,10.3722448 7.38764814,10.7563135 C7.50028742,11.0220287 7.71011367,11.2335952 7.98012264,11.3558164 C8.01794016,11.5932969 8.08015609,11.9073591 8.16433057,12.2020825 C8.30096161,12.6751097 8.74582579,13.4710949 9.39197678,14.110049 L9.37937094,14.110049 C9.30332925,17.2073519 3.5623855,16.2721273 2.74137931,19.8076476 C4.87786596,22.2323469 8.07852953,23.778291 11.6524886,23.778291 C15.2264477,23.778291 18.4287379,22.2323469 20.5603448,19.8091947 C19.7454382,16.2647786 14.017507,17.1698347 13.9272329,14.0798805 L13.9272329,14.0798805 Z" id="Fill-2" fill-opacity="0.401154891"></path>
                    </g>
                    <rect id="Rectangle-14" fill="#B3E2F1" x="29.6982759" y="35.2101617" width="31.0689655" height="8.23094688" rx="3"></rect>
                    <rect id="Rectangle-14" fill="#D3EEF7" x="48.887931" y="98.175702" width="24.2155172" height="5.48729792" rx="2.74364896"></rect>
                    <rect id="Rectangle-14" fill="#B3E2F1" x="64.4224138" y="35.2101617" width="21.9310345" height="8.23094688" rx="3"></rect>
                    <rect id="Rectangle-14" fill="#B3E2F1" x="89.5517241" y="35.2101617" width="39.75" height="8.23094688" rx="3"></rect>
                    <rect id="Rectangle-14" fill="#D3EEF7" x="78.1293103" y="98.175702" width="31.9827586" height="5.48729792" rx="2.74364896"></rect>
                    <rect id="Rectangle-14" fill="#B3E2F1" x="56.1982759" y="83.6812933" width="24.2155172" height="7.31639723" rx="3"></rect>
                    <rect id="Rectangle-14" fill="#B3E2F1" x="83.612069" y="83.6812933" width="19.6465517" height="7.31639723" rx="3"></rect>
                    <rect id="Rectangle-14" fill="#B3E2F1" x="10.0517241" y="117.062356" width="24.2155172" height="5.48729792" rx="2.74364896"></rect>
                    <rect id="Rectangle-14" fill="#B3E2F1" x="10.0517241" y="172.849885" width="24.2155172" height="5.48729792" rx="2.74364896"></rect>
                    <rect id="Rectangle-14" fill="#B3E2F1" x="57.5689655" y="172.849885" width="24.2155172" height="5.48729792" rx="2.74364896"></rect>
                    <rect id="Rectangle-14" fill="#B3E2F1" x="104.62931" y="172.849885" width="24.2155172" height="5.48729792" rx="2.74364896"></rect>
                    <rect id="Rectangle-14" fill="#D3EEF7" x="10.0517241" y="180.623557" width="14.6206897" height="4.57274827" rx="2.28637413"></rect>
                    <rect id="Rectangle-14" fill="#D3EEF7" x="57.5689655" y="180.623557" width="14.6206897" height="4.57274827" rx="2.28637413"></rect>
                    <rect id="Rectangle-14" fill="#D3EEF7" x="104.62931" y="180.623557" width="14.6206897" height="4.57274827" rx="2.28637413"></rect>
                    <rect id="Rectangle-14" fill="#B3E2F1" x="20.5603448" y="6.30959037" width="24.2155172" height="2.74364896" rx="1"></rect>
                    <rect id="Rectangle-14" fill="#B3E2F1" x="20.5603448" y="11.3396135" width="51.6293103" height="2.74364896" rx="1"></rect>
                    <rect id="Rectangle-25" fill="#B3E2F1" x="5.02586207" y="6.30959037" width="11.4224138" height="7.77367206" rx="3"></rect>
                    <path d="M7.07978452,8.71550001 C6.15667972,7.97640476 6.35413734,7.37724968 7.53944486,7.37724968 L13.9347648,7.37724968 C15.111733,7.37724968 15.3249145,7.97049225 14.3944252,8.71550001 L12.4085339,10.3055283 C11.4854291,11.0446236 9.99616506,11.0505361 9.06567574,10.3055283 L7.07978452,8.71550001 Z" id="Rectangle-25" fill="#D7EFF7" opacity="0.569463315"></path>
                </g>
                <g id="Group-24" opacity="0.5" transform="translate(495.000000, 103.000000)">
                    <g id="Group">
                        <use id="Rectangle" stroke="#0AA6D2" mask="url(#mask-4)" stroke-width="4" fill="#E7F6FB" xlink:href="#path-3"></use>
                        <rect id="Rectangle" fill="#D3EEF7" x="10.0517241" y="128.494226" width="44.7758621" height="40.6974596" rx="2"></rect>
                        <rect id="Rectangle" fill="#D3EEF7" x="57.5689655" y="128.494226" width="44.7758621" height="40.6974596" rx="2"></rect>
                        <rect id="Rectangle" fill="#D3EEF7" x="104.62931" y="128.494226" width="44.7758621" height="40.6974596" rx="2"></rect>
                        <rect id="Rectangle-16" fill="#D8EFF7" x="1.73770492" y="1.73684211" width="155.52459" height="16.9191686" rx="3"></rect>
                    </g>
                    <g id="Page-1" transform="translate(67.770492, 52.973684)" fill="#84D2E8">
                        <path d="M11.6508621,23.3210162 C5.22553431,23.3210162 3.55271368e-15,18.0911555 3.55271368e-15,11.6605081 C3.55271368e-15,5.22986065 5.22553431,0 11.6508621,0 C18.0761898,0 23.3017241,5.22986065 23.3017241,11.6605081 C23.3017241,18.0911555 18.0761898,23.3210162 11.6508621,23.3210162 L11.6508621,23.3210162 Z" id="Fill-1" fill-opacity="0.201143569"></path>
                        <path d="M13.9272329,14.0798805 C14.5640311,13.4455677 15.0056422,12.6642799 15.1373936,12.2036296 C15.2231946,11.9089062 15.283784,11.5932969 15.3216015,11.3573635 C15.5920171,11.2351423 15.7998102,11.0235758 15.914076,10.7578606 C16.0746988,10.3722448 16.1621264,9.54609108 16.163753,9.51128124 C16.2320685,8.85569576 15.9905243,8.47936262 15.9681591,8.45963704 C16.249554,5.80519271 15.3565725,5.28072433 14.7624715,5.18712451 C14.5514253,5.15386177 14.2322129,5.07844043 14.0890756,4.92721098 C13.7572574,4.57833894 13.6092404,4.19001574 13.0342514,4.22018428 C12.8215787,4.23217434 12.5340842,4.16874306 12.3706149,4.03762596 C12.1514359,3.86202962 11.8476758,3.65819861 11.6223973,3.65819861 C11.4015917,3.65819861 11.12345,3.85468087 10.92013,4.02679623 C10.7615404,4.16294142 10.4801455,4.23101401 10.2674727,4.21863717 C9.69248375,4.18692153 9.54446678,4.57679184 9.21264853,4.92566387 C9.06951125,5.07689332 8.74867227,5.15231466 8.53925266,5.18557741 C7.9451516,5.27917722 7.05257676,5.8036456 7.33356502,8.45808993 C7.30957325,8.48090972 7.0712822,8.85995029 7.13797117,9.50973413 C7.14122429,9.54454398 7.22702533,10.3722448 7.38764814,10.7563135 C7.50028742,11.0220287 7.71011367,11.2335952 7.98012264,11.3558164 C8.01794016,11.5932969 8.08015609,11.9073591 8.16433057,12.2020825 C8.30096161,12.6751097 8.74582579,13.4710949 9.39197678,14.110049 L9.37937094,14.110049 C9.30332925,17.2073519 3.5623855,16.2721273 2.74137931,19.8076476 C4.87786596,22.2323469 8.07852953,23.778291 11.6524886,23.778291 C15.2264477,23.778291 18.4287379,22.2323469 20.5603448,19.8091947 C19.7454382,16.2647786 14.017507,17.1698347 13.9272329,14.0798805 L13.9272329,14.0798805 Z" id="Fill-2" fill-opacity="0.401154891"></path>
                    </g>
                    <rect id="Rectangle-14" fill="#B3E2F1" x="29.6982759" y="35.2101617" width="31.0689655" height="8.23094688" rx="3"></rect>
                    <rect id="Rectangle-14" fill="#D3EEF7" x="48.887931" y="98.175702" width="24.2155172" height="5.48729792" rx="2.74364896"></rect>
                    <rect id="Rectangle-14" fill="#B3E2F1" x="64.4224138" y="35.2101617" width="21.9310345" height="8.23094688" rx="3"></rect>
                    <rect id="Rectangle-14" fill="#B3E2F1" x="89.5517241" y="35.2101617" width="39.75" height="8.23094688" rx="3"></rect>
                    <rect id="Rectangle-14" fill="#D3EEF7" x="78.1293103" y="98.175702" width="31.9827586" height="5.48729792" rx="2.74364896"></rect>
                    <rect id="Rectangle-14" fill="#B3E2F1" x="56.1982759" y="83.6812933" width="24.2155172" height="7.31639723" rx="3"></rect>
                    <rect id="Rectangle-14" fill="#B3E2F1" x="83.612069" y="83.6812933" width="19.6465517" height="7.31639723" rx="3"></rect>
                    <rect id="Rectangle-14" fill="#B3E2F1" x="10.0517241" y="117.062356" width="24.2155172" height="5.48729792" rx="2.74364896"></rect>
                    <rect id="Rectangle-14" fill="#B3E2F1" x="10.0517241" y="172.849885" width="24.2155172" height="5.48729792" rx="2.74364896"></rect>
                    <rect id="Rectangle-14" fill="#B3E2F1" x="57.5689655" y="172.849885" width="24.2155172" height="5.48729792" rx="2.74364896"></rect>
                    <rect id="Rectangle-14" fill="#B3E2F1" x="104.62931" y="172.849885" width="24.2155172" height="5.48729792" rx="2.74364896"></rect>
                    <rect id="Rectangle-14" fill="#D3EEF7" x="10.0517241" y="180.623557" width="14.6206897" height="4.57274827" rx="2.28637413"></rect>
                    <rect id="Rectangle-14" fill="#D3EEF7" x="57.5689655" y="180.623557" width="14.6206897" height="4.57274827" rx="2.28637413"></rect>
                    <rect id="Rectangle-14" fill="#D3EEF7" x="104.62931" y="180.623557" width="14.6206897" height="4.57274827" rx="2.28637413"></rect>
                    <rect id="Rectangle-14" fill="#B3E2F1" x="20.5603448" y="6.30959037" width="24.2155172" height="2.74364896" rx="1"></rect>
                    <rect id="Rectangle-14" fill="#B3E2F1" x="20.5603448" y="11.3396135" width="51.6293103" height="2.74364896" rx="1"></rect>
                    <rect id="Rectangle-25" fill="#B3E2F1" x="5.02586207" y="6.30959037" width="11.4224138" height="7.77367206" rx="3"></rect>
                    <path d="M7.07978452,8.71550001 C6.15667972,7.97640476 6.35413734,7.37724968 7.53944486,7.37724968 L13.9347648,7.37724968 C15.111733,7.37724968 15.3249145,7.97049225 14.3944252,8.71550001 L12.4085339,10.3055283 C11.4854291,11.0446236 9.99616506,11.0505361 9.06567574,10.3055283 L7.07978452,8.71550001 Z" id="Rectangle-25" fill="#D7EFF7" opacity="0.569463315"></path>
                </g>
                <g id="Group-24" opacity="0.2" transform="translate(660.000000, 113.000000)">
                    <g id="Group">
                        <use id="Rectangle" stroke="#0AA6D2" mask="url(#mask-6)" stroke-width="4" fill="#E7F6FB" xlink:href="#path-5"></use>
                        <rect id="Rectangle" fill="#D3EEF7" x="10.0517241" y="128.494226" width="44.7758621" height="40.6974596" rx="2"></rect>
                        <rect id="Rectangle" fill="#D3EEF7" x="57.5689655" y="128.494226" width="44.7758621" height="40.6974596" rx="2"></rect>
                        <rect id="Rectangle" fill="#D3EEF7" x="104.62931" y="128.494226" width="44.7758621" height="40.6974596" rx="2"></rect>
                        <rect id="Rectangle-16" fill="#D8EFF7" x="1.73770492" y="1.73684211" width="155.52459" height="16.9191686" rx="3"></rect>
                    </g>
                    <g id="Page-1" transform="translate(67.770492, 52.973684)" fill="#84D2E8">
                        <path d="M11.6508621,23.3210162 C5.22553431,23.3210162 3.55271368e-15,18.0911555 3.55271368e-15,11.6605081 C3.55271368e-15,5.22986065 5.22553431,0 11.6508621,0 C18.0761898,0 23.3017241,5.22986065 23.3017241,11.6605081 C23.3017241,18.0911555 18.0761898,23.3210162 11.6508621,23.3210162 L11.6508621,23.3210162 Z" id="Fill-1" fill-opacity="0.201143569"></path>
                        <path d="M13.9272329,14.0798805 C14.5640311,13.4455677 15.0056422,12.6642799 15.1373936,12.2036296 C15.2231946,11.9089062 15.283784,11.5932969 15.3216015,11.3573635 C15.5920171,11.2351423 15.7998102,11.0235758 15.914076,10.7578606 C16.0746988,10.3722448 16.1621264,9.54609108 16.163753,9.51128124 C16.2320685,8.85569576 15.9905243,8.47936262 15.9681591,8.45963704 C16.249554,5.80519271 15.3565725,5.28072433 14.7624715,5.18712451 C14.5514253,5.15386177 14.2322129,5.07844043 14.0890756,4.92721098 C13.7572574,4.57833894 13.6092404,4.19001574 13.0342514,4.22018428 C12.8215787,4.23217434 12.5340842,4.16874306 12.3706149,4.03762596 C12.1514359,3.86202962 11.8476758,3.65819861 11.6223973,3.65819861 C11.4015917,3.65819861 11.12345,3.85468087 10.92013,4.02679623 C10.7615404,4.16294142 10.4801455,4.23101401 10.2674727,4.21863717 C9.69248375,4.18692153 9.54446678,4.57679184 9.21264853,4.92566387 C9.06951125,5.07689332 8.74867227,5.15231466 8.53925266,5.18557741 C7.9451516,5.27917722 7.05257676,5.8036456 7.33356502,8.45808993 C7.30957325,8.48090972 7.0712822,8.85995029 7.13797117,9.50973413 C7.14122429,9.54454398 7.22702533,10.3722448 7.38764814,10.7563135 C7.50028742,11.0220287 7.71011367,11.2335952 7.98012264,11.3558164 C8.01794016,11.5932969 8.08015609,11.9073591 8.16433057,12.2020825 C8.30096161,12.6751097 8.74582579,13.4710949 9.39197678,14.110049 L9.37937094,14.110049 C9.30332925,17.2073519 3.5623855,16.2721273 2.74137931,19.8076476 C4.87786596,22.2323469 8.07852953,23.778291 11.6524886,23.778291 C15.2264477,23.778291 18.4287379,22.2323469 20.5603448,19.8091947 C19.7454382,16.2647786 14.017507,17.1698347 13.9272329,14.0798805 L13.9272329,14.0798805 Z" id="Fill-2" fill-opacity="0.401154891"></path>
                    </g>
                    <rect id="Rectangle-14" fill="#B3E2F1" x="29.6982759" y="35.2101617" width="31.0689655" height="8.23094688" rx="3"></rect>
                    <rect id="Rectangle-14" fill="#D3EEF7" x="48.887931" y="98.175702" width="24.2155172" height="5.48729792" rx="2.74364896"></rect>
                    <rect id="Rectangle-14" fill="#B3E2F1" x="64.4224138" y="35.2101617" width="21.9310345" height="8.23094688" rx="3"></rect>
                    <rect id="Rectangle-14" fill="#B3E2F1" x="89.5517241" y="35.2101617" width="39.75" height="8.23094688" rx="3"></rect>
                    <rect id="Rectangle-14" fill="#D3EEF7" x="78.1293103" y="98.175702" width="31.9827586" height="5.48729792" rx="2.74364896"></rect>
                    <rect id="Rectangle-14" fill="#B3E2F1" x="56.1982759" y="83.6812933" width="24.2155172" height="7.31639723" rx="3"></rect>
                    <rect id="Rectangle-14" fill="#B3E2F1" x="83.612069" y="83.6812933" width="19.6465517" height="7.31639723" rx="3"></rect>
                    <rect id="Rectangle-14" fill="#B3E2F1" x="10.0517241" y="117.062356" width="24.2155172" height="5.48729792" rx="2.74364896"></rect>
                    <rect id="Rectangle-14" fill="#B3E2F1" x="10.0517241" y="172.849885" width="24.2155172" height="5.48729792" rx="2.74364896"></rect>
                    <rect id="Rectangle-14" fill="#B3E2F1" x="57.5689655" y="172.849885" width="24.2155172" height="5.48729792" rx="2.74364896"></rect>
                    <rect id="Rectangle-14" fill="#B3E2F1" x="104.62931" y="172.849885" width="24.2155172" height="5.48729792" rx="2.74364896"></rect>
                    <rect id="Rectangle-14" fill="#D3EEF7" x="10.0517241" y="180.623557" width="14.6206897" height="4.57274827" rx="2.28637413"></rect>
                    <rect id="Rectangle-14" fill="#D3EEF7" x="57.5689655" y="180.623557" width="14.6206897" height="4.57274827" rx="2.28637413"></rect>
                    <rect id="Rectangle-14" fill="#D3EEF7" x="104.62931" y="180.623557" width="14.6206897" height="4.57274827" rx="2.28637413"></rect>
                    <rect id="Rectangle-14" fill="#B3E2F1" x="20.5603448" y="6.30959037" width="24.2155172" height="2.74364896" rx="1"></rect>
                    <rect id="Rectangle-14" fill="#B3E2F1" x="20.5603448" y="11.3396135" width="51.6293103" height="2.74364896" rx="1"></rect>
                    <rect id="Rectangle-25" fill="#B3E2F1" x="5.02586207" y="6.30959037" width="11.4224138" height="7.77367206" rx="3"></rect>
                    <path d="M7.07978452,8.71550001 C6.15667972,7.97640476 6.35413734,7.37724968 7.53944486,7.37724968 L13.9347648,7.37724968 C15.111733,7.37724968 15.3249145,7.97049225 14.3944252,8.71550001 L12.4085339,10.3055283 C11.4854291,11.0446236 9.99616506,11.0505361 9.06567574,10.3055283 L7.07978452,8.71550001 Z" id="Rectangle-25" fill="#D7EFF7" opacity="0.569463315"></path>
                </g>
                <g id="Group-24" opacity="0.2" transform="translate(0.000000, 113.000000)">
                    <g id="Group">
                        <use id="Rectangle" stroke="#0AA6D2" mask="url(#mask-8)" stroke-width="4" fill="#E7F6FB" xlink:href="#path-7"></use>
                        <rect id="Rectangle" fill="#D3EEF7" x="10.0517241" y="128.494226" width="44.7758621" height="40.6974596" rx="2"></rect>
                        <rect id="Rectangle" fill="#D3EEF7" x="57.5689655" y="128.494226" width="44.7758621" height="40.6974596" rx="2"></rect>
                        <rect id="Rectangle" fill="#D3EEF7" x="104.62931" y="128.494226" width="44.7758621" height="40.6974596" rx="2"></rect>
                        <rect id="Rectangle-16" fill="#D8EFF7" x="1.73770492" y="1.73684211" width="155.52459" height="16.9191686" rx="3"></rect>
                    </g>
                    <g id="Page-1" transform="translate(67.770492, 52.973684)" fill="#84D2E8">
                        <path d="M11.6508621,23.3210162 C5.22553431,23.3210162 3.55271368e-15,18.0911555 3.55271368e-15,11.6605081 C3.55271368e-15,5.22986065 5.22553431,0 11.6508621,0 C18.0761898,0 23.3017241,5.22986065 23.3017241,11.6605081 C23.3017241,18.0911555 18.0761898,23.3210162 11.6508621,23.3210162 L11.6508621,23.3210162 Z" id="Fill-1" fill-opacity="0.201143569"></path>
                        <path d="M13.9272329,14.0798805 C14.5640311,13.4455677 15.0056422,12.6642799 15.1373936,12.2036296 C15.2231946,11.9089062 15.283784,11.5932969 15.3216015,11.3573635 C15.5920171,11.2351423 15.7998102,11.0235758 15.914076,10.7578606 C16.0746988,10.3722448 16.1621264,9.54609108 16.163753,9.51128124 C16.2320685,8.85569576 15.9905243,8.47936262 15.9681591,8.45963704 C16.249554,5.80519271 15.3565725,5.28072433 14.7624715,5.18712451 C14.5514253,5.15386177 14.2322129,5.07844043 14.0890756,4.92721098 C13.7572574,4.57833894 13.6092404,4.19001574 13.0342514,4.22018428 C12.8215787,4.23217434 12.5340842,4.16874306 12.3706149,4.03762596 C12.1514359,3.86202962 11.8476758,3.65819861 11.6223973,3.65819861 C11.4015917,3.65819861 11.12345,3.85468087 10.92013,4.02679623 C10.7615404,4.16294142 10.4801455,4.23101401 10.2674727,4.21863717 C9.69248375,4.18692153 9.54446678,4.57679184 9.21264853,4.92566387 C9.06951125,5.07689332 8.74867227,5.15231466 8.53925266,5.18557741 C7.9451516,5.27917722 7.05257676,5.8036456 7.33356502,8.45808993 C7.30957325,8.48090972 7.0712822,8.85995029 7.13797117,9.50973413 C7.14122429,9.54454398 7.22702533,10.3722448 7.38764814,10.7563135 C7.50028742,11.0220287 7.71011367,11.2335952 7.98012264,11.3558164 C8.01794016,11.5932969 8.08015609,11.9073591 8.16433057,12.2020825 C8.30096161,12.6751097 8.74582579,13.4710949 9.39197678,14.110049 L9.37937094,14.110049 C9.30332925,17.2073519 3.5623855,16.2721273 2.74137931,19.8076476 C4.87786596,22.2323469 8.07852953,23.778291 11.6524886,23.778291 C15.2264477,23.778291 18.4287379,22.2323469 20.5603448,19.8091947 C19.7454382,16.2647786 14.017507,17.1698347 13.9272329,14.0798805 L13.9272329,14.0798805 Z" id="Fill-2" fill-opacity="0.401154891"></path>
                    </g>
                    <rect id="Rectangle-14" fill="#B3E2F1" x="29.6982759" y="35.2101617" width="31.0689655" height="8.23094688" rx="3"></rect>
                    <rect id="Rectangle-14" fill="#D3EEF7" x="48.887931" y="98.175702" width="24.2155172" height="5.48729792" rx="2.74364896"></rect>
                    <rect id="Rectangle-14" fill="#B3E2F1" x="64.4224138" y="35.2101617" width="21.9310345" height="8.23094688" rx="3"></rect>
                    <rect id="Rectangle-14" fill="#B3E2F1" x="89.5517241" y="35.2101617" width="39.75" height="8.23094688" rx="3"></rect>
                    <rect id="Rectangle-14" fill="#D3EEF7" x="78.1293103" y="98.175702" width="31.9827586" height="5.48729792" rx="2.74364896"></rect>
                    <rect id="Rectangle-14" fill="#B3E2F1" x="56.1982759" y="83.6812933" width="24.2155172" height="7.31639723" rx="3"></rect>
                    <rect id="Rectangle-14" fill="#B3E2F1" x="83.612069" y="83.6812933" width="19.6465517" height="7.31639723" rx="3"></rect>
                    <rect id="Rectangle-14" fill="#B3E2F1" x="10.0517241" y="117.062356" width="24.2155172" height="5.48729792" rx="2.74364896"></rect>
                    <rect id="Rectangle-14" fill="#B3E2F1" x="10.0517241" y="172.849885" width="24.2155172" height="5.48729792" rx="2.74364896"></rect>
                    <rect id="Rectangle-14" fill="#B3E2F1" x="57.5689655" y="172.849885" width="24.2155172" height="5.48729792" rx="2.74364896"></rect>
                    <rect id="Rectangle-14" fill="#B3E2F1" x="104.62931" y="172.849885" width="24.2155172" height="5.48729792" rx="2.74364896"></rect>
                    <rect id="Rectangle-14" fill="#D3EEF7" x="10.0517241" y="180.623557" width="14.6206897" height="4.57274827" rx="2.28637413"></rect>
                    <rect id="Rectangle-14" fill="#D3EEF7" x="57.5689655" y="180.623557" width="14.6206897" height="4.57274827" rx="2.28637413"></rect>
                    <rect id="Rectangle-14" fill="#D3EEF7" x="104.62931" y="180.623557" width="14.6206897" height="4.57274827" rx="2.28637413"></rect>
                    <rect id="Rectangle-14" fill="#B3E2F1" x="20.5603448" y="6.30959037" width="24.2155172" height="2.74364896" rx="1"></rect>
                    <rect id="Rectangle-14" fill="#B3E2F1" x="20.5603448" y="11.3396135" width="51.6293103" height="2.74364896" rx="1"></rect>
                    <rect id="Rectangle-25" fill="#B3E2F1" x="5.02586207" y="6.30959037" width="11.4224138" height="7.77367206" rx="3"></rect>
                    <path d="M7.07978452,8.71550001 C6.15667972,7.97640476 6.35413734,7.37724968 7.53944486,7.37724968 L13.9347648,7.37724968 C15.111733,7.37724968 15.3249145,7.97049225 14.3944252,8.71550001 L12.4085339,10.3055283 C11.4854291,11.0446236 9.99616506,11.0505361 9.06567574,10.3055283 L7.07978452,8.71550001 Z" id="Rectangle-25" fill="#D7EFF7" opacity="0.569463315"></path>
                </g>
                <g id="Group-24" opacity="0.5" transform="translate(165.000000, 103.000000)">
                    <g id="Group">
                        <use id="Rectangle" stroke="#0AA6D2" mask="url(#mask-10)" stroke-width="4" fill="#E7F6FB" xlink:href="#path-9"></use>
                        <rect id="Rectangle" fill="#D3EEF7" x="10.0517241" y="128.494226" width="44.7758621" height="40.6974596" rx="2"></rect>
                        <rect id="Rectangle" fill="#D3EEF7" x="57.5689655" y="128.494226" width="44.7758621" height="40.6974596" rx="2"></rect>
                        <rect id="Rectangle" fill="#D3EEF7" x="104.62931" y="128.494226" width="44.7758621" height="40.6974596" rx="2"></rect>
                        <rect id="Rectangle-16" fill="#D8EFF7" x="1.73770492" y="1.73684211" width="155.52459" height="16.9191686" rx="3"></rect>
                    </g>
                    <g id="Page-1" transform="translate(67.770492, 52.973684)" fill="#84D2E8">
                        <path d="M11.6508621,23.3210162 C5.22553431,23.3210162 3.55271368e-15,18.0911555 3.55271368e-15,11.6605081 C3.55271368e-15,5.22986065 5.22553431,0 11.6508621,0 C18.0761898,0 23.3017241,5.22986065 23.3017241,11.6605081 C23.3017241,18.0911555 18.0761898,23.3210162 11.6508621,23.3210162 L11.6508621,23.3210162 Z" id="Fill-1" fill-opacity="0.201143569"></path>
                        <path d="M13.9272329,14.0798805 C14.5640311,13.4455677 15.0056422,12.6642799 15.1373936,12.2036296 C15.2231946,11.9089062 15.283784,11.5932969 15.3216015,11.3573635 C15.5920171,11.2351423 15.7998102,11.0235758 15.914076,10.7578606 C16.0746988,10.3722448 16.1621264,9.54609108 16.163753,9.51128124 C16.2320685,8.85569576 15.9905243,8.47936262 15.9681591,8.45963704 C16.249554,5.80519271 15.3565725,5.28072433 14.7624715,5.18712451 C14.5514253,5.15386177 14.2322129,5.07844043 14.0890756,4.92721098 C13.7572574,4.57833894 13.6092404,4.19001574 13.0342514,4.22018428 C12.8215787,4.23217434 12.5340842,4.16874306 12.3706149,4.03762596 C12.1514359,3.86202962 11.8476758,3.65819861 11.6223973,3.65819861 C11.4015917,3.65819861 11.12345,3.85468087 10.92013,4.02679623 C10.7615404,4.16294142 10.4801455,4.23101401 10.2674727,4.21863717 C9.69248375,4.18692153 9.54446678,4.57679184 9.21264853,4.92566387 C9.06951125,5.07689332 8.74867227,5.15231466 8.53925266,5.18557741 C7.9451516,5.27917722 7.05257676,5.8036456 7.33356502,8.45808993 C7.30957325,8.48090972 7.0712822,8.85995029 7.13797117,9.50973413 C7.14122429,9.54454398 7.22702533,10.3722448 7.38764814,10.7563135 C7.50028742,11.0220287 7.71011367,11.2335952 7.98012264,11.3558164 C8.01794016,11.5932969 8.08015609,11.9073591 8.16433057,12.2020825 C8.30096161,12.6751097 8.74582579,13.4710949 9.39197678,14.110049 L9.37937094,14.110049 C9.30332925,17.2073519 3.5623855,16.2721273 2.74137931,19.8076476 C4.87786596,22.2323469 8.07852953,23.778291 11.6524886,23.778291 C15.2264477,23.778291 18.4287379,22.2323469 20.5603448,19.8091947 C19.7454382,16.2647786 14.017507,17.1698347 13.9272329,14.0798805 L13.9272329,14.0798805 Z" id="Fill-2" fill-opacity="0.401154891"></path>
                    </g>
                    <rect id="Rectangle-14" fill="#B3E2F1" x="29.6982759" y="35.2101617" width="31.0689655" height="8.23094688" rx="3"></rect>
                    <rect id="Rectangle-14" fill="#D3EEF7" x="48.887931" y="98.175702" width="24.2155172" height="5.48729792" rx="2.74364896"></rect>
                    <rect id="Rectangle-14" fill="#B3E2F1" x="64.4224138" y="35.2101617" width="21.9310345" height="8.23094688" rx="3"></rect>
                    <rect id="Rectangle-14" fill="#B3E2F1" x="89.5517241" y="35.2101617" width="39.75" height="8.23094688" rx="3"></rect>
                    <rect id="Rectangle-14" fill="#D3EEF7" x="78.1293103" y="98.175702" width="31.9827586" height="5.48729792" rx="2.74364896"></rect>
                    <rect id="Rectangle-14" fill="#B3E2F1" x="56.1982759" y="83.6812933" width="24.2155172" height="7.31639723" rx="3"></rect>
                    <rect id="Rectangle-14" fill="#B3E2F1" x="83.612069" y="83.6812933" width="19.6465517" height="7.31639723" rx="3"></rect>
                    <rect id="Rectangle-14" fill="#B3E2F1" x="10.0517241" y="117.062356" width="24.2155172" height="5.48729792" rx="2.74364896"></rect>
                    <rect id="Rectangle-14" fill="#B3E2F1" x="10.0517241" y="172.849885" width="24.2155172" height="5.48729792" rx="2.74364896"></rect>
                    <rect id="Rectangle-14" fill="#B3E2F1" x="57.5689655" y="172.849885" width="24.2155172" height="5.48729792" rx="2.74364896"></rect>
                    <rect id="Rectangle-14" fill="#B3E2F1" x="104.62931" y="172.849885" width="24.2155172" height="5.48729792" rx="2.74364896"></rect>
                    <rect id="Rectangle-14" fill="#D3EEF7" x="10.0517241" y="180.623557" width="14.6206897" height="4.57274827" rx="2.28637413"></rect>
                    <rect id="Rectangle-14" fill="#D3EEF7" x="57.5689655" y="180.623557" width="14.6206897" height="4.57274827" rx="2.28637413"></rect>
                    <rect id="Rectangle-14" fill="#D3EEF7" x="104.62931" y="180.623557" width="14.6206897" height="4.57274827" rx="2.28637413"></rect>
                    <rect id="Rectangle-14" fill="#B3E2F1" x="20.5603448" y="6.30959037" width="24.2155172" height="2.74364896" rx="1"></rect>
                    <rect id="Rectangle-14" fill="#B3E2F1" x="20.5603448" y="11.3396135" width="51.6293103" height="2.74364896" rx="1"></rect>
                    <rect id="Rectangle-25" fill="#B3E2F1" x="5.02586207" y="6.30959037" width="11.4224138" height="7.77367206" rx="3"></rect>
                    <path d="M7.07978452,8.71550001 C6.15667972,7.97640476 6.35413734,7.37724968 7.53944486,7.37724968 L13.9347648,7.37724968 C15.111733,7.37724968 15.3249145,7.97049225 14.3944252,8.71550001 L12.4085339,10.3055283 C11.4854291,11.0446236 9.99616506,11.0505361 9.06567574,10.3055283 L7.07978452,8.71550001 Z" id="Rectangle-25" fill="#D7EFF7" opacity="0.569463315"></path>
                </g>
            </g>
        </g>
    </g>
</svg>