<?xml version="1.0" encoding="UTF-8"?>
<svg width="229px" height="167px" viewBox="0 0 229 167" version="1.1" xmlns="http://www.w3.org/2000/svg" xmlns:xlink="http://www.w3.org/1999/xlink">
    <!-- Generator: Sketch 40.3 (33839) - http://www.bohemiancoding.com/sketch -->
    <title>fusion-delights</title>
    <desc>Created with Sketch.</desc>
    <defs>
        <rect id="path-1" x="0" y="0" width="149" height="150" rx="4.50000018"></rect>
        <mask id="mask-2" maskContentUnits="userSpaceOnUse" maskUnits="objectBoundingBox" x="0" y="0" width="149" height="150" fill="white">
            <use xlink:href="#path-1"></use>
        </mask>
        <rect id="path-3" x="84" y="114" width="14" height="14" rx="7"></rect>
        <mask id="mask-4" maskContentUnits="userSpaceOnUse" maskUnits="objectBoundingBox" x="0" y="0" width="14" height="14" fill="white">
            <use xlink:href="#path-3"></use>
        </mask>
        <rect id="path-5" x="0" y="0" width="26" height="26" rx="13"></rect>
        <rect id="path-7" x="99" y="19" width="34" height="34" rx="17"></rect>
        <mask id="mask-8" maskContentUnits="userSpaceOnUse" maskUnits="objectBoundingBox" x="0" y="0" width="34" height="34" fill="white">
            <use xlink:href="#path-7"></use>
        </mask>
        <path d="M0,4.49957576 C0,2.01452869 2.02270739,0 4.50088084,0 L50.4991192,0 C52.984887,0 55,2.01830901 55,4.49957576 L55,49.5004242 C55,51.9854713 52.9772926,54 50.4991192,54 L4.50088084,54 C2.01511299,54 0,51.981691 0,49.5004242 L0,4.49957576 Z" id="path-9"></path>
        <mask id="mask-10" maskContentUnits="userSpaceOnUse" maskUnits="objectBoundingBox" x="0" y="0" width="55" height="54" fill="white">
            <use xlink:href="#path-9"></use>
        </mask>
        <polygon id="path-11" points="28 38.4021832 21.1116982 43.6298316 19.9374389 35.0625611 11.3701684 33.8883018 16.5978168 27 11.3701684 20.1116982 19.9374389 18.9374389 21.1116982 10.3701684 28 15.5978168 34.8883018 10.3701684 36.0625611 18.9374389 44.6298316 20.1116982 39.4021832 27 44.6298316 33.8883018 36.0625611 35.0625611 34.8883018 43.6298316"></polygon>
        <mask id="mask-12" maskContentUnits="userSpaceOnUse" maskUnits="objectBoundingBox" x="0" y="0" width="33.2596632" height="33.2596632" fill="white">
            <use xlink:href="#path-11"></use>
        </mask>
        <path d="M28,37 C33.5228475,37 38,32.5228475 38,27 C38,21.4771525 33.5228475,17 28,17 C22.4771525,17 18,21.4771525 18,27 C18,32.5228475 22.4771525,37 28,37 Z" id="path-13"></path>
        <mask id="mask-14" maskContentUnits="userSpaceOnUse" maskUnits="objectBoundingBox" x="-2" y="-2" width="24" height="24">
            <rect x="16" y="15" width="24" height="24" fill="white"></rect>
            <use xlink:href="#path-13" fill="black"></use>
        </mask>
        <rect id="path-15" x="0" y="0" width="58" height="58" rx="4.50000018"></rect>
        <mask id="mask-16" maskContentUnits="userSpaceOnUse" maskUnits="objectBoundingBox" x="0" y="0" width="58" height="58" fill="white">
            <use xlink:href="#path-15"></use>
        </mask>
    </defs>
    <g id="Page-2" stroke="none" stroke-width="1" fill="none" fill-rule="evenodd">
        <g id="Blue-Version" transform="translate(-924.000000, -3059.000000)">
            <g id="fusion-delights" transform="translate(924.000000, 3059.000000)">
                <g id="Details">
                    <g id="Group-12" transform="translate(41.000000, 0.000000)" stroke="#0AA6D2" stroke-width="4" fill="#FFFFFF">
                        <use id="Rectangle-4" mask="url(#mask-2)" xlink:href="#path-1"></use>
                    </g>
                    <g id="Group-10" transform="translate(175.000000, 32.000000)" fill="#CEEDF6">
                        <path d="M22.3652939,24.9285714 C22.5761291,24.9285714 22.7472101,24.7605935 22.7478005,24.5530027 C22.7527955,22.7966709 22.6754332,20.1483954 22.3850197,19.51201 C22.0233179,18.7194099 21.3488154,18.2315992 20.1216425,17.9526602 L19.9889997,17.9223936 C19.9172915,17.9060865 19.9172915,17.9060865 19.8744379,17.8963369 C19.8325596,17.886805 19.8325596,17.886805 19.7636367,17.8711107 C17.9395349,17.4554682 17.080343,17.2144451 16.2677967,16.8699119 C15.2749507,16.4489286 14.6146822,15.9883841 14.2512503,15.2032017 C13.8311175,14.2950226 14.0154812,13.4970421 14.5295645,12.5411797 C16.8840374,8.16200895 17.2977628,4.61427875 15.90741,2.33389983 C15.0258757,0.88844146 13.4385346,0.0714285714 11.4255307,0.0714285714 C9.3968071,0.0714285714 7.79672011,0.901951823 6.91035413,2.37169843 C5.53728459,4.64836438 5.97530836,8.27683018 8.31942823,12.5349733 C8.58767603,13.0223962 8.75964165,13.4954392 8.80927746,13.9742043 C8.85195276,14.3858314 8.8036158,14.7851475 8.61709885,15.1931181 C8.25701532,15.9808857 7.60211252,16.4431071 6.61834346,16.8626556 C5.8133001,17.2059829 4.96341975,17.4445961 3.15391891,17.8562648 C3.08755335,17.8713535 3.08755335,17.8713535 3.04735201,17.8804896 C3.00676259,17.88971 3.00676259,17.88971 2.94118656,17.904599 L2.72692318,17.9534458 C0.478520095,18.4643641 0.0947230438,21.1067391 0.103907438,24.069866 L0.103895835,24.5519481 C0.103895835,24.7599514 0.275150552,24.9285714 0.486403952,24.9285714 L22.3652939,24.9285714 Z" id="allcustomers-blue"></path>
                    </g>
                    <rect id="Rectangle-23" fill="#A8DFEE" x="88" y="63" width="56" height="6" rx="2"></rect>
                    <rect id="Rectangle-23" fill="#A8DFEE" x="88" y="74" width="56" height="6" rx="2"></rect>
                    <rect id="Rectangle-23" fill="#A8DFEE" x="88" y="85" width="56" height="6" rx="2"></rect>
                    <rect id="Rectangle-23" fill="#A8DFEE" x="88" y="96" width="56" height="6" rx="2"></rect>
                    <rect id="Rectangle-23" fill="#A8DFEE" x="88" y="107" width="56" height="6" rx="2"></rect>
                    <rect id="Rectangle-23" fill="#A8DFEE" x="98" y="118" width="46" height="6" rx="2"></rect>
                    <use id="Rectangle-24" stroke="#CEEDF6" mask="url(#mask-4)" stroke-width="4" stroke-dasharray="3,3" xlink:href="#path-3"></use>
                    <g id="Group-13" opacity="0.593240489" transform="translate(103.000000, 23.000000)">
                        <mask id="mask-6" fill="white">
                            <use xlink:href="#path-5"></use>
                        </mask>
                        <use id="Rectangle-24" fill="#CEEDF6" xlink:href="#path-5"></use>
                        <path d="M3.88821676,25.9380952 L3.88821676,25.9380952 L22.8499214,25.9380952 C23.0326452,25.9380952 23.1809154,25.7925143 23.1814271,25.6126023 C23.1857561,24.0904481 23.1187087,21.795276 22.8670171,21.243742 C22.5535422,20.5568219 21.9689734,20.1340526 20.9054235,19.8923055 L20.7904664,19.8660744 C20.7283193,19.8519416 20.7283193,19.8519416 20.6911795,19.843492 C20.6911555,19.8434865 20.6911555,19.8434865 20.6911314,19.843481 C20.654885,19.835231 20.654885,19.835231 20.5951518,19.8216292 C19.0142636,19.4614058 18.2696306,19.252519 17.5654238,18.9539236 C16.7049573,18.5890715 16.1327246,18.1899329 15.8177503,17.5094415 C15.4536352,16.722353 15.613417,16.0307698 16.0589559,15.2023557 C18.0994991,11.4070744 18.4580611,8.33237491 17.2530886,6.35604652 C16.4890923,5.10331593 15.1133966,4.3952381 13.3687933,4.3952381 C11.6105662,4.3952381 10.2238241,5.11502491 9.45564025,6.38880531 C8.26564665,8.3619158 8.64526724,11.5065862 10.6768378,15.1969769 C10.9093192,15.6194101 11.0583561,16.0293806 11.1013738,16.4443104 C11.1383591,16.8010539 11.096467,17.1471278 10.934819,17.5007024 C10.6227466,18.1834343 10.0551642,18.5840262 9.20256433,18.9476349 C8.50486009,19.2451851 7.76829712,19.4519833 6.20006306,19.8087628 C6.14254624,19.8218397 6.14254624,19.8218397 6.10770507,19.8297577 C6.1076826,19.8297628 6.1076826,19.8297628 6.10765996,19.8297679 C6.07252758,19.8377486 6.07252758,19.8377486 6.01569502,19.8506525 L5.83000009,19.8929864 C3.88138408,20.3357822 3.54875997,22.6258406 3.55671978,25.1938838 L3.55670972,25.6116883 C3.55670972,25.7919579 3.70513048,25.9380952 3.88821676,25.9380952 L3.88821676,25.9380952 Z" id="allcustomers-blue" fill="#EDF9FC" mask="url(#mask-6)"></path>
                    </g>
                    <use id="Rectangle-24" stroke="#CEEDF6" mask="url(#mask-8)" stroke-width="4" stroke-dasharray="3,3" xlink:href="#path-7"></use>
                    <path d="M114.225586,19.8193359 L173.855469,12.4257812" id="Line" stroke="#CEEDF6" stroke-width="2" stroke-linecap="square" stroke-dasharray="2,4"></path>
                    <path d="M110.497559,51.0126953 L174.601562,68.3945312" id="Line" stroke="#CEEDF6" stroke-width="2" stroke-linecap="square" stroke-dasharray="2,4"></path>
                    <path d="M91,124 C92.6568542,124 94,122.656854 94,121 C94,119.343146 92.6568542,118 91,118 C89.3431458,118 88,119.343146 88,121 C88,122.656854 89.3431458,124 91,124 Z" id="Oval-11" fill="#CEEDF6"></path>
                    <path d="M53.5,79.5 L93.1523438,115.707031" id="Line" stroke="#CEEDF6" stroke-width="2" stroke-linecap="square" stroke-dasharray="2,5"></path>
                    <path d="M51.8642578,130.001953 L90.5898437,127.212891" id="Line" stroke="#CEEDF6" stroke-width="2" stroke-linecap="square" stroke-dasharray="2,5"></path>
                    <g id="Group-8" transform="translate(0.000000, 77.000000)">
                        <use id="Rectangle-4" stroke="#0AA6D2" mask="url(#mask-10)" stroke-width="4" fill="#CEEDF6" xlink:href="#path-9"></use>
                        <use id="Star" stroke="#EDF9FC" mask="url(#mask-12)" stroke-width="6" fill="#EDF9FC" transform="translate(28.000000, 27.000000) rotate(68.000000) translate(-28.000000, -27.000000) " xlink:href="#path-11"></use>
                        <g id="Oval-6">
                            <use fill="#EDF9FC" fill-rule="evenodd" xlink:href="#path-13"></use>
                            <use stroke="#CEEDF6" mask="url(#mask-14)" stroke-width="4" xlink:href="#path-13"></use>
                        </g>
                    </g>
                    <g id="Page-1" transform="translate(171.000000, 12.000000)">
                        <use id="Rectangle-4" stroke="#0AA6D2" mask="url(#mask-16)" stroke-width="4" fill="#CEEDF6" xlink:href="#path-15"></use>
                        <path d="M29.8927203,44.6499505 C21.1280524,44.6499505 14,37.5522825 14,28.8249753 C14,20.097668 21.1280524,13 29.8927203,13 C38.6573882,13 45.7854406,20.097668 45.7854406,28.8249753 C45.7854406,37.5522825 38.6573882,44.6499505 29.8927203,44.6499505 L29.8927203,44.6499505 Z" id="Fill-1" fill="#A8DFEE"></path>
                        <path d="M32.9978746,32.1084092 C33.8665191,31.2475561 34.4689124,30.1872371 34.6486319,29.5620688 C34.7656715,29.162087 34.8483203,28.7337601 34.8999064,28.4135648 C35.2687753,28.2476931 35.5522218,27.9605671 35.7080897,27.5999537 C35.9271922,27.076618 36.0464506,25.9554093 36.0486693,25.9081674 C36.1418572,25.0184442 35.8123714,24.5077064 35.7818635,24.480936 C36.1657089,20.8784758 34.9476098,20.1666973 34.1372078,20.039669 C33.8493237,19.9945267 33.4138921,19.8921692 33.2186412,19.6869292 C32.7660142,19.21346 32.5641071,18.6864499 31.7797755,18.7273929 C31.4896727,18.7436652 31.0975069,18.6575799 30.8745215,18.4796352 C30.5755436,18.2413259 30.1611902,17.9646981 29.853892,17.9646981 C29.5526954,17.9646981 29.1732874,18.2313526 28.8959425,18.4649377 C28.6796134,18.6497062 28.295768,18.7420904 28.0056651,18.7252933 C27.2213335,18.6822507 27.0194264,19.2113603 26.5667994,19.6848295 C26.3715485,19.8900695 25.9338982,19.992427 25.6482328,20.0375693 C24.8378308,20.1645977 23.6202864,20.8763762 24.0035772,24.4788363 C23.9708504,24.5098061 23.6458021,25.0242183 23.7367713,25.9060677 C23.7412088,25.9533097 23.8582484,27.076618 24.0773509,27.597854 C24.231,27.9584675 24.51722,28.2455935 24.8855342,28.4114651 C24.9371203,28.7337601 25.0219879,29.1599874 25.1368087,29.5599691 C25.3231845,30.2019346 25.9300153,31.2822002 26.8114177,32.1493522 L26.7942223,32.1493522 C26.6904953,36.3528348 18.8593826,35.0836014 17.7394636,39.8818075 C20.6538046,43.1724709 25.0197691,45.2705378 29.8949391,45.2705378 C34.770109,45.2705378 39.1382923,43.1724709 42.045977,39.8839071 C40.9343784,35.0736281 33.1210158,36.3019185 32.9978746,32.1084092 L32.9978746,32.1084092 Z" id="Fill-2" fill="#EDF9FC"></path>
                    </g>
                </g>
                <rect id="Rectangle-27" fill="#0AA6D2" transform="translate(120.298881, 148.298881) rotate(-315.000000) translate(-120.298881, -148.298881) " x="105.977893" y="133.912916" width="28.6419753" height="28.7719298" rx="5"></rect>
            </g>
        </g>
    </g>
</svg>