<?xml version="1.0" encoding="UTF-8"?>
<svg width="255px" height="168px" viewBox="0 0 255 168" version="1.1" xmlns="http://www.w3.org/2000/svg" xmlns:xlink="http://www.w3.org/1999/xlink">
    <!-- Generator: Sketch 40.3 (33839) - http://www.bohemiancoding.com/sketch -->
    <title>fusion-recommendations</title>
    <desc>Created with Sketch.</desc>
    <defs>
        <path d="M3.99368604,0.388025309 L114.006314,11.0768184 C116.211966,11.2911189 118,12.9163894 118,14.6887459 L118,104.311254 C118,106.091766 116.217114,107.708381 114.006314,107.923182 L3.99368604,118.611975 C1.78803414,118.826275 0,117.202005 0,115.00663 L0,3.99337048 C0,1.78789286 1.78288569,0.173224626 3.99368604,0.388025309 Z" id="path-1"></path>
        <mask id="mask-2" maskContentUnits="userSpaceOnUse" maskUnits="objectBoundingBox" x="0" y="0" width="118" height="118.262115" fill="white">
            <use xlink:href="#path-1"></use>
        </mask>
        <path d="M3.99368604,11.8542715 L114.006314,0.415259794 C116.211966,0.185918142 118,1.79799489 118,3.99337048 L118,115.00663 C118,117.212107 116.217114,118.814617 114.006314,118.58474 L3.99368604,107.145729 C1.78803414,106.916387 0,105.303239 0,103.560574 L0,15.4394264 C0,13.6887416 1.78288569,12.0841484 3.99368604,11.8542715 Z" id="path-3"></path>
        <mask id="mask-4" maskContentUnits="userSpaceOnUse" maskUnits="objectBoundingBox" x="0" y="0" width="118" height="118.213159" fill="white">
            <use xlink:href="#path-3"></use>
        </mask>
        <path d="M0,3.99279704 C0,1.78763613 1.79244443,0 4.00813286,0 L142.991867,0 C145.205498,0 147,1.78906694 147,3.99279704 L147,146.007203 C147,148.212364 145.207556,150 142.991867,150 L4.00813286,150 C1.79450221,150 0,148.210933 0,146.007203 L0,3.99279704 Z" id="path-5"></path>
        <mask id="mask-6" maskContentUnits="userSpaceOnUse" maskUnits="objectBoundingBox" x="0" y="0" width="147" height="150" fill="white">
            <use xlink:href="#path-5"></use>
        </mask>
    </defs>
    <g id="Page-2" stroke="none" stroke-width="1" fill="none" fill-rule="evenodd">
        <g id="Blue-Version" transform="translate(-274.000000, -3058.000000)">
            <g id="fusion-recommendations" transform="translate(274.000000, 3058.000000)">
                <g id="Recommendations">
                    <g id="Burger" transform="translate(0.000000, 17.000000)">
                        <use id="Rectangle-4" stroke="#0AA6D2" mask="url(#mask-2)" stroke-width="4" fill="#FFFFFF" xlink:href="#path-1"></use>
                        <g id="Hamburger" transform="translate(37.000000, 21.000000)">
                            <path d="M23,51 C35.6987834,51 45.9931813,46.5568458 45.9931813,41.0759374 C45.9931813,35.5950289 47.0456288,23.2126246 23,23.2126246 C-1.04562884,23.2126246 0.00681868389,35.5950289 0.00681868389,41.0759374 C0.00681868389,46.5568458 10.3012166,51 23,51 Z" id="Oval-1-Copy-11" fill="#A8DFEE" transform="translate(23.000000, 37.106312) scale(1, -1) translate(-23.000000, -37.106312) "></path>
                            <path d="M33.8209004,38.4530158 C30.6155831,39.1684555 26.926156,39.575898 23,39.575898 C10.6710551,39.575898 0.676470588,35.5581464 0.676470588,30.6019985 C0.676470588,25.6458507 10.6710551,23.2126246 23,23.2126246 C35.3289449,23.2126246 45.3235294,25.6458507 45.3235294,30.6019985 C45.3235294,32.4812529 43.8865606,34.2255895 41.4302276,35.6671344 L38.980415,40.0143306 C37.7986213,42.1114254 35.8820053,42.1104497 34.7007614,40.0143306 L33.8209004,38.4530158 Z" id="Oval-1-Copy-13" fill="#CEEDF6"></path>
                            <path d="M23,34.7342193 C35.3289449,34.7342193 45.3235294,30.7404055 45.3235294,25.8137864 C45.3235294,20.8871674 35.3289449,18.4684385 23,18.4684385 C10.6710551,18.4684385 0.676470588,20.8871674 0.676470588,25.8137864 C0.676470588,30.7404055 10.6710551,34.7342193 23,34.7342193 Z" id="Oval-1-Copy-12" fill="#EDF9FC"></path>
                            <path d="M23,31.345515 C35.6844888,31.345515 45.9672987,26.9023608 45.9672987,21.4214523 C45.9672987,15.9405438 47.8522654,2.04100303e-15 23,6.58388073e-17 C-1.85226543,-1.97516422e-15 0.032701304,15.9405438 0.032701304,21.4214523 C0.032701304,26.9023608 10.3155112,31.345515 23,31.345515 Z" id="Oval-1-Copy-8" fill="#A8DFEE"></path>
                            <path d="M12.5992647,14.627907 L15.5588235,12.3687708" id="Line" stroke="#CEEDF6" stroke-width="2" stroke-linecap="round" fill="#FFFFFF"></path>
                            <path d="M34.5,15.0797342 L31.1176471,15.7574751" id="Line-Copy-4" stroke="#CEEDF6" stroke-width="2" stroke-linecap="round" fill="#FFFFFF"></path>
                            <path d="M18.9411765,15.0797342 L21.6470588,17.1129568" id="Line-Copy-2" stroke="#CEEDF6" stroke-width="2" stroke-linecap="round" fill="#FFFFFF"></path>
                            <path d="M24.3529412,10.3355482 L25.1323442,11.1108665" id="Line-Copy-3" stroke="#CEEDF6" stroke-width="2" stroke-linecap="round" fill="#FFFFFF"></path>
                        </g>
                        <path d="M34,88.8052964 C34,87.255974 35.2567608,86 36.7912987,86 L77.5625,86 L83.1904347,86 C84.7421148,86 86,87.2554932 86,88.8052964 L86,99.1947036 C86,100.744026 84.7403652,102 83.2042542,102 L36.7957458,102 C35.2516981,102 34,100.744507 34,99.1947036 L34,88.8052964 Z" id="Rectangle-13" fill="#CEEDF6"></path>
                        <path d="M50,94 C50,92.8954305 50.9008112,92 52.0043791,92 L66.7548077,92 L68.0002027,92 C69.1046603,92 70,92.8877296 70,94 L70,94 C70,95.1045695 69.1017876,96 68.0092049,96 L51.9907951,96 C50.8913093,96 50,95.1122704 50,94 L50,94 Z" id="Rectangle-13" fill="#A8DFEE"></path>
                    </g>
                    <g id="Pizza" transform="translate(137.000000, 17.000000)">
                        <use id="Rectangle-4" stroke="#0AA6D2" mask="url(#mask-4)" stroke-width="4" fill="#FFFFFF" xlink:href="#path-3"></use>
                        <path d="M33,88.8052964 C33,87.255974 34.2567608,86 35.7912987,86 L76.5625,86 L82.1904347,86 C83.7421148,86 85,87.2554932 85,88.8052964 L85,99.1947036 C85,100.744026 83.7403652,102 82.2042542,102 L35.7957458,102 C34.2516981,102 33,100.744507 33,99.1947036 L33,88.8052964 Z" id="Rectangle-13" fill="#CEEDF6"></path>
                        <g transform="translate(54.928891, 41.000000) rotate(-225.000000) translate(-54.928891, -41.000000) translate(31.428891, 16.000000)">
                            <path d="M42.3695946,20.7652765 L44.5024356,17.5468002 C48.1595639,12.0281607 46.2664416,5.30884324 40.2642546,2.55353384 C40.2642546,2.55353384 40.4745901,-4.41701004e-14 23.5997454,-4.26325641e-14 C6.72490063,-4.10950279e-14 6.93523544,2.55353384 6.93523544,2.55353384 C0.771346494,4.946775 -0.964451346,12.0215572 2.69705295,17.5468002 L4.82085633,20.7516386 C3.33693346,15.9780912 5.39646314,10.9459459 10.5135586,9.10150738 C10.5135586,9.10150738 8.86078948,7.31017161 23.598869,7.31017161 C38.3369486,7.31017161 36.6996427,9.10585654 36.6996427,9.10585654 C41.6514873,11.2736975 43.8080176,16.0801761 42.3695946,20.7652765 Z" id="Triangle-7" fill="#A8DFEE"></path>
                            <path d="M5.71057731,24.0086361 C2.44888696,18.2377172 4.32920343,10.6843915 10.4149002,8.08309277 C10.4149002,8.08309277 8.96963993,5.95460282 23.4809772,5.95460282 C37.9923145,5.95460282 36.5470538,8.08309277 36.5470538,8.08309277 C42.4068692,11.1076086 44.5101427,18.2428888 41.2513753,24.0086361 L29.3867891,45.0006855 C26.1250988,50.7716044 20.8339309,50.7664328 17.5751635,45.0006855 L5.71057731,24.0086361 Z" id="Triangle-7-Copy-2" fill="#CEEDF6"></path>
                            <ellipse id="Oval-47" fill="#EDF9FC" cx="17.0909371" cy="16.3751578" rx="2.72050894" ry="2.74020253"></ellipse>
                            <ellipse id="Oval-47-Copy" fill="#EDF9FC" cx="30.5875838" cy="18.7942151" rx="1.66269589" ry="1.67473204"></ellipse>
                            <ellipse id="Oval-47-Copy-2" fill="#EDF9FC" cx="23.3751858" cy="30.8895021" rx="3.02429787" ry="3.04619057"></ellipse>
                        </g>
                        <path d="M49,94 C49,92.8954305 49.9008112,92 51.0043791,92 L65.7548077,92 L67.0002027,92 C68.1046603,92 69,92.8877296 69,94 L69,94 C69,95.1045695 68.1017876,96 67.0092049,96 L50.9907951,96 C49.8913093,96 49,95.1122704 49,94 L49,94 Z" id="Rectangle-13" fill="#A8DFEE"></path>
                    </g>
                    <g id="Donut" transform="translate(54.000000, 0.000000)">
                        <use id="Rectangle-4" stroke="#0AA6D2" mask="url(#mask-6)" stroke-width="4" fill="#FFFFFF" xlink:href="#path-5"></use>
                        <g id="Group-9" transform="translate(37.000000, 103.000000)">
                            <path d="M0,4.00629425 C0,1.79367903 1.79255726,0 4.00479924,0 L69.9952008,0 C72.2069903,0 74,1.78563292 74,4.00629425 L74,18.9937057 C74,21.206321 72.2074427,23 69.9952008,23 L4.00479924,23 C1.7930097,23 0,21.2143671 0,18.9937057 L0,4.00629425 Z" id="Rectangle-13" fill="#CEEDF6"></path>
                            <path d="M21,10.8067596 C21,9.25662909 22.2570344,8 23.7930283,8 L47.8076923,8 L50.1910927,8 C51.7424094,8 53,9.25779662 53,10.8067596 L53,11.1932404 C53,12.7433709 51.7455621,14 50.2022387,14 L23.7977613,14 C22.2526004,14 21,12.7422034 21,11.1932404 L21,10.8067596 Z" id="Rectangle-13" fill="#A8DFEE"></path>
                        </g>
                        <g transform="translate(46.000000, 29.000000)">
                            <path d="M27.6923077,55 C42.9863469,55 55.3846154,42.6878306 55.3846154,27.5 C55.3846154,12.3121694 42.9863469,0 27.6923077,0 C12.3982685,0 0,12.3121694 0,27.5 C0,42.6878306 12.3982685,55 27.6923077,55 Z M27.9440559,36.5 C32.8103412,36.5 36.7552448,32.5824916 36.7552448,27.75 C36.7552448,22.9175084 32.8103412,19 27.9440559,19 C23.0777707,19 19.1328671,22.9175084 19.1328671,27.75 C19.1328671,32.5824916 23.0777707,36.5 27.9440559,36.5 Z" id="Oval-30" fill="#CEEDF6"></path>
                            <path d="M19.1729897,28.590471 C17.8097579,28.861245 16.4370587,29.0517621 14.9794922,28.9755859 C11.5212688,28.7948504 8.64429915,26.5139694 5.9140625,26 C3.52073362,25.5494538 1.43074034,26.4241359 0.000461424187,27.3395534 C0.087412656,12.2255523 12.4521608,0 27.6923077,0 C42.9428671,0 55.3140973,12.2422637 55.384315,27.3705364 L49.5488281,26 C49.5488281,26 40.1852578,27.75 36.7552448,27.75 C36.7552448,22.9175084 32.8103412,19 27.9440559,19 C23.0777707,19 19.1328671,22.9175084 19.1328671,27.75 C19.1328671,28.0335083 19.1464448,28.3138674 19.1729897,28.590471 Z" id="Oval-30" fill="#A8DFEE"></path>
                            <path d="M9.23076923,17.9063606 C9.23076923,17.9063606 11.4191024,15.888889 13.6704194,15.8888889" id="Path-35" stroke="#EDF9FC" stroke-width="2" stroke-linecap="round"></path>
                            <path d="M34.8561556,12.9094814 C34.8561556,12.9094814 31.8829894,13.0483209 30.1583804,11.6012022" id="Path-35-Copy" stroke="#EDF9FC" stroke-width="2" stroke-linecap="round"></path>
                            <path d="M45.560217,15.8413463 C45.560217,15.8413463 46.6469155,18.6400092 45.8272097,20.7754161" id="Path-35-Copy-2" stroke="#EDF9FC" stroke-width="2" stroke-linecap="round"></path>
                            <ellipse id="Oval-32" fill="#EDF9FC" cx="20" cy="7.02777778" rx="1.53846154" ry="1.52777778"></ellipse>
                            <path d="M0,28.0712011 C0,28.0712011 4.03821736,25.6533999 6.05732604,25.6667215 C8.00589236,25.6795777 10.8259614,28.020493 13.3481858,28.5776935 C16.4653255,29.2663205 19.1275451,28.1974003 19.1275451,28.1974003" id="Path-38" stroke="#EDF9FC" stroke-width="2"></path>
                            <path d="M55.4352375,27.46009 C55.4352375,27.46009 51.3970201,25.0422888 49.3779114,25.0556104 C47.4293451,25.0684666 44.609276,27.4093819 42.0870517,27.9665824 C38.969912,28.6552094 36.3076923,27.5862891 36.3076923,27.5862891" id="Path-38-Copy" stroke="#EDF9FC" stroke-width="2"></path>
                        </g>
                    </g>
                </g>
                <rect id="Rectangle-27" fill="#48BDDE" transform="translate(128.298881, 149.298881) rotate(-315.000000) translate(-128.298881, -149.298881) " x="113.977893" y="134.912916" width="28.6419753" height="28.7719298" rx="5"></rect>
            </g>
        </g>
    </g>
</svg>