<?xml version="1.0" encoding="UTF-8"?>
<svg width="31px" height="30px" viewBox="0 0 31 30" version="1.1" xmlns="http://www.w3.org/2000/svg" xmlns:xlink="http://www.w3.org/1999/xlink">
    <!-- Generator: Sketch 41.2 (35397) - http://www.bohemiancoding.com/sketch -->
    <title>csv</title>
    <desc>Created with Sketch.</desc>
    <defs>
        <rect id="path-1" x="16" y="7" width="10" height="6" rx="1"></rect>
        <mask id="mask-2" maskContentUnits="userSpaceOnUse" maskUnits="objectBoundingBox" x="0" y="0" width="10" height="6" fill="white">
            <use xlink:href="#path-1"></use>
        </mask>
        <rect id="path-3" x="16" y="11" width="10" height="6" rx="1"></rect>
        <mask id="mask-4" maskContentUnits="userSpaceOnUse" maskUnits="objectBoundingBox" x="0" y="0" width="10" height="6" fill="white">
            <use xlink:href="#path-3"></use>
        </mask>
        <rect id="path-5" x="9" y="11" width="9" height="6" rx="1"></rect>
        <mask id="mask-6" maskContentUnits="userSpaceOnUse" maskUnits="objectBoundingBox" x="0" y="0" width="9" height="6" fill="white">
            <use xlink:href="#path-5"></use>
        </mask>
        <rect id="path-7" x="16" y="15" width="10" height="6" rx="1"></rect>
        <mask id="mask-8" maskContentUnits="userSpaceOnUse" maskUnits="objectBoundingBox" x="0" y="0" width="10" height="6" fill="white">
            <use xlink:href="#path-7"></use>
        </mask>
        <rect id="path-9" x="9" y="15" width="9" height="6" rx="1"></rect>
        <mask id="mask-10" maskContentUnits="userSpaceOnUse" maskUnits="objectBoundingBox" x="0" y="0" width="9" height="6" fill="white">
            <use xlink:href="#path-9"></use>
        </mask>
        <rect id="path-11" x="16" y="19" width="10" height="6" rx="1"></rect>
        <mask id="mask-12" maskContentUnits="userSpaceOnUse" maskUnits="objectBoundingBox" x="0" y="0" width="10" height="6" fill="white">
            <use xlink:href="#path-11"></use>
        </mask>
        <rect id="path-13" x="9" y="19" width="9" height="6" rx="1"></rect>
        <mask id="mask-14" maskContentUnits="userSpaceOnUse" maskUnits="objectBoundingBox" x="0" y="0" width="9" height="6" fill="white">
            <use xlink:href="#path-13"></use>
        </mask>
        <rect id="path-15" x="9" y="7" width="9" height="6" rx="1"></rect>
        <mask id="mask-16" maskContentUnits="userSpaceOnUse" maskUnits="objectBoundingBox" x="0" y="0" width="9" height="6" fill="white">
            <use xlink:href="#path-15"></use>
        </mask>
    </defs>
    <g id="Page-1" stroke="none" stroke-width="1" fill="none" fill-rule="evenodd">
        <g id="Features" transform="translate(-356.000000, -4897.000000)">
            <g id="csv" transform="translate(356.000000, 4897.000000)">
                <path d="M4,16.0046571 L4,3.9992748 C4,1.79053632 5.79086392,0 8.00448719,0 L26.1129432,0 L31,5.19230769 L31,26.0004382 C31,28.2093352 29.2075447,30 27.0015293,30 L9.82870627,30 C9.93959832,29.6871417 10,29.3505348 10,29 C10,28.6492121 9.94009121,28.3126587 9.82995006,28 L27.0015293,28 C28.1038164,28 29,27.1039246 29,26.0004382 L29,5.98548323 L25.2488196,2 L8.00448719,2 C6.89569829,2 6,2.89484206 6,3.9992748 L6,16.9261847 C5.48989837,16.3932181 4.78501011,16.0481277 4,16.0046571 Z" id="Combined-Shape" fill="#0AA6D2"></path>
                <path d="M2.83136349,23.5857864 L2.83136349,18.9975446 C2.83136349,18.446616 3.27522831,18 3.83136349,18 C4.38364824,18 4.83136349,18.4463114 4.83136349,18.9975446 L4.83136349,23.5857864 L5.9592048,22.4579451 C6.34612766,22.0710223 6.97365044,22.0712191 7.3668974,22.4644661 C7.75742169,22.8549904 7.75511657,23.4904605 7.37341836,23.8721587 L4.57783134,26.6677457 C4.53033274,26.7208167 4.47719061,26.7687673 4.4193051,26.8106683 C4.12544972,27.0277354 3.73844834,27.0613836 3.41284773,26.9096829 C3.32764553,26.8706427 3.24721512,26.8189807 3.17454787,26.7547775 C3.14824545,26.7319104 3.12315387,26.7076925 3.09938172,26.6822318 L0.289308625,23.8721587 C-0.0976142393,23.4852358 -0.0974173695,22.857713 0.295829586,22.4644661 C0.686353878,22.0739418 1.32182397,22.0762469 1.70352219,22.4579451 L2.83136349,23.5857864 Z M4.54747351e-13,29 C4.54747351e-13,28.4477153 0.453036308,28 0.997030139,28 L7.00296986,28 C7.5536144,28 8,28.4438648 8,29 C8,29.5522847 7.54696369,30 7.00296986,30 L0.997030139,30 C0.446385598,30 4.54747351e-13,29.5561352 4.54747351e-13,29 Z" id="Combined-Shape" fill="#6FD350"></path>
                <use id="Rectangle-36" stroke="#0AA6D2" mask="url(#mask-2)" stroke-width="4" xlink:href="#path-1"></use>
                <use id="Rectangle-36" stroke="#0AA6D2" mask="url(#mask-4)" stroke-width="4" xlink:href="#path-3"></use>
                <use id="Rectangle-36" stroke="#0AA6D2" mask="url(#mask-6)" stroke-width="4" xlink:href="#path-5"></use>
                <use id="Rectangle-36" stroke="#0AA6D2" mask="url(#mask-8)" stroke-width="4" xlink:href="#path-7"></use>
                <use id="Rectangle-36" stroke="#0AA6D2" mask="url(#mask-10)" stroke-width="4" xlink:href="#path-9"></use>
                <use id="Rectangle-36" stroke="#0AA6D2" mask="url(#mask-12)" stroke-width="4" xlink:href="#path-11"></use>
                <use id="Rectangle-36" stroke="#0AA6D2" mask="url(#mask-14)" stroke-width="4" xlink:href="#path-13"></use>
                <use id="Rectangle-36" stroke="#0AA6D2" mask="url(#mask-16)" stroke-width="4" xlink:href="#path-15"></use>
            </g>
        </g>
    </g>
</svg>