<?xml version="1.0" encoding="UTF-8"?>
<svg width="31px" height="30px" viewBox="0 0 31 30" version="1.1" xmlns="http://www.w3.org/2000/svg" xmlns:xlink="http://www.w3.org/1999/xlink">
    <!-- Generator: Sketch 41.2 (35397) - http://www.bohemiancoding.com/sketch -->
    <title>editables</title>
    <desc>Created with Sketch.</desc>
    <defs></defs>
    <g id="Page-1" stroke="none" stroke-width="1" fill="none" fill-rule="evenodd">
        <g id="Features" transform="translate(-1055.000000, -4896.000000)">
            <g id="editables" transform="translate(1055.000000, 4896.000000)">
                <path d="M0.295978495,0.289877905 C0.475940099,0.110686291 0.722378842,0 0.990777969,0 L5.00922203,0 C5.55641359,0 6,0.443864822 6,1 C6,1.55228475 5.54902482,2 5.00922203,2 L2,2 L2,5.00922203 C2,5.55641359 1.55613518,6 1,6 C0.44771525,6 -4.4408921e-16,5.54902482 -4.4408921e-16,5.00922203 L4.4408921e-16,0.990777969 C4.4408921e-16,0.718690398 0.109746165,0.472219338 0.288470888,0.293163503 Z" id="Combined-Shape" fill="#0AA6D2"></path>
                <path d="M30.7068284,0.288462852 C30.5277733,0.109742875 30.2813055,0 30.009222,0 L25.990778,0 C25.4509752,0 25,0.44771525 25,1 C25,1.55613518 25.4435864,2 25.990778,2 L29,2 L29,5.00922203 C29,5.54902482 29.4477153,6 30,6 C30.5561352,6 31,5.55641359 31,5.00922203 L31,0.990777969 C31,0.722375058 30.8893106,0.47593315 30.7101145,0.295970883 Z" id="Combined-Shape" fill="#0AA6D2"></path>
                <path d="M0.295978495,8.28987791 C0.475940099,8.11068629 0.722378842,8 0.990777969,8 L5.00922203,8 C5.55641359,8 6,8.44386482 6,9 C6,9.55228475 5.54902482,10 5.00922203,10 L2,10 L2,13.009222 C2,13.5564136 1.55613518,14 1,14 C0.44771525,14 -4.4408921e-16,13.5490248 -4.4408921e-16,13.009222 L4.4408921e-16,8.99077797 C4.4408921e-16,8.7186904 0.109746165,8.47221934 0.288470888,8.2931635 Z" id="Combined-Shape" fill="#0AA6D2" transform="translate(3.000000, 11.000000) scale(1, -1) translate(-3.000000, -11.000000) "></path>
                <rect id="Rectangle-23" fill="#0AA6D2" transform="translate(21.500000, 1.000000) rotate(-270.000000) translate(-21.500000, -1.000000) " x="20.5" y="-0.5" width="2" height="3" rx="1"></rect>
                <rect id="Rectangle-23" fill="#0AA6D2" transform="translate(9.500000, 1.000000) rotate(-270.000000) translate(-9.500000, -1.000000) " x="8.5" y="-0.5" width="2" height="3" rx="1"></rect>
                <rect id="Rectangle-23" fill="#0AA6D2" transform="translate(15.500000, 1.000000) rotate(-270.000000) translate(-15.500000, -1.000000) " x="14.5" y="-1.5" width="2" height="5" rx="1"></rect>
                <rect id="Rectangle-23" fill="#0AA6D2" transform="translate(21.500000, 13.000000) rotate(-270.000000) translate(-21.500000, -13.000000) " x="20.5" y="11.5" width="2" height="3" rx="1"></rect>
                <rect id="Rectangle-23" fill="#0AA6D2" transform="translate(9.500000, 13.000000) rotate(-270.000000) translate(-9.500000, -13.000000) " x="8.5" y="11.5" width="2" height="3" rx="1"></rect>
                <rect id="Rectangle-23" fill="#0AA6D2" transform="translate(15.500000, 13.000000) rotate(-270.000000) translate(-15.500000, -13.000000) " x="14.5" y="10.5" width="2" height="5" rx="1"></rect>
                <path d="M14.5,-2.50125391 C14.5,-3.05284614 14.9438648,-3.5 15.5,-3.5 L15.5,-3.5 C16.0522847,-3.5 16.5,-3.06138515 16.5,-2.50125391 L16.5,16.5012539 C16.5,17.0528461 16.0561352,17.5 15.5,17.5 L15.5,17.5 C14.9477153,17.5 14.5,17.0613852 14.5,16.5012539 L14.5,-2.50125391 Z" id="Rectangle-23" fill="#0AA6D2" transform="translate(15.500000, 7.000000) rotate(-270.000000) translate(-15.500000, -7.000000) "></path>
                <path d="M30.7068284,8.28846285 C30.5277733,8.10974288 30.2813055,8 30.009222,8 L25.990778,8 C25.4509752,8 25,8.44771525 25,9 C25,9.55613518 25.4435864,10 25.990778,10 L29,10 L29,13.009222 C29,13.5490248 29.4477153,14 30,14 C30.5561352,14 31,13.5564136 31,13.009222 L31,8.99077797 C31,8.72237506 30.8893106,8.47593315 30.7101145,8.29597088 Z" id="Combined-Shape" fill="#0AA6D2" transform="translate(28.000000, 11.000000) scale(1, -1) translate(-28.000000, -11.000000) "></path>
                <path d="M26.2691703,21.2153219 C28.0268208,21.0327119 28.5267037,19.7899365 27.3833759,18.4367663 L20.0987306,9.81512308 C18.9564389,8.46317919 18.0274493,8.80171434 18.0237828,10.5672135 L17.9999015,22.0663161 C17.9962312,23.8336281 19.1513571,24.4318163 20.5932484,23.3928226 L21.9240288,22.4338928 L23.9289176,28.0093272 C24.2140511,28.8022605 25.0844939,29.2007162 25.871829,28.8997911 L25.7749429,28.9368216 C26.5628497,28.6356779 26.968908,27.7445261 26.6852945,26.9558199 L24.6804057,21.3803855 L26.2691703,21.2153219 Z" id="Imported-Layers" stroke="#6FD350" stroke-width="2" fill="#FFFFFF"></path>
            </g>
        </g>
    </g>
</svg>