<?xml version="1.0" encoding="UTF-8"?>
<svg width="49px" height="30px" viewBox="0 0 49 30" version="1.1" xmlns="http://www.w3.org/2000/svg" xmlns:xlink="http://www.w3.org/1999/xlink">
    <!-- Generator: Sketch 41.2 (35397) - http://www.bohemiancoding.com/sketch -->
    <title>liquid</title>
    <desc>Created with Sketch.</desc>
    <defs></defs>
    <g id="Page-1" stroke="none" stroke-width="1" fill="none" fill-rule="evenodd">
        <g id="Features" transform="translate(-1046.000000, -4650.000000)">
            <g id="liquid" transform="translate(1046.000000, 4650.000000)">
                <rect id="Rectangle-31" fill="#FFFFFF" x="0.75" y="0" width="47.5" height="30"></rect>
                <path d="M1.3,13.36 C1.433334,13.36 1.5833325,13.3400002 1.75,13.3 C1.9166675,13.2599998 2.066666,13.1900005 2.2,13.09 C2.333334,12.9899995 2.4466662,12.8466676 2.54,12.66 C2.6333338,12.4733324 2.68,12.2400014 2.68,11.96 L2.68,8 C2.68,7.5466644 2.7499993,7.1566683 2.89,6.83 C3.0300007,6.5033317 3.2199988,6.2300011 3.46,6.01 C3.7000012,5.7899989 3.9733318,5.6266672 4.28,5.52 C4.5866682,5.4133328 4.906665,5.36 5.24,5.36 L6.7,5.36 L6.7,7.04 L5.6,7.04 C5.2133314,7.04 4.9700005,7.1666654 4.87,7.42 C4.7699995,7.6733346 4.72,7.9466652 4.72,8.24 L4.72,12 C4.72,12.3866686 4.6466674,12.7166653 4.5,12.99 C4.3533326,13.2633347 4.180001,13.4866658 3.98,13.66 C3.779999,13.8333342 3.5666678,13.9666662 3.34,14.06 C3.1133322,14.1533338 2.9200008,14.2066666 2.76,14.22 L2.76,14.26 C2.9200008,14.2733334 3.1133322,14.3166663 3.34,14.39 C3.5666678,14.4633337 3.779999,14.5866658 3.98,14.76 C4.180001,14.9333342 4.3533326,15.1666652 4.5,15.46 C4.6466674,15.7533348 4.72,16.133331 4.72,16.6 L4.72,20.24 C4.72,20.5333348 4.7699995,20.8066654 4.87,21.06 C4.9700005,21.3133346 5.2133314,21.44 5.6,21.44 L6.7,21.44 L6.7,23.12 L5.24,23.12 C4.906665,23.12 4.5866682,23.0666672 4.28,22.96 C3.9733318,22.8533328 3.7000012,22.6900011 3.46,22.47 C3.2199988,22.2499989 3.0300007,21.9766683 2.89,21.65 C2.7499993,21.3233317 2.68,20.9333356 2.68,20.48 L2.68,16.66 C2.68,16.3399984 2.6333338,16.080001 2.54,15.88 C2.4466662,15.679999 2.333334,15.5233339 2.2,15.41 C2.066666,15.2966661 1.9166675,15.2200002 1.75,15.18 C1.5833325,15.1399998 1.433334,15.12 1.3,15.12 L1.3,13.36 Z M7.9,13.36 C8.033334,13.36 8.1833325,13.3400002 8.35,13.3 C8.5166675,13.2599998 8.666666,13.1900005 8.8,13.09 C8.933334,12.9899995 9.0466662,12.8466676 9.14,12.66 C9.2333338,12.4733324 9.28,12.2400014 9.28,11.96 L9.28,8 C9.28,7.5466644 9.3499993,7.1566683 9.49,6.83 C9.6300007,6.5033317 9.8199988,6.2300011 10.06,6.01 C10.3000012,5.7899989 10.5733318,5.6266672 10.88,5.52 C11.1866682,5.4133328 11.506665,5.36 11.84,5.36 L13.3,5.36 L13.3,7.04 L12.2,7.04 C11.8133314,7.04 11.5700005,7.1666654 11.47,7.42 C11.3699995,7.6733346 11.32,7.9466652 11.32,8.24 L11.32,12 C11.32,12.3866686 11.2466674,12.7166653 11.1,12.99 C10.9533326,13.2633347 10.780001,13.4866658 10.58,13.66 C10.379999,13.8333342 10.1666678,13.9666662 9.94,14.06 C9.7133322,14.1533338 9.5200008,14.2066666 9.36,14.22 L9.36,14.26 C9.5200008,14.2733334 9.7133322,14.3166663 9.94,14.39 C10.1666678,14.4633337 10.379999,14.5866658 10.58,14.76 C10.780001,14.9333342 10.9533326,15.1666652 11.1,15.46 C11.2466674,15.7533348 11.32,16.133331 11.32,16.6 L11.32,20.24 C11.32,20.5333348 11.3699995,20.8066654 11.47,21.06 C11.5700005,21.3133346 11.8133314,21.44 12.2,21.44 L13.3,21.44 L13.3,23.12 L11.84,23.12 C11.506665,23.12 11.1866682,23.0666672 10.88,22.96 C10.5733318,22.8533328 10.3000012,22.6900011 10.06,22.47 C9.8199988,22.2499989 9.6300007,21.9766683 9.49,21.65 C9.3499993,21.3233317 9.28,20.9333356 9.28,20.48 L9.28,16.66 C9.28,16.3399984 9.2333338,16.080001 9.14,15.88 C9.0466662,15.679999 8.933334,15.5233339 8.8,15.41 C8.666666,15.2966661 8.5166675,15.2200002 8.35,15.18 C8.1833325,15.1399998 8.033334,15.12 7.9,15.12 L7.9,13.36 Z M20.3,18.6 C20.3,18.1733312 20.4566651,17.8066682 20.77,17.5 C21.0833349,17.1933318 21.4599978,17.04 21.9,17.04 C22.3266688,17.04 22.6999984,17.1866652 23.02,17.48 C23.3400016,17.7733348 23.5,18.1333312 23.5,18.56 C23.5,18.9866688 23.3433349,19.3533318 23.03,19.66 C22.7166651,19.9666682 22.3400022,20.12 21.9,20.12 C21.6866656,20.12 21.4833343,20.0800004 21.29,20 C21.0966657,19.9199996 20.9266674,19.813334 20.78,19.68 C20.6333326,19.546666 20.5166671,19.3866676 20.43,19.2 C20.3433329,19.0133324 20.3,18.8133344 20.3,18.6 Z M25.5,18.6 C25.5,18.1733312 25.6566651,17.8066682 25.97,17.5 C26.2833349,17.1933318 26.6599978,17.04 27.1,17.04 C27.5266688,17.04 27.8999984,17.1866652 28.22,17.48 C28.5400016,17.7733348 28.7,18.1333312 28.7,18.56 C28.7,18.9866688 28.5433349,19.3533318 28.23,19.66 C27.9166651,19.9666682 27.5400022,20.12 27.1,20.12 C26.8866656,20.12 26.6833343,20.0800004 26.49,20 C26.2966657,19.9199996 26.1266674,19.813334 25.98,19.68 C25.8333326,19.546666 25.7166671,19.3866676 25.63,19.2 C25.5433329,19.0133324 25.5,18.8133344 25.5,18.6 Z M41.1,15.12 C40.9533326,15.12 40.8000008,15.1399998 40.64,15.18 C40.4799992,15.2200002 40.333334,15.2966661 40.2,15.41 C40.066666,15.5233339 39.9533338,15.679999 39.86,15.88 C39.7666662,16.080001 39.72,16.3399984 39.72,16.66 L39.72,20.48 C39.72,20.9333356 39.6500007,21.3233317 39.51,21.65 C39.3699993,21.9766683 39.1800012,22.2499989 38.94,22.47 C38.6999988,22.6900011 38.4266682,22.8533328 38.12,22.96 C37.8133318,23.0666672 37.493335,23.12 37.16,23.12 L35.7,23.12 L35.7,21.44 L36.8,21.44 C37.1866686,21.44 37.4299995,21.3133346 37.53,21.06 C37.6300005,20.8066654 37.68,20.5333348 37.68,20.24 L37.68,16.6 C37.68,16.133331 37.7533326,15.7533348 37.9,15.46 C38.0466674,15.1666652 38.219999,14.9333342 38.42,14.76 C38.620001,14.5866658 38.8333322,14.4633337 39.06,14.39 C39.2866678,14.3166663 39.4799992,14.2733334 39.64,14.26 L39.64,14.22 C39.4799992,14.2066666 39.2866678,14.1533338 39.06,14.06 C38.8333322,13.9666662 38.620001,13.8333342 38.42,13.66 C38.219999,13.4866658 38.0466674,13.2633347 37.9,12.99 C37.7533326,12.7166653 37.68,12.3866686 37.68,12 L37.68,8.24 C37.68,7.9466652 37.6300005,7.6733346 37.53,7.42 C37.4299995,7.1666654 37.1866686,7.04 36.8,7.04 L35.7,7.04 L35.7,5.36 L37.16,5.36 C37.493335,5.36 37.8133318,5.4133328 38.12,5.52 C38.4266682,5.6266672 38.6999988,5.7899989 38.94,6.01 C39.1800012,6.2300011 39.3699993,6.5033317 39.51,6.83 C39.6500007,7.1566683 39.72,7.5466644 39.72,8 L39.72,11.96 C39.72,12.2400014 39.7666662,12.4733324 39.86,12.66 C39.9533338,12.8466676 40.066666,12.9899995 40.2,13.09 C40.333334,13.1900005 40.4799992,13.2599998 40.64,13.3 C40.8000008,13.3400002 40.9533326,13.36 41.1,13.36 L41.1,15.12 Z M47.7,15.12 C47.5533326,15.12 47.4000008,15.1399998 47.24,15.18 C47.0799992,15.2200002 46.933334,15.2966661 46.8,15.41 C46.666666,15.5233339 46.5533338,15.679999 46.46,15.88 C46.3666662,16.080001 46.32,16.3399984 46.32,16.66 L46.32,20.48 C46.32,20.9333356 46.2500007,21.3233317 46.11,21.65 C45.9699993,21.9766683 45.7800012,22.2499989 45.54,22.47 C45.2999988,22.6900011 45.0266682,22.8533328 44.72,22.96 C44.4133318,23.0666672 44.093335,23.12 43.76,23.12 L42.3,23.12 L42.3,21.44 L43.4,21.44 C43.7866686,21.44 44.0299995,21.3133346 44.13,21.06 C44.2300005,20.8066654 44.28,20.5333348 44.28,20.24 L44.28,16.6 C44.28,16.133331 44.3533326,15.7533348 44.5,15.46 C44.6466674,15.1666652 44.819999,14.9333342 45.02,14.76 C45.220001,14.5866658 45.4333322,14.4633337 45.66,14.39 C45.8866678,14.3166663 46.0799992,14.2733334 46.24,14.26 L46.24,14.22 C46.0799992,14.2066666 45.8866678,14.1533338 45.66,14.06 C45.4333322,13.9666662 45.220001,13.8333342 45.02,13.66 C44.819999,13.4866658 44.6466674,13.2633347 44.5,12.99 C44.3533326,12.7166653 44.28,12.3866686 44.28,12 L44.28,8.24 C44.28,7.9466652 44.2300005,7.6733346 44.13,7.42 C44.0299995,7.1666654 43.7866686,7.04 43.4,7.04 L42.3,7.04 L42.3,5.36 L43.76,5.36 C44.093335,5.36 44.4133318,5.4133328 44.72,5.52 C45.0266682,5.6266672 45.2999988,5.7899989 45.54,6.01 C45.7800012,6.2300011 45.9699993,6.5033317 46.11,6.83 C46.2500007,7.1566683 46.32,7.5466644 46.32,8 L46.32,11.96 C46.32,12.2400014 46.3666662,12.4733324 46.46,12.66 C46.5533338,12.8466676 46.666666,12.9899995 46.8,13.09 C46.933334,13.1900005 47.0799992,13.2599998 47.24,13.3 C47.4000008,13.3400002 47.5533326,13.36 47.7,13.36 L47.7,15.12 Z" id="{{-..-}}" fill="#0AA6D2"></path>
            </g>
        </g>
    </g>
</svg>