<?xml version="1.0" encoding="UTF-8"?>
<svg width="30px" height="28px" viewBox="0 0 30 28" version="1.1" xmlns="http://www.w3.org/2000/svg" xmlns:xlink="http://www.w3.org/1999/xlink">
    <!-- Generator: Sketch 41.2 (35397) - http://www.bohemiancoding.com/sketch -->
    <title>webhooks</title>
    <desc>Created with Sketch.</desc>
    <defs>
        <ellipse id="path-1" cx="22.2290865" cy="4.08636364" rx="2.12379808" ry="2.11363636"></ellipse>
        <mask id="mask-2" maskContentUnits="userSpaceOnUse" maskUnits="objectBoundingBox" x="0" y="0" width="4.24759615" height="4.22727273" fill="white">
            <use xlink:href="#path-1"></use>
        </mask>
        <ellipse id="path-3" cx="22.2290865" cy="4.08636364" rx="2.12379808" ry="2.11363636"></ellipse>
        <mask id="mask-4" maskContentUnits="userSpaceOnUse" maskUnits="objectBoundingBox" x="0" y="0" width="4.24759615" height="4.22727273" fill="white">
            <use xlink:href="#path-3"></use>
        </mask>
        <ellipse id="path-5" cx="22.2290865" cy="4.08636364" rx="2.12379808" ry="2.11363636"></ellipse>
        <mask id="mask-6" maskContentUnits="userSpaceOnUse" maskUnits="objectBoundingBox" x="0" y="0" width="4.24759615" height="4.22727273" fill="white">
            <use xlink:href="#path-5"></use>
        </mask>
    </defs>
    <g id="Page-1" stroke="none" stroke-width="1" fill="none" fill-rule="evenodd">
        <g id="Features" transform="translate(-209.000000, -4041.000000)" stroke="#F15242">
            <g id="webhooks" transform="translate(209.000000, 4040.000000)">
                <g id="Oval-33-+-Oval-33" transform="translate(1.341346, 18.247727)">
                    <path d="M2.39877327,0 C0.963211024,0.842146351 0,2.39669748 0,4.17514218 C0,6.84987911 2.17872724,9.01818182 4.86632348,9.01818182 C7.55391973,9.01818182 9.73264697,6.84987911 9.73264697,4.17514218 L20.5491491,4.17514218" id="Oval-33" stroke-width="2" stroke-linecap="square"></path>
                    <use id="Oval-33" mask="url(#mask-2)" stroke-width="4" xlink:href="#path-1"></use>
                </g>
                <g id="Oval-33-+-Oval-33" transform="translate(10.557108, 13.793052) rotate(-240.000000) translate(-10.557108, -13.793052) translate(-1.842892, 9.143052)">
                    <path d="M2.39877327,-9.37028233e-14 C0.963211024,0.842146351 -6.19948537e-14,2.39669748 -6.19948537e-14,4.17514218 C-6.19948537e-14,6.84987911 2.17872724,9.01818182 4.86632348,9.01818182 C7.55391973,9.01818182 9.73264697,6.84987911 9.73264697,4.17514218 L20.5491491,4.17514218" id="Oval-33" stroke-width="2" stroke-linecap="square"></path>
                    <use id="Oval-33" mask="url(#mask-4)" stroke-width="4" xlink:href="#path-3"></use>
                </g>
                <g id="Oval-33-+-Oval-33" transform="translate(20.217346, 15.618968) rotate(-120.000000) translate(-20.217346, -15.618968) translate(7.817346, 10.968968)">
                    <path d="M2.39877327,-3.86357613e-14 C0.963211024,0.842146351 3.74278386e-13,2.39669748 3.74278386e-13,4.17514218 C3.74278386e-13,6.84987911 2.17872724,9.01818182 4.86632348,9.01818182 C7.55391973,9.01818182 9.73264697,6.84987911 9.73264697,4.17514218 L20.5491491,4.17514218" id="Oval-33" stroke-width="2" stroke-linecap="square"></path>
                    <use id="Oval-33" mask="url(#mask-6)" stroke-width="4" xlink:href="#path-5"></use>
                </g>
            </g>
        </g>
    </g>
</svg>