<svg xmlns="http://www.w3.org/2000/svg" width="130" height="76" viewBox="0 0 130 76">
  <g fill="#354254" fill-rule="evenodd" transform="translate(3 29)">
    <polyline points="45.484 16.647 42.278 16.647 42.278 5.008 38.133 5.008 38.133 2.195 49.63 2.195 49.63 5.008 45.484 5.008 45.484 16.647"/>
    <polygon points="59.223 16.647 62.447 16.647 62.447 2.195 59.223 2.195"/>
    <polyline points="119.353 13.796 124.93 13.796 124.93 16.648 116.128 16.648 116.128 2.196 119.353 2.196 119.353 13.796"/>
    <path d="M73.1825178 2.19507317L78.4059462 2.19507317C82.2602074 2.19507317 86.095269 4.28507805 86.095269 9.38250732 86.095269 14.1867902 82.3363577 16.6469805 78.5968082 16.6469805L73.1825178 16.6469805 73.1825178 2.19507317zM76.3114064 13.8143659L78.3116494 13.8143659C81.0012962 13.8143659 82.7948801 12.0967854 82.7948801 9.36293659 82.7948801 6.76483902 80.9818535 5.0082 78.3868276 5.0082L76.3114064 5.0082 76.3114064 13.8143659zM103.991413 16.6469805L107.535645 16.6469805 101.719864 2.19507317 98.3911212 2.19507317 92.5186325 16.6469805 95.9664614 16.6469805 97.007453 13.7958732 102.960953 13.7958732 103.991413 16.6469805zM97.8710305 11.2287902L99.9983798 5.57608293 102.104666 11.2287902 97.8710305 11.2287902z"/>
    <polyline points="16.572 4.301 12.44 8.532 8.307 4.301 12.44 .073 16.572 4.301"/>
    <polyline points="16.572 12.762 12.44 16.992 8.307 12.762 12.44 8.532 16.572 12.762"/>
    <polyline points="8.307 4.301 4.174 8.532 .043 4.301 4.174 .072 8.307 4.301"/>
    <polyline points="24.837 4.301 20.705 8.532 16.572 4.301 20.705 .072 24.837 4.301"/>
  </g>
</svg>
