<svg xmlns="http://www.w3.org/2000/svg" width="148" height="76" viewBox="0 0 148 76">
  <g fill="#354254" fill-rule="evenodd" transform="translate(4 23)">
    <path fill-rule="nonzero" d="M25.3,3.95864662 L21.9,3.95864662 L21.12,1.86766917 C20.74,0.852631579 19.56,0.0203007519 18.5,0.0203007519 L10.7,0.0203007519 C9.64,0.0203007519 8.46,0.852631579 8.08,1.86766917 L7.3,3.95864662 L3.9,3.95864662 C1.74,3.95864662 0,5.72481203 0,7.89699248 L0,21.7218045 C0,23.893985 1.74,25.6804511 3.9,25.6804511 L25.3,25.6804511 C27.44,25.6804511 29.2,23.9142857 29.2,21.7218045 L29.2,7.89699248 C29.18,5.72481203 27.44,3.95864662 25.3,3.95864662 Z M14.6,21.7218045 C10.84,21.7218045 7.8,18.6157895 7.8,14.8195489 C7.8,11.0030075 10.86,7.91729323 14.6,7.91729323 C18.34,7.91729323 21.4,11.0233083 21.4,14.8195489 C21.4,18.6157895 18.34,21.7218045 14.6,21.7218045 Z"/>
    <ellipse cx="14.582" cy="14.799" rx="4.446" ry="4.38" transform="rotate(-89.744 14.582 14.799)"/>
    <path d="M50.52 16.3218045C50.52 18.5142857 49.24 19.9556391 46.98 19.9556391 44.7 19.9556391 43.42 18.5142857 43.42 16.3218045L43.42 5.56240602 39.88 5.56240602 39.88 16.6669173C39.88 20.4428571 42.64 23.0210526 46.96 23.0210526 51.28 23.0210526 54.04 20.4428571 54.04 16.6669173L54.04 5.56240602 50.5 5.56240602 50.5 16.3218045 50.52 16.3218045zM63.68 9.7443609C61.74 9.7443609 60.42 10.6781955 59.76 12.2616541L59.68 12.2616541 59.68 9.98796992 56.38 9.98796992 56.38 22.7368421 59.8 22.7368421 59.8 15.4285714C59.8 13.7842105 60.78 12.6270677 62.3 12.6270677 63.82 12.6270677 64.6 13.581203 64.6 15.2458647L64.6 22.7368421 68.02 22.7368421 68.02 14.5150376C68.04 11.5308271 66.46 9.7443609 63.68 9.7443609zM77.32 15.3676692L74.92 14.8398496C73.82 14.5759398 73.28 14.1496241 73.28 13.5203008 73.28 12.7082707 74.06 12.1601504 75.24 12.1601504 76.5 12.1601504 77.32 12.7894737 77.38 13.8045113L80.54 13.8045113C80.5 11.3278195 78.44 9.7037594 75.3 9.7037594 72.08 9.7037594 70 11.3075188 70 13.7233083 70 15.6112782 71.22 16.8699248 73.6 17.4180451L75.92 17.9458647C77.04 18.2097744 77.46 18.575188 77.46 19.224812 77.46 20.0571429 76.68 20.5849624 75.38 20.5849624 74.02 20.5849624 73.18 19.9759398 73.02 18.9L69.68 18.9C69.86 21.3766917 71.92 23.0210526 75.28 23.0210526 78.6 23.0210526 80.86 21.3766917 80.86 18.8593985 80.86 16.9511278 79.84 15.9360902 77.32 15.3676692z"/>
    <path fill-rule="nonzero" d="M89.9,9.78496241 C88.08,9.78496241 86.68,10.718797 86,12.2210526 L85.92,12.2210526 L85.92,9.98796992 L82.54,9.98796992 L82.54,26.8984962 L85.96,26.8984962 L85.96,20.5849624 L86.04,20.5849624 C86.7,22.0263158 88.12,22.9195489 89.94,22.9195489 C93.08,22.9195489 95.02,20.4428571 95.02,16.3421053 C95.04,12.2413534 93.08,9.78496241 89.9,9.78496241 Z M88.76,20.1383459 C87.08,20.1383459 85.98,18.656391 85.98,16.362406 C85.98,14.0887218 87.08,12.5661654 88.76,12.5661654 C90.48,12.5661654 91.54,14.0481203 91.54,16.362406 C91.54,18.6766917 90.46,20.1383459 88.76,20.1383459 Z"/>
    <rect width="3.42" height="17.174" x="96.88" y="5.562"/>
    <path fill-rule="nonzero" d="M108.22,9.7037594 C104.9,9.7037594 102.82,11.4090226 102.68,13.8857143 L105.8,13.8857143 C105.96,12.9518797 106.78,12.3022556 108.04,12.3022556 C109.32,12.3022556 110.14,12.9924812 110.14,14.1902256 L110.14,15.0225564 L107.02,15.2255639 C103.9,15.4082707 102.14,16.7684211 102.14,19.0827068 C102.14,21.3766917 103.96,22.9398496 106.34,22.9398496 C107.92,22.9398496 109.46,22.1481203 110.18,20.7879699 L110.26,20.7879699 L110.26,22.7368421 L113.56,22.7368421 L113.56,13.9669173 C113.54,11.4090226 111.46,9.7037594 108.22,9.7037594 Z M110.18,18.0676692 C110.18,19.4481203 108.94,20.4428571 107.46,20.4428571 C106.3,20.4428571 105.52,19.8541353 105.52,18.9 C105.52,17.9864662 106.24,17.4180451 107.52,17.3165414 L110.16,17.1541353 L110.16,18.0676692 L110.18,18.0676692 Z"/>
    <path d="M122.88 15.3676692L120.48 14.8398496C119.38 14.5759398 118.84 14.1496241 118.84 13.5203008 118.84 12.7082707 119.62 12.1601504 120.8 12.1601504 122.06 12.1601504 122.88 12.7894737 122.94 13.8045113L126.1 13.8045113C126.06 11.3278195 124 9.7037594 120.86 9.7037594 117.64 9.7037594 115.56 11.3075188 115.56 13.7233083 115.56 15.6112782 116.78 16.8699248 119.16 17.4180451L121.48 17.9458647C122.6 18.2097744 123.02 18.575188 123.02 19.224812 123.02 20.0571429 122.24 20.5849624 120.94 20.5849624 119.58 20.5849624 118.74 19.9759398 118.58 18.9L115.24 18.9C115.42 21.3766917 117.48 23.0210526 120.84 23.0210526 124.16 23.0210526 126.42 21.3766917 126.42 18.8593985 126.42 16.9511278 125.4 15.9360902 122.88 15.3676692zM135.58 9.7443609C133.66 9.7443609 132.3 10.6578947 131.64 12.2616541L131.56 12.2616541 131.56 5.56240602 128.2 5.56240602 128.2 22.7368421 131.62 22.7368421 131.62 15.4488722C131.62 13.7639098 132.56 12.6270677 134.18 12.6270677 135.74 12.6270677 136.54 13.6218045 136.54 15.2661654L136.54 22.7368421 139.96 22.7368421 139.96 14.5353383C139.96 11.5714286 138.36 9.7443609 135.58 9.7443609z"/>
  </g>
</svg>
