<svg xmlns="http://www.w3.org/2000/svg" width="125" height="76" viewBox="0 0 125 76">
  <g fill="#354254" fill-rule="evenodd" transform="translate(3.346 24.412)">
    <path fill-rule="nonzero" d="M5.84780488,13.4756471 C5.84780488,10.29 7.5654439,9.15564706 9.17227317,9.15564706 C11.1441951,9.15564706 12.4689951,10.8790588 12.4689951,13.446 C12.4689951,16.3736471 10.7836683,17.6814706 9.11678049,17.6814706 C6.86915122,17.6814706 5.84780488,15.4988824 5.84780488,13.4756471 Z M9.96409756,5.40776471 C7.61953171,5.40776471 6.2622439,6.47629412 5.60757073,7.21376471 C5.52889756,6.57794118 5.11603902,5.75294118 3.50323902,5.75294118 L0,5.75294118 L0,9.47135294 L1.43578537,9.47135294 C1.67918049,9.47135294 1.75767805,9.54952941 1.75767805,9.79641176 L1.75767805,26.7758824 L5.93262439,26.7758824 L5.93262439,20.4031765 C5.93262439,20.2312941 5.92946341,20.0703529 5.92489756,19.9267059 C6.57640976,20.5327059 7.8227122,21.3702353 9.76846829,21.3702353 C13.8492878,21.3702353 16.704,18.0892941 16.704,13.3897059 C16.704,8.61529412 13.9941659,5.40776471 9.96409756,5.40776471 Z"/>
    <path d="M22.3105171,17.0110588 L22.3105171,8.01352941 C22.3105171,6.49341176 21.5880585,5.75294118 20.1076683,5.75294118 L16.3764878,5.75294118 L16.3764878,9.47117647 L17.813678,9.47117647 C18.0556683,9.47117647 18.1341659,9.55094118 18.1341659,9.79623529 L18.1341659,18.7625294 C18.1341659,20.3061176 18.8336195,21.0231176 20.3324488,21.0231176 L24.0681951,21.0231176 L24.0681951,17.3377059 L22.6310049,17.3377059 C22.3999024,17.3377059 22.3105171,17.2438235 22.3105171,17.0112353"/>
    <path fill-rule="nonzero" d="M32.3659317,17.6814706 C30.1244488,17.6814706 29.098361,15.4988824 29.098361,13.4756471 C29.098361,10.29 30.8161756,9.15564706 32.4244098,9.15564706 C34.3963317,9.15564706 35.7211317,10.8790588 35.7211317,13.446 C35.7211317,16.3736471 34.0373854,17.6814706 32.3659317,17.6814706 Z M33.217639,5.40776471 C30.8700878,5.40776471 29.5157854,6.47629412 28.8581268,7.21376471 C28.7810341,6.57794118 28.3697561,5.75294118 26.7567805,5.75294118 L23.2521366,5.75294118 L23.2521366,9.47135294 L24.687922,9.47135294 C24.9297366,9.47135294 25.0082341,9.54952941 25.0082341,9.79641176 L25.0082341,26.7758824 L29.1863415,26.7758824 L29.1863415,20.4031765 C29.1863415,20.2312941 29.1817756,20.0703529 29.1772098,19.9267059 C29.8257366,20.5327059 31.0766049,21.3702353 33.0207805,21.3702353 C37.1031805,21.3702353 39.9547317,18.0892941 39.9547317,13.3897059 C39.9547317,8.61529412 37.246478,5.40776471 33.2179902,5.40776471 L33.217639,5.40776471 Z M44.6621268,11.1857647 C45.1150244,9.68752941 46.2471805,8.83747059 47.8125659,8.83747059 C49.0695805,8.83747059 50.0370146,9.80770588 50.2078829,11.1857647 L44.6621268,11.1857647 Z M47.8125659,5.40811765 C43.3141463,5.40811765 40.1682732,8.69064706 40.1682732,13.3902353 C40.1682732,18.0132353 43.5621073,21.3705882 48.2392976,21.3705882 C51.9179707,21.3705882 54.1656,19.1615294 54.2609561,19.0676471 L54.4290146,18.8991176 L52.6096976,15.8384118 L52.339961,16.0978235 C52.321522,16.1119412 50.6716683,17.6537647 48.4918244,17.6537647 C46.3997854,17.6537647 44.8684683,16.3586471 44.5065366,14.3276471 L54.4074146,14.3276471 L54.4305951,14.0495294 C54.438322,14.0119412 54.5198049,13.1107059 54.5198049,12.6698824 C54.5198049,8.32658824 51.8240195,5.40811765 47.8123902,5.40811765 L47.8125659,5.40811765 Z M62.2598049,17.6814706 C60.2740098,17.6814706 58.9892488,15.9956471 58.9892488,13.3897059 C58.9892488,10.8555882 60.3265171,9.15582353 62.316878,9.15582353 C64.573639,9.15582353 65.5858537,11.2664118 65.5858537,13.3616471 C65.5858537,16.5487059 63.8666341,17.6816471 62.2598049,17.6816471 L62.2598049,17.6814706 Z M69.7051317,17.0112353 L69.7051317,2.26429412 C69.7051317,0.744176471 68.9733659,0.00370588235 67.4729561,0.00370588235 L63.7417756,0.00370588235 L63.7417756,3.72352941 L65.1791415,3.72352941 C65.4209561,3.72352941 65.4994537,3.80170588 65.4994537,4.04841176 L65.4994537,6.71382353 C64.8834146,6.14982353 63.6801366,5.40776471 61.6081171,5.40776471 C57.5566244,5.40776471 54.7296585,8.69011765 54.7296585,13.3897059 C54.7296585,18.1642941 57.4379122,21.3702353 61.4679805,21.3702353 C63.7711024,21.3702353 65.0990634,20.286 65.7475902,19.5296471 C65.8322341,20.1891176 66.2528195,21.0232941 67.8148683,21.0232941 L71.432078,21.0232941 L71.432078,17.3377059 L70.0254439,17.3377059 C69.7945171,17.3377059 69.7051317,17.2441765 69.7051317,17.0112353 Z M80.7228878,5.55123529 C78.9852293,5.55123529 77.3861268,6.56841176 76.4371317,8.18858824 L76.4371317,7.84005882 C76.4371317,6.45582353 75.6837659,5.75276471 74.2049561,5.75276471 L70.6154927,5.75276471 L70.6154927,9.47117647 L72.051278,9.47117647 C72.2930927,9.47117647 72.3731707,9.54935294 72.3731707,9.79623529 L72.3731707,21.0232941 L76.5482927,21.0232941 L76.5482927,14.9128235 C76.5482927,14.1081176 76.6499707,13.3334118 76.8470049,12.6162353 C77.4756878,10.5086471 79.145561,9.75864706 80.4965268,9.75864706 C80.9757659,9.75864706 81.3238244,9.81017647 81.3299707,9.81176471 L81.6782049,9.86488235 L81.6782049,5.65605882 L81.423922,5.61229412 C81.4116293,5.60911765 81.0574244,5.55123529 80.7230634,5.55123529 L80.7228878,5.55123529 Z M87.6206634,17.0110588 L87.6206634,8.01352941 C87.6206634,6.49341176 86.9013659,5.75294118 85.4208,5.75294118 L82.0455805,5.75294118 L82.0455805,9.47117647 L83.1238244,9.47117647 C83.3673951,9.47117647 83.4443122,9.55094118 83.4443122,9.79623529 L83.4443122,18.7625294 C83.4443122,20.3061176 84.1453463,21.0231176 85.6473366,21.0231176 L89.3800976,21.0231176 L89.3800976,17.3377059 L87.9411512,17.3377059 C87.7100488,17.3377059 87.6206634,17.2438235 87.6206634,17.0112353 L87.6206634,17.0110588 Z"/>
    <path fill-rule="nonzero" d="M103.382868,5.75311765 L101.155259,5.75311765 C99.8534634,5.75311765 99.1555902,6.21088235 98.7427317,7.33429412 L96.0207805,15.0442941 C95.9266537,15.3301765 95.8388488,15.6506471 95.7633366,15.9584118 C95.684839,15.6506471 95.5908878,15.3255882 95.4876293,15.0397059 L92.7655024,7.33270588 C92.348078,6.19694118 91.6732098,5.75329412 90.3545561,5.75329412 L87.9852293,5.75329412 L87.9852293,9.47152941 L88.5998634,9.47152941 C88.9264976,9.47152941 89.0313366,9.58394118 89.1082537,9.79023529 L93.3216585,21.0234706 L98.0171122,21.0234706 L102.230517,9.79023529 C102.307434,9.58394118 102.415434,9.47152941 102.741893,9.47152941 L103.382868,9.47152941 L103.382868,5.75329412 L103.382868,5.75311765 Z M107.422244,11.1857647 C107.879883,9.68752941 109.007649,8.83747059 110.571278,8.83747059 C111.831454,8.83747059 112.797307,9.80770588 112.968351,11.1857647 L107.422244,11.1857647 Z M110.571278,5.40811765 C106.074439,5.40811765 102.930146,8.69064706 102.930146,13.3902353 C102.930146,18.0132353 106.32082,21.3705882 110.99801,21.3705882 C114.678263,21.3705882 116.927473,19.1615294 117.021424,19.0676471 L117.190888,18.8991176 L115.376137,15.8384118 L115.098673,16.0978235 C115.084976,16.1119412 113.425815,17.6537647 111.253698,17.6537647 C109.160078,17.6537647 107.628761,16.3586471 107.266829,14.3276471 L117.170868,14.3276471 L117.193873,14.0495294 C117.198615,14.0119412 117.283434,13.1107059 117.283434,12.6698824 C117.283434,8.32658824 114.585893,5.40811765 110.571278,5.40811765 Z M22.0249756,0.00458823529 L18.3029268,0.00458823529 L18.3029268,3.98082353 L22.0249756,3.98082353 L22.0249756,0.00458823529 Z M87.3370537,0.00458823529 L83.6136,0.00458823529 L83.6136,3.98082353 L87.3370537,3.98082353 L87.3370537,0.00458823529 Z"/>
  </g>
</svg>
