<svg xmlns="http://www.w3.org/2000/svg" width="127" height="76" viewBox="0 0 127 76">
  <path fill="#354254" d="M9.96915634,20.6276045 L9.96915634,18.9871465 C8.86106182,20.2876933 7.10763204,21 5.13818313,21 C2.73805703,20.9988259 0,19.326862 0,16.0457503 C0,12.5781474 2.70830822,11.1539254 5.13818313,11.1539254 C7.16887958,11.1539254 8.86086738,11.8045901 9.96915634,13.0738268 L9.96915634,10.8439545 C9.96915634,9.11093582 8.52351979,8.05773948 6.49204559,8.05773948 C4.83136208,8.05773948 3.35422679,8.67728977 2.09291619,9.97783657 L0.738664864,7.7176326 C2.46176253,6.04586443 4.61534295,5.3030303 6.98455363,5.3030303 C10.3070872,5.3030303 13.1989437,6.69613783 13.1989437,10.6901433 L13.1989437,20.6276045 L9.96915634,20.6276045 Z M9.96915634,17.2216435 L9.96915634,14.9324776 C9.19918717,13.9098087 7.81460373,13.3839933 6.43021472,13.3839933 C4.61534295,13.3839933 3.23095396,14.4669343 3.23095396,16.0768649 C3.23095396,17.7177142 4.61514851,18.7714976 6.43021472,18.7714976 C7.81460373,18.7703235 9.19899272,18.2427469 9.96915634,17.2216435 Z M15.7130282,20.6285815 L15.7130282,0 L18.9546604,0 L18.9546604,7.76323236 C20.1585893,6.15459944 21.887798,5.31988531 23.7403265,5.31988531 C27.5995332,5.31988531 30.3785211,8.31977362 30.3785211,13.1446949 C30.3785211,18.0929663 27.5690935,21 23.7403265,21 C21.8257479,21 20.0967342,20.0722358 18.9546604,18.5887122 L18.9546604,20.629168 L15.7130282,20.6285815 Z M22.8140622,18.1228753 C25.37646,18.1228753 27.013374,16.0499693 27.013374,13.144304 C27.013374,10.2679612 25.3768504,8.19583713 22.8140622,8.19583713 C21.2700284,8.19583713 19.6959449,9.09310595 18.9544653,10.2063839 L18.9544653,16.1447787 C19.6959449,17.2572748 21.2700284,18.1228753 22.8140622,18.1228753 Z M31.8450704,13.1359577 C31.8450704,8.83231917 34.7447422,5.3030303 39.4923697,5.3030303 C44.2407769,5.3030303 47.1390845,8.83231917 47.1390845,13.1359577 C47.1390845,17.4084814 44.2403872,21 39.4923697,21 C34.744937,20.9996086 31.8450704,17.4084814 31.8450704,13.1359577 Z M43.7787393,13.1359577 C43.7787393,10.5041082 42.2682986,8.18262474 39.4923697,8.18262474 C36.7483996,8.18262474 35.2063901,10.5044996 35.2063901,13.1359577 C35.2063901,15.797748 36.7482048,18.1202099 39.4923697,18.1202099 C42.2684935,18.1200142 43.7787393,15.7973566 43.7787393,13.1359577 Z M58.7990739,20.4179228 L58.7990739,18.442939 C57.7574034,19.6175541 55.920061,20.7878788 53.5928507,20.7878788 C50.4082269,20.7878788 48.8151408,19.0906057 48.8151408,16.0673807 L48.8151408,5.51515152 L52.0307322,5.51515152 L52.0307322,14.8642924 C52.0307322,17.1778338 53.1939501,17.9191109 55.0322604,17.9191109 C56.6549591,17.9191109 58.0643691,16.9617498 58.7988803,15.9729903 L58.7988803,5.51515152 L62.0140845,5.51515152 L62.0140845,20.4185079 L58.7988803,20.4185079 L58.7990739,20.4179228 Z M66.5499595,16.9404276 L66.5499595,8.35075142 L64.1091549,8.35075142 L64.1091549,5.54811172 L66.5499595,5.54811172 L66.5499595,1.48484848 L69.7549863,1.48484848 L69.7549863,5.54869552 L72.7462933,5.54869552 L72.7462933,8.35094602 L69.7549863,8.35094602 L69.7549863,16.1398402 C69.7549863,17.155656 70.2431859,17.9262749 71.1590181,17.9262749 C71.7689297,17.9262749 72.3186605,17.6487742 72.562471,17.371079 L73.3274648,19.8341404 C72.7457146,20.3572272 71.8005634,20.7878786 70.3346148,20.7878786 C67.8317001,20.7884624 66.5499595,19.4332629 66.5499595,16.9404276 Z M75.0035211,18.6365989 C75.0035211,17.5148998 75.9614567,16.5454545 77.0984971,16.5454545 C78.2357264,16.5454545 79.193662,17.5148998 79.193662,18.6365989 C79.193662,19.7874081 78.2353481,20.7878787 77.0984971,20.7878787 C75.9612677,20.7882617 75.0035211,19.7872166 75.0035211,18.6365989 Z M99.0248657,20.5757576 L99.0248657,10.8564656 C99.0248657,9.25182784 98.3188364,8.17160315 96.575724,8.17160315 C95.1371582,8.17160315 93.7903044,9.15880255 93.1467711,10.146587 L93.1467711,20.5753675 L89.9327805,20.5753675 L89.9327805,10.8564656 C89.9327805,9.25182784 89.2604179,8.17160315 87.5130488,8.17160315 C86.0744829,8.17160315 84.7580064,9.18981098 84.0833219,10.146587 L84.0833219,20.5753675 L80.8697183,20.5753675 L80.8697183,5.67298631 L84.0833219,5.67298631 L84.0833219,7.67897858 C84.7272422,6.78382937 86.6553267,5.3030303 88.9214309,5.3030303 C91.1242653,5.3030303 92.4720865,6.41328832 92.9619921,8.01831618 C93.7887566,6.69138913 95.7487664,5.3030303 97.982365,5.3030303 C100.677814,5.3030303 102.239437,6.78363437 102.239437,9.80763944 L102.239437,20.5757576 L99.0248657,20.5757576 Z M104.125,13.1353718 C104.125,8.80074697 107.273146,5.3030303 111.685855,5.3030303 C116.159999,5.30322598 119,8.70819201 119,13.4138194 L119,14.218441 L107.519272,14.218441 C107.767153,16.4483699 109.430354,18.3366477 112.238956,18.3366477 C113.722535,18.3366477 115.417136,17.7472702 116.497398,16.6643967 L117.978442,18.8013793 C116.466388,20.2257083 114.275441,21 111.929641,21 C107.426828,20.9984346 104.125,17.8719162 104.125,13.1353718 Z M111.655041,7.9659912 C108.908653,7.9659912 107.6123,10.1023868 107.489042,11.8967399 L115.882473,11.8967399 C115.78964,10.1325209 114.586121,7.9659912 111.655041,7.9659912 Z" transform="translate(4 25)"/>
</svg>
