<svg xmlns="http://www.w3.org/2000/svg" width="122" height="76" viewBox="0 0 122 76">
  <path fill="#354254" d="M89.885906,8.12 C89.885906,9.72 90.7174497,10.28 92.1033557,10.28 C94.6771812,10.28 94.9939597,7.36 93.9248322,6.52 C92.8557047,5.76 90.8758389,5.92 90.1234899,7.2 C90.0442953,7.36 89.885906,7.76 89.885906,8.12 Z M58.9208054,15.84 C58.9208054,19.84 59.6731544,29.92 66.4442953,27.24 C68.5033557,26.4 69.5724832,24 70.0872483,21.92 C70.4832215,20.24 70.5624161,17.44 70.5624161,15.6 C71.552349,15.6 73.7697987,14.68 74.7597315,14.2 C78.7194631,11.8 79.7885906,6.44 76.2248322,3.2 C75.4724832,2.52 74.4825503,1.96 73.4926174,1.6 C70.6812081,0.68 67.4738255,1 65.0583893,2.44 C60.7422819,5.12 58.9208054,10.92 58.9208054,15.84 Z M67.1966443,12.76 C66.7610738,12.6 66.0483221,12.36 65.533557,12 C64.6228188,11.4 64.5436242,11.92 64.5436242,12.92 C64.5436242,14.52 65.9295302,15.16 67.2758389,15.52 C67.2758389,17.44 67.5926174,24.52 64.5436242,24.52 C63.5536913,24.52 62.8805369,22.92 62.7221477,22.2 C61.9697987,19.44 62.2469799,14.88 62.7221477,12.12 C63.1181208,10.12 63.6328859,8.36 64.7812081,6.72 C65.6919463,5.64 66.0879195,4.96 67.4342282,4.4 C69.5724832,3.4 73.2946309,4.08 74.6805369,6.16 C75.7496644,7.84 75.1557047,10.32 73.7697987,11.48 C72.0275168,12.8 70.8791946,12.64 70.5624161,12.8 C70.5624161,11.8 70.9979866,10.56 71.2355705,9.56 C71.3147651,8.96 71.6315436,7.8 71.0771812,7.48 C69.6912752,6.64 68.2657718,7.96 67.790604,9.24 C67.3550336,10 67.1966443,11.36 67.1966443,12.76 Z M0.356375839,6.44 C0.356375839,6.52 0.43557047,6.76 0.514765101,6.84 C0.910738255,7.44 2.17785235,6.52 2.41543624,6.24 C3.56375839,5.4 5.62281879,4 7.12751678,4 C8.1966443,4 8.86979866,4.84 8.86979866,5.84 C8.86979866,7.68 8.55302013,8.24 8.03825503,9.92 L6.88993289,13.16 C5.82080537,13.16 1.26711409,13.08 1.26711409,14.24 C1.26711409,14.56 1.42550336,14.84 1.70268456,15.08 C2.01946309,15.56 2.37583893,16.08 2.93020134,16.24 C3.92013423,16.56 4.75167785,16.24 5.82080537,16.24 L4.43489933,20.08 C3.92013423,21.4 2.45503356,24.6 3.68255034,25.84 C4.07852349,26.24 4.75167785,26.08 5.14765101,25.84 C5.74161074,25.52 6.21677852,24.92 6.53355705,24.36 C7.20671141,23.28 8.27583893,20.04 8.67181208,18.68 L9.66174497,15.76 C11.6416107,15.6 14.1362416,15.08 15.9973154,15.08 C15.7597315,15.68 14.8489933,19.6 14.8489933,20.48 C14.8489933,21.8 14.9281879,23.16 15.7597315,24.08 C16.4328859,24.92 17.066443,25.4 18.4127517,25.4 C20.8677852,25.4 22.7684564,23.92 24.5107383,22.48 C24.6691275,22.4 24.6691275,22.32 24.8275168,22.16 C24.5107383,21.56 24.1543624,20.84 24.0751678,20.08 C23.9959732,20.16 23.1644295,21 22.4120805,21.4 C21.4221477,22.08 21.0261745,22.32 19.838255,22.32 C17.1852349,22.32 18.9275168,15.48 19.5214765,14.72 C19.6006711,14.64 19.7590604,14.56 19.957047,14.56 L22.1744966,14.32 C22.9268456,14.24 24.0751678,14.16 24.0751678,13.32 C24.0751678,13.08 23.9959732,12.72 23.8375839,12.56 C23.6,12.24 23.1644295,12.24 22.847651,12.24 C21.9369128,12.24 21.1053691,12.32 20.1946309,12.32 L21.1053691,9.48 C21.5013423,8.16 22.0161074,6.64 22.5704698,5.4 C22.8872483,4.56 23.3228188,3.24 22.6496644,2.48 C22.214094,2 21.1449664,1.8 20.3530201,2.64 L20.1154362,2.88 C19.4422819,3.64 18.7295302,5.8 18.3731544,6.8 C18.2147651,7.48 16.5516779,12.12 16.5516779,12.48 L10.3744966,12.72 C10.4536913,12.4 10.5328859,12.12 10.6120805,11.88 C11.2852349,9.48 11.9187919,7.36 11.9187919,4.8 C11.9187919,3.12 10.8496644,1.72 9.26577181,1.12 C6.53355705,0.12 3.00939597,1.8 1.26711409,4.04 C1.10872483,4.68 0.356375839,5.76 0.356375839,6.44 Z M106.873154,10.44 C106.2,10.44 105.487248,10.36 104.893289,10.52 C104.418121,10.6 104.14094,10.84 104.14094,11.12 C103.98255,12.36 106.873154,12.52 107.625503,12.52 C107.308725,13.92 107.308725,17.68 107.625503,19.2 C106.477181,19.8 103.269799,23.28 103.269799,19.96 C103.269799,17.72 104.101342,14.96 104.101342,13.64 C104.101342,12.12 103.111409,11.32 101.646309,12.04 C100.814765,12.44 100.339597,13.36 99.9040268,14.2 C99.4288591,15.2 98.914094,16.2 98.5181208,17.28 C98.4389262,17.44 98.4389262,17.6 98.2013423,17.6 C98.2013423,16 99.7060403,11.84 97.4489933,11.84 C96.2214765,11.84 95.785906,12.92 95.6275168,14 C95.3899329,15.32 95.2315436,17 95.033557,18.4 C95.033557,18.72 95.033557,19 94.9543624,19.32 C94.8751678,19.8 94.9543624,19.72 94.6375839,20.08 C93.8852349,20.76 90.8362416,23.4 90.8362416,21.16 C90.8362416,18.92 91.9053691,16 92.4993289,13.76 C92.6577181,13.08 92.9744966,11.92 91.9053691,11.92 C90.757047,11.92 89.8463087,12.16 89.4503356,13.24 C88.9355705,14.4 88.6979866,15.92 88.3812081,17.08 C88.3020134,17.4 87.5496644,17.68 87.1536913,17.84 C86.0053691,18.24 85.1738255,18 85.1738255,16.6 C85.1738255,15.12 86.5597315,11.92 84.5006711,11.92 C83.5107383,11.92 82.9959732,12.24 82.4416107,12.92 C82.0456376,13.4 81.6892617,14 81.3724832,14.68 C81.2932886,14.92 80.9765101,15.84 80.6993289,15.92 C80.6993289,14.84 80.7785235,13.76 80.7785235,12.6 C80.7785235,12 80.5409396,11.84 79.9469799,11.84 C79.1946309,11.84 78.7986577,12.08 78.6402685,12.6 C78.1651007,13.76 77.6503356,16.6 77.4127517,17.92 C77.333557,18.52 77.1751678,20.32 77.1751678,21.84 C77.1751678,23.32 77.333557,24.52 78.5610738,24.52 C79.3134228,24.52 79.709396,23.6 79.9469799,23 C80.5409396,21.6 81.0161074,20.08 81.5308725,18.6 L82.3624161,16.36 L82.5208054,16.36 C82.5208054,16.84 82.7583893,18.04 82.9563758,18.52 C83.1147651,19.2 83.352349,19.68 83.8671141,20.12 C84.3818792,20.56 84.9362416,20.8 85.609396,20.88 C86.0845638,20.96 86.7577181,20.8 87.1932886,20.64 C87.3516779,20.56 87.5100671,20.48 87.6684564,20.48 C87.5892617,21.4 87.4308725,22.56 87.8268456,23.48 C88.6583893,25.4 91.5489933,24.4 93.014094,23.72 C93.6080537,23.4 94.2416107,22.96 94.8355705,22.64 C94.8355705,24.48 96.3006711,25.24 97.409396,24.24 C97.7261745,23.92 98.3201342,22.84 98.5577181,22.24 C98.795302,21.76 101.012752,17 101.289933,17 C101.289933,17.4 101.131544,18.24 101.052349,18.76 C100.973154,20.28 100.73557,22.36 101.448322,23.68 C101.606711,24 101.963087,24.44 102.35906,24.6 C104.101342,25.28 107.625503,22.36 108.536242,22.28 C108.536242,22.68 109.288591,23.6 109.526174,23.88 C111.110067,25.28 112.891946,24.56 114.475839,23.56 C115.465772,22.96 117.049664,22.24 116.455705,20.8 C116.138926,19.88 113.881879,21.28 113.089933,21.64 C110.714094,22.56 110.634899,20.8 110.357718,19.16 C110.278523,18.68 110.357718,15.4 110.674497,15.08 C111.110067,14.6 111.585235,13.92 111.981208,13.32 C113.287919,13.32 114.713423,13.4 116.099329,13.4 C116.772483,13.4 117.326846,13.32 117.604027,12.92 C117.762416,12.52 117.762416,11.52 117.366443,11.32 C116.772483,11.08 114.31745,11.32 113.485906,11.16 L114.238255,9.92 C115.069799,8.52 115.624161,7.08 115.624161,5.24 C115.624161,4.32 115.386577,3.48 115.030201,3 C114.634228,2.4 114.040268,1.92 113.208725,1.92 C110.714094,1.92 109.169799,6.6 108.575839,8.68 C108.41745,9.16 108.338255,9.68 108.179866,10.16 C108.100671,10.48 108.179866,10.84 107.942282,10.84 C107.704698,10.44 107.031544,10.44 106.873154,10.44 Z M111.07047,10.6 C110.753691,10.52 110.674497,10.6 110.238926,10.6 C110.238926,9.6 111.624832,5.44 112.218792,4.76 C112.53557,4.36 113.72349,4.28 113.208725,6.08 C112.812752,7.52 111.822819,9.2 111.07047,10.6 Z M37.657047,14.2 C37.657047,13.28 37.8946309,11.88 38.1322148,10.96 C38.3697987,9.88 38.5281879,8.88 38.8845638,7.88 C39.1221477,6.88 40.3496644,3.2 41.6167785,3.2 C41.6959732,3.28 41.6959732,3.6 41.6959732,3.68 C41.6959732,5.44 40.1120805,9.6 39.3201342,11.28 C38.8845638,11.84 37.9738255,13.92 37.657047,14.2 Z M44.5073826,14.12 C44.5073826,12.2 45.814094,6.44 46.8832215,4.72 C47.1208054,4.32 47.6355705,3.24 48.1899329,3.24 C48.6651007,3.24 48.1899329,5.32 48.1899329,5.4 C48.1107383,5.88 47.952349,6.32 47.7543624,6.8 C47.0812081,9.04 46.1704698,10.96 45.1013423,13.04 C44.9825503,13.28 44.6657718,14.04 44.5073826,14.12 Z M44.4281879,2.92 C44.4281879,2.16 44.3489933,1.52 43.9926174,1 C43.0818792,-0.52 41.2604027,0.16 40.1912752,1 C39.5973154,1.4 39.4389262,1.68 39.042953,2.16 C35.9939597,5.92 33.7765101,13.72 34.4100671,18.64 C34.4100671,18.88 34.4892617,19.08 34.4892617,19.32 L33.4993289,20 C33.0637584,20.24 32.8261745,20.4 32.4302013,20.6 C31.5194631,21.08 29.8563758,21.76 28.7872483,21.08 C28.5496644,20.92 28.3120805,20.6 28.1932886,20.24 C28.5100671,20.16 28.866443,20 29.1832215,19.84 C31.0838926,19 32.4697987,17.84 33.3013423,15.84 C34.6080537,12.44 29.7375839,9.4 26.609396,13.6 C25.7778523,14.68 25.2234899,16.28 24.9463087,17.6 C24.5503356,20 25.104698,22.28 27.0845638,23.6 C29.1436242,24.92 32.1134228,23.84 34.014094,22.68 L35.2416107,21.84 C35.4,22.52 36.3107383,24 37.1422819,24.08 C38.290604,24.32 40.3496644,23.4 41.4187919,22.92 C41.5771812,22.84 42.1711409,22.48 42.3295302,22.44 C42.4087248,22.76 42.9234899,23.36 43.1610738,23.6 C44.2302013,24.6 45.5369128,24.04 46.7248322,23.6 L48.704698,22.68 C51.3577181,26.44 58.6040268,22.76 56.3865772,15 C56.3073826,14.76 56.1489933,14.52 56.1489933,14.24 C56.3865772,14.32 57.2973154,15 57.5348993,15.16 C57.6932886,15.32 57.7724832,15.4 58.0100671,15.48 C58.0100671,14.64 57.9308725,14 58.0892617,13.24 C56.5053691,12.16 55.357047,11.64 53.2979866,11.64 C51.9120805,11.64 50.4865772,12.24 49.4966443,13.12 C48.3483221,14.28 47.4375839,16.28 47.4375839,18.04 C47.4375839,18.8 47.5959732,19.44 47.5959732,20.12 C47.1208054,20.44 46.3684564,20.88 45.7744966,21.12 C45.2993289,21.28 45.0221477,21.28 44.8637584,20.88 C44.5469799,20.28 44.5469799,19.96 44.5469799,19.28 C44.5469799,18.2 46.1308725,15.36 46.7644295,14.36 L47.833557,12.52 C48.2295302,11.76 48.9026846,10.44 49.2194631,9.68 C50.1302013,7.76 51.1201342,5.16 51.1201342,2.92 C51.1201342,1.92 50.8825503,0.84 50.209396,0.32 C48.6255034,-0.76 46.566443,1.32 45.6557047,2.48 C44.9825503,3.32 44.3489933,4.64 44.2697987,4.72 C44.3489933,4.28 44.4281879,3.52 44.4281879,2.92 Z M41.1812081,17.28 C41.1812081,17.96 41.1812081,19.52 41.4187919,19.96 C41.3395973,20.04 41.2604027,20.04 41.1020134,20.12 C40.3496644,20.52 39.2805369,21.36 38.4489933,21.36 C38.290604,21.36 38.0134228,20.88 38.0134228,20.68 C37.2610738,18.84 38.9241611,16.28 39.8348993,14.84 C40.5872483,13.52 41.4979866,12.08 42.052349,10.84 L42.1315436,10.68 C42.2107383,10.6 42.1315436,10.68 42.2107383,10.6 C41.6959732,12.6 41.1812081,15 41.1812081,17.28 Z M27.8369128,18.2 C27.8369128,17.04 27.995302,16.44 28.5100671,15.52 C29.8167785,13.04 32.9845638,14.52 30.0939597,17.28 C29.6583893,17.6 28.6684564,18.2 27.8369128,18.2 Z M52.2288591,21.92 C49.9322148,21.92 50.3281879,18.6 50.5657718,17.16 C51.0409396,14.68 53.6147651,12.92 54.3671141,15.92 C54.4463087,16.36 54.4463087,16.52 54.4463087,17 C54.6442953,18.44 53.8919463,21.92 52.2288591,21.92 Z" transform="translate(2 22)"/>
</svg>
