<svg xmlns="http://www.w3.org/2000/svg" width="127" height="76" viewBox="0 0 127 76">
  <g fill="none" fill-rule="evenodd" transform="translate(3 25)">
    <path fill="#E34B5F" d="M29.7936842,19.5910714 C29.7937301,19.9573151 29.6484476,20.3085751 29.3898,20.5675714 L23.2114632,26.7531429 C23.0537026,26.9113986 22.8161926,26.9587939 22.6098832,26.8731886 C22.4035737,26.7875832 22.2691848,26.5858735 22.2694947,26.3622857 L22.2694947,12.5029286 L29.7082842,5.09785714 L29.7936842,5.09785714 L29.7936842,19.5910714 Z"/>
    <path fill="#E7CE9C" d="M24.8636,0.162 C24.7601559,0.0584022597 24.6198361,0.000198922585 24.4735211,0.000198922585 C24.327206,0.000198922585 24.1868862,0.0584022597 24.0834421,0.162 L14.8968421,9.35871429 L14.7684211,9.35871429 L14.7684211,19.7395714 L14.8968421,20.0121429 L22.2694947,12.6308571 L29.7936842,5.09785714 L24.8636,0.162 Z"/>
    <path fill="#1E7889" d="M4.44767788e-11,19.5910714 C-4.58568241e-05,19.9573151 0.145236659,20.3085751 0.403884211,20.5675714 L6.58222105,26.7531429 C6.7399816,26.9113986 6.97749163,26.9587939 7.18380106,26.8731886 C7.39011049,26.7875832 7.52449937,26.5858735 7.52418947,26.3622857 L7.52418947,12.5029286 L0.0860421053,5.09785714 L-1.08078951e-08,5.09785714 L4.44767788e-11,19.5910714 Z"/>
    <path fill="#97BAA6" d="M5.71024211,0.162 C5.60679799,0.0584022597 5.46647818,0.000198922585 5.32016316,0.000198922585 C5.17384813,0.000198922585 5.03352832,0.0584022597 4.93008421,0.162 L0,5.09785714 L7.52418947,12.6308571 L14.8968421,20.0121429 L14.8968421,9.35871429 L5.71024211,0.162 Z"/>
    <path fill="#354254" d="M39.04,19.5917143 L39.04,5.76257143 L42.7179789,5.76257143 L42.7179789,7.61657143 C43.4674721,6.25546224 44.9226948,5.43720195 46.4736526,5.50478571 C48.0673065,5.45572372 49.5515663,6.31336531 50.3063789,7.71942857 C51.7466211,6.20035714 52.8529684,5.50542857 54.5789474,5.50542857 C57.6912316,5.50542857 59.4403263,7.25657143 59.4403263,10.4753571 L59.4403263,19.5917143 L55.4778947,19.5917143 L55.4778947,12.0979286 C55.4778947,10.1693571 55.0663053,9.29121429 53.5515789,9.29121429 C52.0105263,9.29121429 51.1854211,10.2439286 51.1854211,12.0979286 L51.1854211,19.5917143 L47.1947368,19.5917143 L47.1947368,12.0979286 C47.1947368,10.1693571 46.7831474,9.29121429 45.2684211,9.29121429 C43.7273684,9.29121429 42.9022632,10.2439286 42.9022632,12.0979286 L42.9022632,19.5917143 L39.04,19.5917143 Z"/>
    <path fill="#354254" fill-rule="nonzero" d="M64.3537158,7.56514286 C66.4184617,5.47542611 69.5336429,4.82931123 72.2576882,5.92579224 C74.9817335,7.02227325 76.7832355,9.64744834 76.8285368,12.5865 C76.8823842,14.5343633 76.1280747,16.4175744 74.7449053,17.7885 C73.3680085,19.20228 71.4696372,19.9848913 69.4976211,19.9517143 C67.5186539,20.0065694 65.6133932,19.1984891 64.2760211,17.7370714 C62.9550181,16.3711647 62.2248517,14.5391074 62.2437579,12.6379286 C62.2371575,10.7317438 62.9977004,8.90323756 64.3537158,7.56514286 Z M69.5239474,16.0887857 C71.3630226,16.051864 72.8247179,14.5306343 72.7903368,12.6893571 C72.8463053,11.4846263 72.236204,10.3466366 71.2024265,9.72751157 C70.1686489,9.10838654 68.8786037,9.10838654 67.8448262,9.72751157 C66.8110486,10.3466366 66.2009473,11.4846263 66.2569158,12.6893571 C66.2313658,14.5275105 67.6883317,16.0438068 69.5239474,16.0894286 L69.5239474,16.0887857 Z"/>
    <path fill="#354254" d="M79.6358211,19.5917143 L79.6358211,5.76257143 L83.4942316,5.76257143 L83.4428632,7.61657143 C84.2617176,6.22308097 85.7920866,5.40720337 87.4040105,5.50478571 C90.2594526,5.50478571 92.1112842,7.30478571 92.1112842,10.4747143 L92.1112842,19.5917143 L88.0474,19.5917143 L88.0474,12.0979286 C88.0474,10.1693571 87.6358105,9.29121429 86.0671474,9.29121429 C84.4721579,9.29121429 83.6232947,10.2439286 83.6232947,12.0979286 L83.6232947,19.5917143 L79.6358211,19.5917143 Z"/>
    <path fill="#354254" fill-rule="nonzero" d="M109.455189,7.56514286 C111.519935,5.47542611 114.635117,4.82931123 117.359162,5.92579224 C120.083207,7.02227325 121.884709,9.64744834 121.930011,12.5865 C121.983858,14.5343633 121.229548,16.4175744 119.846379,17.7885 C118.469482,19.20228 116.571111,19.9848913 114.599095,19.9517143 C112.620128,20.0065694 110.714867,19.1984891 109.377495,17.7370714 C108.056492,16.3711647 107.326325,14.5391074 107.345232,12.6379286 C107.338631,10.7317438 108.099174,8.90323756 109.455189,7.56514286 Z M114.625421,16.0887857 C116.463736,16.0511635 117.924554,14.5305363 117.890526,12.69 C117.946495,11.4852692 117.336394,10.3472795 116.302616,9.72815443 C115.268838,9.10902939 113.978793,9.10902939 112.945016,9.72815443 C111.911238,10.3472795 111.301137,11.4852692 111.357105,12.69 C111.331921,14.5283932 112.789554,16.0445006 114.625421,16.0894286 L114.625421,16.0887857 Z"/>
    <polygon fill="#354254" points="95.013 19.592 95.013 16.707 100.698 9.342 95.013 9.342 95.013 5.763 105.276 5.763 105.276 9.033 100.26 16.012 105.379 16.012 105.379 19.591"/>
  </g>
</svg>
