<?xml version="1.0" encoding="UTF-8"?>
<svg width="58px" height="58px" viewBox="0 0 58 58" version="1.1" xmlns="http://www.w3.org/2000/svg" xmlns:xlink="http://www.w3.org/1999/xlink">
    <!-- Generator: Sketch 48.2 (47327) - http://www.bohemiancoding.com/sketch -->
    <title>report-results</title>
    <desc>Created with Sketch.</desc>
    <defs></defs>
    <g id="Reports" stroke="none" stroke-width="1" fill="none" fill-rule="evenodd">
        <g id="report-results" fill="#6FD350">
            <path d="M34,13.890625 L34,39.109375 C34,39.6616597 34.4477153,40.109375 35,40.109375 L35,40.109375 C35.5522847,40.109375 36,39.6616597 36,39.109375 L36,13.890625 C36,13.3383403 35.5522847,12.890625 35,12.890625 L35,12.890625 C34.4477153,12.890625 34,13.3383403 34,13.890625 Z M38,14.0138889 L38,39 C38,40.6568542 36.6568542,42 35,42 L35,42 C33.3431458,42 32,40.6568542 32,39 L32,14.0138889 C32,12.3570346 33.3431458,11.0138889 35,11.0138889 L35,11.0138889 C36.6568542,11.0138889 38,12.3570346 38,14.0138889 Z M26,28.0138889 L26,39.109375 C26,39.6616597 26.4477153,40.109375 27,40.109375 L27,40.109375 C27.5522847,40.109375 28,39.6616597 28,39.109375 L28,28.0138889 C28,27.4616041 27.5522847,27.0138889 27,27.0138889 L27,27.0138889 C26.4477153,27.0138889 26,27.4616041 26,28.0138889 Z M18,33.0138889 L18,39.109375 C18,39.6616597 18.4477153,40.109375 19,40.109375 L19,40.109375 C19.5522847,40.109375 20,39.6616597 20,39.109375 L20,33.0138889 C20,32.4616041 19.5522847,32.0138889 19,32.0138889 L19,32.0138889 C18.4477153,32.0138889 18,32.4616041 18,33.0138889 Z M30,28.0138889 L30,39 C30,40.6568542 28.6568542,42 27,42 L27,42 C25.3431458,42 24,40.6568542 24,39 L24,28.0138889 C24,26.3570346 25.3431458,25.0138889 27,25.0138889 L27,25.0138889 C28.6568542,25.0138889 30,26.3570346 30,28.0138889 Z M22,33.0138889 L22,39 C22,40.6568542 20.6568542,42 19,42 L19,42 C17.3431458,42 16,40.6568542 16,39 L16,33.0138889 C16,31.3570346 17.3431458,30.0138889 19,30.0138889 L19,30.0138889 C20.6568542,30.0138889 22,31.3570346 22,33.0138889 Z M44,21 C43.4477153,21 43,21.3795847 43,21.8478261 L43,39.1521739 C43,39.6204153 43.4477153,40 44,40 C44.5522847,40 45,39.6204153 45,39.1521739 L45,21.8478261 C45,21.3795847 44.5522847,21 44,21 Z M44,19 C45.6568542,19 47,20.3348547 47,21.9814815 L47,39.0185185 C47,40.6651453 45.6568542,42 44,42 C42.3431458,42 41,40.6651453 41,39.0185185 L41,21.9814815 C41,20.3348547 42.3431458,19 44,19 Z" id="Combined-Shape" fill-rule="nonzero"></path>
            <path d="M14,44 L45.5,44 C46.3284271,44 47,44.6715729 47,45.5 C47,46.3284271 46.3284271,47 45.5,47 L13.5,47 C13.3246823,47 13.1563895,46.9699229 13,46.9146471 C12.8436105,46.9699229 12.6753177,47 12.5,47 C11.6715729,47 11,46.3284271 11,45.5 L11,12.5 C11,11.6715729 11.6715729,11 12.5,11 C13.3284271,11 14,11.6715729 14,12.5 L14,44 Z" id="Combined-Shape" opacity="0.399456522"></path>
        </g>
    </g>
</svg>