<?xml version="1.0" encoding="UTF-8"?>
<svg width="58px" height="58px" viewBox="0 0 58 58" version="1.1" xmlns="http://www.w3.org/2000/svg" xmlns:xlink="http://www.w3.org/1999/xlink">
    <!-- Generator: Sketch 48.2 (47327) - http://www.bohemiancoding.com/sketch -->
    <title>report-review</title>
    <desc>Created with Sketch.</desc>
    <defs>
        <path d="M42.6575094,35.5590537 C39.4978016,37.7322746 35.141921,37.4472729 32.2959515,34.7040485 C29.2346828,31.5281226 29.2346828,26.4718774 32.2959515,23.2959515 C35.4718774,20.2346828 40.5281226,20.2346828 43.7040485,23.2959515 C46.4472729,26.141921 46.7322746,30.4978016 44.5590537,33.6575094 L49.6061773,38.704633 C50.1312742,39.2297299 50.1312742,40.0810803 49.6061773,40.6061773 C49.0810803,41.1312742 48.2297299,41.1312742 47.704633,40.6061773 L42.6575094,35.5590537 Z" id="path-1"></path>
    </defs>
    <g id="Reports" stroke="none" stroke-width="1" fill="none" fill-rule="evenodd">
        <g id="report-review">
            <path d="M15,13 C14.4477153,13 14,13.4477153 14,14 L14,24 C14,24.5522847 14.4477153,25 15,25 L34,25 C34.5522847,25 35,24.5522847 35,24 L35,14 C35,13.4477153 34.5522847,13 34,13 L15,13 Z M15,11 L34,11 C35.6568542,11 37,12.3431458 37,14 L37,24 C37,25.6568542 35.6568542,27 34,27 L15,27 C13.3431458,27 12,25.6568542 12,24 L12,14 C12,12.3431458 13.3431458,11 15,11 Z" id="Rectangle-11" fill="#F15242" fill-rule="nonzero"></path>
            <path d="M15,33 C14.4477153,33 14,33.4477153 14,34 L14,44 C14,44.5522847 14.4477153,45 15,45 L34,45 C34.5522847,45 35,44.5522847 35,44 L35,34 C35,33.4477153 34.5522847,33 34,33 L15,33 Z M15,31 L34,31 C35.6568542,31 37,32.3431458 37,34 L37,44 C37,45.6568542 35.6568542,47 34,47 L15,47 C13.3431458,47 12,45.6568542 12,44 L12,34 C12,32.3431458 13.3431458,31 15,31 Z" id="Rectangle-11-Copy" fill="#F15242" fill-rule="nonzero"></path>
            <path d="M32.5224647,14.1681603 C32.9590013,13.8617795 33.5489564,13.9857275 33.8401664,14.4450057 C34.1313763,14.904284 34.0135658,15.5249733 33.5770292,15.831354 L25.0272823,21.8319457 C24.70802,22.0560181 24.29198,22.0560181 23.9727177,21.8319457 L15.4229708,15.831354 C14.9864342,15.5249733 14.8686237,14.904284 15.1598336,14.4450057 C15.4510436,13.9857275 16.0409987,13.8617795 16.4775353,14.1681603 L24.5,19.7986819 L32.5224647,14.1681603 Z" id="Path-4" fill="#F15242" fill-rule="nonzero" opacity="0.399003623"></path>
            <path d="M24.5631246,39.805362 L32.5211718,34.1703018 C32.9555134,33.8627463 33.5450114,33.9832191 33.8378524,34.4393854 C34.1306933,34.8955516 34.0159844,35.5146704 33.5816427,35.8222259 L25.0975087,41.8298059 C24.7791189,42.0552564 24.3627121,42.0568463 24.04277,41.8338331 L15.4240958,35.8262531 C14.9876364,35.5220225 14.8686443,34.903796 15.1583195,34.4454056 C15.4479946,33.9870152 16.0366429,33.862044 16.4731023,34.1662746 L24.5631246,39.805362 Z" id="Path-4" fill="#F15242" fill-rule="nonzero" opacity="0.399003623"></path>
            <g id="Combined-Shape">
                <use fill="#FFFFFF" fill-rule="evenodd" xlink:href="#path-1"></use>
                <path stroke="#F15242" stroke-width="2" d="M42.0908173,34.735124 L42.7763142,34.2636449 L48.4117397,39.8990705 C48.5463124,40.0336432 48.7644978,40.0336432 48.8990705,39.8990705 C49.0336432,39.7644978 49.0336432,39.5463124 48.8990705,39.4117397 L43.2636449,33.7763142 L43.735124,33.0908173 C45.6637606,30.2867176 45.367554,26.4627032 43.0100575,24.0159353 C40.2214704,21.3280216 35.7785296,21.3280216 33.0159353,23.9899425 C30.3280216,26.7785296 30.3280216,31.2214704 32.9899425,33.9840647 C35.4627032,36.367554 39.2867176,36.6637606 42.0908173,34.735124 Z"></path>
                <path stroke="#FFFFFF" stroke-width="2" d="M42.5111297,36.8268876 C39.0145209,38.7875144 34.5553142,38.270703 31.5759678,35.3980394 C28.1413441,31.8347748 28.1413441,26.1652252 31.6019606,22.5759678 C35.1652252,19.1413441 40.8347748,19.1413441 44.4240322,22.6019606 C47.2723894,25.5570006 47.7876238,30.0146303 45.8268947,33.5111368 L50.3132841,37.9975262 C51.2289053,38.9131474 51.2289053,40.3976628 50.3132841,41.3132841 C49.3976628,42.2289053 47.9131474,42.2289053 46.9975262,41.3132841 L42.5111297,36.8268876 Z"></path>
            </g>
        </g>
    </g>
</svg>