<?xml version="1.0" encoding="UTF-8"?>
<svg width="58px" height="58px" viewBox="0 0 58 58" version="1.1" xmlns="http://www.w3.org/2000/svg" xmlns:xlink="http://www.w3.org/1999/xlink">
    <!-- Generator: Sketch 48.2 (47327) - http://www.bohemiancoding.com/sketch -->
    <title>report-day</title>
    <desc>Created with Sketch.</desc>
    <defs></defs>
    <g id="Reports" stroke="none" stroke-width="1" fill="none" fill-rule="evenodd">
        <g id="report-day" fill="#FFC111">
            <path d="M35,13 L23,13 L23,15.5 C23,16.3284271 22.3284271,17 21.5,17 C20.6715729,17 20,16.3284271 20,15.5 L20,13 L16,13 C14.3431458,13 13,14.3431458 13,16 L13,21 L45,21 L45,16 C45,14.3431458 43.6568542,13 42,13 L38,13 L38,15.5 C38,16.3284271 37.3284271,17 36.5,17 C35.6715729,17 35,16.3284271 35,15.5 L35,13 Z M38,11 L42,11 C44.7614237,11 47,13.2385763 47,16 L47,37.3431458 C47,38.4040117 46.5785726,39.4214274 45.8284271,40.1715729 L40.1715729,45.8284271 C39.4214274,46.5785726 38.4040117,47 37.3431458,47 L16,47 C13.2385763,47 11,44.7614237 11,42 L11,16 C11,13.2385763 13.2385763,11 16,11 L20,11 L20,10.5 C20,9.67157288 20.6715729,9 21.5,9 C22.3284271,9 23,9.67157288 23,10.5 L23,11 L35,11 L35,10.5 C35,9.67157288 35.6715729,9 36.5,9 C37.3284271,9 38,9.67157288 38,10.5 L38,11 Z M45,23 L13,23 L13,42 C13,43.6568542 14.3431458,45 16,45 L37,45 L37,41 C37,38.790861 38.790861,37 41,37 L45,37 L45,23 Z M44.1715729,39 L41,39 C39.8954305,39 39,39.8954305 39,41 L39,44.1715729 L44.1715729,39 Z" id="Combined-Shape" fill-rule="nonzero"></path>
            <rect id="Rectangle-5-Copy" opacity="0.39379529" x="16" y="34" width="5" height="8" rx="2.5"></rect>
            <rect id="Rectangle-5-Copy" opacity="0.39379529" x="23" y="29" width="5" height="13" rx="2.5"></rect>
            <rect id="Rectangle-5-Copy" opacity="0.39379529" x="30" y="31" width="5" height="11" rx="2.5"></rect>
        </g>
    </g>
</svg>