<?xml version="1.0" encoding="UTF-8"?>
<svg width="30px" height="31px" viewBox="0 0 30 31" version="1.1" xmlns="http://www.w3.org/2000/svg" xmlns:xlink="http://www.w3.org/1999/xlink">
    <!-- Generator: Sketch 41.2 (35397) - http://www.bohemiancoding.com/sketch -->
    <title>campaigns</title>
    <desc>Created with Sketch.</desc>
    <defs></defs>
    <g id="Page-1" stroke="none" stroke-width="1" fill="none" fill-rule="evenodd">
        <g id="Features" transform="translate(-820.000000, -3059.000000)">
            <g id="campaigns" transform="translate(821.000000, 3060.000000)">
                <path d="M26.5495061,0.103756821 L0.55298035,12.4156276 C-0.0308338312,12.6921712 -0.18318534,13.4157304 0.244678478,13.8832026 L6.20918007,20.4009176 C6.20798045,20.4206166 6.20318198,20.4403156 6.20318198,20.4603934 L6.20318198,25.5745551 C6.20318198,26.423506 7.29163554,26.8436249 7.91783623,26.2363655 C7.94142872,26.2132571 7.98461498,26.1712073 8.04459588,26.1124892 C8.14376432,26.0151307 8.25412919,25.9060286 8.37329127,25.787077 C8.71278321,25.448027 9.05267503,25.1010216 9.37097372,24.7650023 C9.44375056,24.6888581 9.51412816,24.6134715 9.58290626,24.5399791 C9.65528323,24.4623197 9.72326159,24.3880696 9.79044021,24.3141984 L13.2453406,28.0892074 C13.7203894,28.6082001 14.6021087,28.490385 14.9072116,27.8675937 L27.9030752,1.34971815 C28.3017483,0.536755846 27.3956367,-0.297041927 26.5495061,0.103756821 L26.5495061,0.103756821 Z" id="Imported-Layers" stroke="#FFC111" stroke-width="2"></path>
                <path d="M7.57099596,20.6689312 C7.19295744,20.2654594 7.2258125,19.6456062 7.6503024,19.2793401 L18.3329395,10.0619507 C18.7547777,9.69797245 18.7973434,9.73828386 18.4309173,10.148735 L8.98862792,20.7254891 C8.62090135,21.137397 8.01819706,21.1462185 7.63830077,20.740764 L7.57099596,20.6689312 Z" id="Path" fill="#FFC111"></path>
            </g>
        </g>
    </g>
</svg>