<?xml version="1.0" encoding="UTF-8"?>
<svg width="31px" height="31px" viewBox="0 0 31 31" version="1.1" xmlns="http://www.w3.org/2000/svg" xmlns:xlink="http://www.w3.org/1999/xlink">
    <!-- Generator: Sketch 41.2 (35397) - http://www.bohemiancoding.com/sketch -->
    <title>logs</title>
    <desc>Created with Sketch.</desc>
    <defs></defs>
    <g id="Page-1" stroke="none" stroke-width="1" fill="none" fill-rule="evenodd">
        <g id="Features" transform="translate(-816.000000, -1156.000000)" fill="#FFC111">
            <g id="logs" transform="translate(816.000000, 1156.000000)">
                <path d="M15.0571429,7.09716839 C11.3707146,7.2883214 8.31195729,9.85212671 7.37875234,13.2907028 C6.37484155,13.3577758 5.5540992,14.0939406 5.35857945,15.0571429 L2.2215276,15.0571429 C2.45031397,8.07167944 8.07167944,2.45031397 15.0571429,2.2215276 L15.0571429,7.09716839 Z M15.9428571,7.09716839 C16.9284929,7.14827674 17.8692589,7.36899662 18.736526,7.73069884 L21.1855532,3.48885925 C19.5875013,2.73107191 17.8141229,2.28281489 15.9428571,2.2215276 L15.9428571,7.09716839 Z M15.0571429,23.9028316 C11.3707146,23.7116786 8.31195729,21.1478733 7.37875234,17.7092972 C6.37484155,17.6422242 5.5540992,16.9060594 5.35857945,15.9428571 L2.2215276,15.9428571 C2.45031397,22.9283206 8.07167944,28.549686 15.0571429,28.7784724 L15.0571429,23.9028316 Z M15.9428571,23.9028316 C17.296407,23.8326457 18.5653376,23.4425917 19.6755039,22.8068147 C20.0774026,23.2169516 20.6375546,23.4714286 21.2571429,23.4714286 C22.4800591,23.4714286 23.4714286,22.4800591 23.4714286,21.2571429 C23.4714286,20.6375546 23.2169516,20.0774026 22.8068147,19.6755039 C23.4425917,18.5653376 23.8326457,17.296407 23.9028316,15.9428571 L28.7784724,15.9428571 C28.549686,22.9283206 22.9283206,28.549686 15.9428571,28.7784724 L15.9428571,23.9028316 Z M15.9428571,23.0157624 C17.1192807,22.9475217 18.2232248,22.6091567 19.1935859,22.061771 C19.0962672,21.8123706 19.0428571,21.540994 19.0428571,21.2571429 C19.0428571,20.0342266 20.0342266,19.0428571 21.2571429,19.0428571 C21.540994,19.0428571 21.8123706,19.0962672 22.061771,19.1935859 C22.6091567,18.2232248 22.9475217,17.1192807 23.0157624,15.9428571 L17.2156208,15.9428571 C17.0554047,16.5653404 16.5653404,17.0554047 15.9428571,17.2156208 L15.9428571,23.0157624 Z M15.0571429,23.0157624 C11.8197462,22.827971 9.13123235,20.5945454 8.26499466,17.5888789 C8.99055216,17.3330895 9.54284611,16.7099779 9.69856341,15.9428571 L13.7843792,15.9428571 C13.9445953,16.5653404 14.4346596,17.0554047 15.0571429,17.2156208 L15.0571429,23.0157624 Z M15.0571429,7.98423758 C11.8197462,8.17202901 9.13123235,10.4054546 8.26499466,13.4111211 C8.99055216,13.6669105 9.54284611,14.2900221 9.69856341,15.0571429 L13.7843792,15.0571429 C13.9445953,14.4346596 14.4346596,13.9445953 15.0571429,13.7843792 L15.0571429,7.98423758 Z M15.9428571,7.98423758 C16.7676987,8.03208411 17.5569092,8.21272424 18.2894272,8.50509663 L15.9428571,12.5694752 L15.9428571,7.98423477 Z M23.9028316,15.0571429 C23.7718532,12.5311947 22.5269101,10.2999392 20.6498763,8.8452502 L23.1000733,4.60138457 C26.4244281,6.92392585 28.6367068,10.7286576 28.7784724,15.0571429 L23.9028316,15.0571429 Z M23.0157624,15.0571429 C22.8882495,12.8589075 21.8175785,10.9137395 20.2024045,9.62029414 L17.1621746,14.8861269 C17.1827675,14.9418663 17.2006367,14.9989254 17.2156208,15.0571429 L23.0157624,15.0571429 Z M15.5,31 C24.0604136,31 31,24.0604136 31,15.5 C31,6.93958638 24.0604136,0 15.5,0 C6.93958638,0 0,6.93958638 0,15.5 C0,24.0604136 6.93958638,31 15.5,31 Z" id="Oval-9-Copy-2"></path>
            </g>
        </g>
    </g>
</svg>