<?xml version="1.0" encoding="UTF-8"?>
<svg width="100px" height="100px" viewBox="0 0 100 100" version="1.1" xmlns="http://www.w3.org/2000/svg" xmlns:xlink="http://www.w3.org/1999/xlink">
    <!-- Generator: Sketch 40 (33762) - http://www.bohemiancoding.com/sketch -->
    <title>grow</title>
    <desc>Created with Sketch.</desc>
    <defs>
        <polygon id="path-1" points="3 57 63 57 53 104 13 104"></polygon>
        <mask id="mask-2" maskContentUnits="userSpaceOnUse" maskUnits="objectBoundingBox" x="0" y="0" width="60" height="47" fill="white">
            <use xlink:href="#path-1"></use>
        </mask>
        <polygon id="path-3" points="0 54 66 54 64 66 2 66"></polygon>
        <mask id="mask-4" maskContentUnits="userSpaceOnUse" maskUnits="objectBoundingBox" x="0" y="0" width="66" height="12" fill="white">
            <use xlink:href="#path-3"></use>
        </mask>
        <path d="M44.6977742,36 C50.053707,36 51.670154,29.5 54.3955485,29.5 C57.1209429,29.5 50.053707,23 44.6977742,23 C39.3418414,23 35,25.9101491 35,29.5 C35,33.0898509 39.3418414,36 44.6977742,36 Z" id="path-5"></path>
        <mask id="mask-6" maskContentUnits="userSpaceOnUse" maskUnits="objectBoundingBox" x="0" y="0" width="20" height="13" fill="white">
            <use xlink:href="#path-5"></use>
        </mask>
        <path d="M22.6977742,41 C28.053707,41 29.670154,34.5 32.3955485,34.5 C35.1209429,34.5 28.053707,28 22.6977742,28 C17.3418414,28 13,30.9101491 13,34.5 C13,38.0898509 17.3418414,41 22.6977742,41 Z" id="path-7"></path>
        <mask id="mask-8" maskContentUnits="userSpaceOnUse" maskUnits="objectBoundingBox" x="0" y="0" width="20" height="13" fill="white">
            <use xlink:href="#path-7"></use>
        </mask>
        <path d="M28.6977742,19 C34.053707,19 35.670154,12.5 38.3955485,12.5 C41.1209429,12.5 34.053707,6 28.6977742,6 C23.3418414,6 19,8.91014913 19,12.5 C19,16.0898509 23.3418414,19 28.6977742,19 Z" id="path-9"></path>
        <mask id="mask-10" maskContentUnits="userSpaceOnUse" maskUnits="objectBoundingBox" x="0" y="0" width="20" height="13" fill="white">
            <use xlink:href="#path-9"></use>
        </mask>
    </defs>
    <g id="Page-1" stroke="none" stroke-width="1" fill="none" fill-rule="evenodd">
        <g id="grow">
            <g id="Group-12" transform="translate(0.000000, -4.000000)">
                <rect id="Rectangle-4" fill="#ECF9E9" x="0" y="4" width="100" height="100" rx="50"></rect>
                <g id="Group-8" transform="translate(17.000000, 0.000000)">
                    <use id="Rectangle-9" stroke="#6FD350" mask="url(#mask-2)" stroke-width="4" fill="#FFFFFF" xlink:href="#path-1"></use>
                    <use id="Rectangle-10" stroke="#6FD350" mask="url(#mask-4)" stroke-width="4" fill="#FFFFFF" xlink:href="#path-3"></use>
                    <rect id="Rectangle-11" fill="#6FD350" x="32" y="20" width="3" height="34"></rect>
                    <use id="Oval-2" stroke="#6FD350" mask="url(#mask-6)" stroke-width="4" fill="#9AE084" xlink:href="#path-5"></use>
                    <path d="M36.5,29.5 L52.5,28.5" id="Line" stroke="#6FD350" stroke-linecap="square"></path>
                    <use id="Oval-2" stroke="#6FD350" mask="url(#mask-8)" stroke-width="4" fill="#9AE084" transform="translate(23.000000, 34.500000) rotate(-160.000000) translate(-23.000000, -34.500000) " xlink:href="#path-7"></use>
                    <path d="M15.2988362,35.6408564 L31.2988362,34.6408564" id="Line" stroke="#6FD350" stroke-linecap="square" transform="translate(23.298836, 35.140856) rotate(-160.000000) translate(-23.298836, -35.140856) "></path>
                    <use id="Oval-2" stroke="#6FD350" mask="url(#mask-10)" stroke-width="4" fill="#9AE084" transform="translate(29.000000, 12.500000) rotate(-122.000000) translate(-29.000000, -12.500000) " xlink:href="#path-9"></use>
                    <path d="M20.8409356,13.6889837 L36.8409356,12.6889837" id="Line" stroke="#6FD350" stroke-linecap="square" transform="translate(28.840936, 13.188984) rotate(-122.000000) translate(-28.840936, -13.188984) "></path>
                </g>
            </g>
        </g>
    </g>
</svg>