<?xml version="1.0" encoding="UTF-8"?>
<svg width="110px" height="110px" viewBox="0 0 110 110" version="1.1" xmlns="http://www.w3.org/2000/svg" xmlns:xlink="http://www.w3.org/1999/xlink">
    <!-- Generator: Sketch 40.1 (33804) - http://www.bohemiancoding.com/sketch -->
    <title>health</title>
    <desc>Created with Sketch.</desc>
    <defs></defs>
    <g id="Page-1" stroke="none" stroke-width="1" fill="none" fill-rule="evenodd">
        <g id="health">
            <rect id="Rectangle-4" fill-opacity="0.150079257" fill="#84D2E8" x="15" y="15" width="80" height="80" rx="40"></rect>
            <g id="Group-21" transform="translate(31.000000, 27.000000)">
                <path d="M27.8824651,49.0008537 C26.6740651,48.4984937 25.5287451,48.0060137 24.3530251,48.0417337 C23.2540651,48.0592137 22.1353451,48.3920937 20.9505051,48.7424537 C18.6857051,49.4135337 16.1176651,50.1758137 12.9857051,48.9438537 C8.9896251,47.3736937 7.1337051,45.5185337 5.1037451,42.6472537 C-1.5135749,33.2779737 -1.7309349,19.0431737 4.6553451,13.3606537 C7.6003451,10.7363737 11.5485451,9.60549366 15.4823051,10.2492137 C17.9371051,10.6535337 21.1465851,11.3831337 23.6462251,12.6568937 C25.0344238,13.3606537 25.6806641,12.6568937 25.6806641,12.6568937 C25.6806641,12.6568937 27.8824651,11.9697266 31.5547851,11.0928137 C32.9326651,10.7599337 34.3067451,10.5197737 35.5242651,10.4604937 C38.4213851,10.3206537 41.5062251,11.3626137 43.9823051,13.3188537 C50.1481851,18.1881737 49.8571051,33.5394137 43.4267451,42.6472537 C41.0965851,45.9486937 39.6237051,47.7658537 34.1494251,49.7365337 C33.4251451,49.9979737 32.7365851,50.1051337 32.0746251,50.1051337 C30.5310651,50.1051337 29.1471051,49.5290537 27.8824651,49.0008537 Z" id="Page-1" stroke="#0AA6D2" stroke-width="2" fill="#84D2E8"></path>
                <path d="M29.34856,4.52624 C26.91428,7.06464 26.17176,8.48356 26,11.60336 C29.3333867,9.90627612 31.6379394,7.01599779 32.9374172,4.85681946 C33.7015031,3.58723432 33.9847493,2.86167419 34.28248,2 C32.5926907,2.34754212 30.74392,3.0716 29.34856,4.52624 Z" id="Path" stroke="#0AA6D2" stroke-width="2" stroke-linecap="round" stroke-linejoin="round" fill="#84D2E8"></path>
                <path d="M15.5,0.5 C23.6340332,5.54907227 25,12 25,12" id="Line" stroke="#0AA6D2" stroke-width="2" stroke-linecap="round" stroke-linejoin="round"></path>
                <path d="M5.9169451,23.28176 L5.8660251,23.28176 C5.3173051,23.25516 4.8924651,22.78928 4.9190651,22.23676 C5.0383851,19.7698 5.9997851,17.6266 7.6269451,16.19552 C9.0283851,14.9666 10.8060251,14.37304 12.6231851,14.52124 C13.1726651,14.56532 13.5823051,15.0464 13.5374651,15.59588 C13.4933851,16.14536 13.0092651,16.54892 12.4628251,16.51016 C11.1837451,16.403 9.9335451,16.82784 8.9447851,17.695 C7.7280251,18.76356 7.0060251,20.41124 6.9140651,22.33176 C6.8844251,22.86604 6.4451451,23.28176 5.9169451,23.28176 L5.9169451,23.28176 Z" id="Path" fill="#FFFFFF"></path>
                <g id="Group-20" transform="translate(26.000000, 17.000000)">
                    <path d="M20.0792273,28.3499305 C29.2496097,28.3499305 36.8615808,21.8531667 38.3251864,13.3288051 C38.4922708,12.355669 37.3852117,11.1930357 36.4348691,10.4165887 C24.1423804,10.4165887 19.1310894,10.3891774 3.28561444,10.3851593 C2.85321856,10.3850496 1.59868526,11.2967187 1.63687827,11.7693505 C2.38667845,21.0479964 10.3571771,28.3499305 20.0792273,28.3499305 Z" id="Oval-16" stroke="#0AA6D2" stroke-width="2" stroke-linejoin="round" fill="#FFFFFF" transform="translate(19.989036, 19.367545) rotate(-40.000000) translate(-19.989036, -19.367545) "></path>
                    <path d="M16.2248289,19.0592291 C19.3417848,19.0592291 21.9290464,16.8510195 22.4265168,13.953642 C22.4833077,13.6228791 22.1070252,13.2277073 21.7840097,12.9637978 C17.6058693,12.9637978 15.9025627,12.9544809 10.5167843,12.9531151 C10.3698157,12.9530779 9.94340759,13.2629485 9.95638915,13.4235931 C10.2112416,16.5773471 12.9203645,19.0592291 16.2248289,19.0592291 Z" id="Oval-16" fill-opacity="0.410750679" fill="#84D2E8" transform="translate(16.194173, 16.006172) rotate(-40.000000) translate(-16.194173, -16.006172) "></path>
                    <path d="M16.7591943,15.623282 C17.5876215,15.623282 18.2591943,15.1873488 18.2591943,14.6495978 C18.2591943,14.1118469 17.5876215,13.6759136 16.7591943,13.6759136 C15.9307672,13.6759136 14.5710565,14.1626642 14.6167955,14.5636072 C14.6625346,14.9645503 15.9307672,15.623282 16.7591943,15.623282 Z" id="Oval-17" fill="#0AA6D2" transform="translate(16.437432, 14.649598) rotate(75.000000) translate(-16.437432, -14.649598) "></path>
                </g>
            </g>
        </g>
    </g>
</svg>