<?xml version="1.0" encoding="UTF-8"?>
<svg width="110px" height="110px" viewBox="0 0 110 110" version="1.1" xmlns="http://www.w3.org/2000/svg" xmlns:xlink="http://www.w3.org/1999/xlink">
    <!-- Generator: Sketch 40.1 (33804) - http://www.bohemiancoding.com/sketch -->
    <title>vacation</title>
    <desc>Created with Sketch.</desc>
    <defs>
        <path d="M40.0068764,26.1305976 C44.26294,25.3896981 49.6734792,24.4563978 53.1298639,23.891871 C51.5432726,14.8938651 44.1542748,8.38144305 35.5081118,7.54853579 C35.2926143,9.53021643 34.6204533,16.3919637 34.1268164,21.4647513 C35.3886281,21.335855 36.742816,21.0949046 36.742816,21.0949046 C36.742816,21.0949046 41.0011675,19.9543659 41.3417865,21.0949046 C40.8238822,22.3893713 40.359689,24.3611546 40.0068764,26.1305976 Z" id="path-1"></path>
        <mask id="mask-2" maskContentUnits="userSpaceOnUse" maskUnits="objectBoundingBox" x="-2" y="-2" width="23.0030475" height="22.5820618">
            <rect x="32.1268164" y="5.54853579" width="23.0030475" height="22.5820618" fill="white"></rect>
            <use xlink:href="#path-1" fill="black"></use>
        </mask>
    </defs>
    <g id="Page-1" stroke="none" stroke-width="1" fill="none" fill-rule="evenodd">
        <g id="vacation">
            <rect id="Rectangle-4" fill-opacity="0.150079257" fill="#84D2E8" x="15" y="15" width="80" height="80" rx="40"></rect>
            <g id="Group-4" transform="translate(28.000000, 3.000000)">
                <path d="M32.5857388,77.4715483 C28.7487092,73.3568754 29.287386,62.8922609 33.2496357,60.0732613 C38.0332586,57.8337755 41.3617021,52.8739936 41.3617021,47.2638889 C41.3617021,44.9659813 40.8032777,42.7989367 39.8151601,40.8919169 C38.9607697,38.2487639 37.8677693,34.4440954 37.8677693,32.2777778 C37.8677693,28.148867 40.212766,20.75 40.212766,20.75 C40.212766,20.75 39.97404,20.6537063 39.5281132,20.5004775 C39.9718481,20.2652171 40.212766,20.012741 40.212766,19.75 C40.212766,18.4766768 34.5544073,17.4444444 27.5744681,17.4444444 C20.5945289,17.4444444 14.9361702,18.4766768 14.9361702,19.75 C14.9361702,19.9178833 15.0345325,20.0815757 15.2213172,20.2392637 C15.0043906,20.5397127 14.9361702,20.75 14.9361702,20.75 C14.9361702,20.75 16.9759807,28.4160473 16.9759807,32.2777778 C16.9759807,34.7190458 15.8961412,38.742465 15.1154128,41.3323794 C14.263789,43.129988 13.787234,45.1410997 13.787234,47.2638889 C13.787234,52.8958792 17.1416973,57.8724627 21.9553508,60.0993463 C25.8838248,62.9554569 26.4161643,73.3638572 22.5969437,77.4682344 C18.091829,77.908856 14.9361702,78.9294208 14.9361702,80.1180556 C14.9361702,81.7097095 20.5945289,83 27.5744681,83 C34.5544073,83 40.212766,81.7097095 40.212766,80.1180556 C40.212766,78.9323909 37.0728579,77.9139573 32.5857388,77.4715483 Z" id="Combined-Shape" fill="#FFFFFF"></path>
                <path d="M17.2340426,32.4943644 C17.2340426,32.4943644 22.9024269,34.2688429 25.736619,34.2688429 C27.8775921,34.2688429 30.6487698,32.8830306 33.4251787,32.4943644 C36.9063142,32.0070445 37.9272357,32.4943644 37.9272357,32.4943644 L38.807451,38.4261136 L40.7990151,42.5773519 L41.5294423,46.692003 L40.9364611,50.4925673 L39.1704205,55.3699205 L35.9373546,58.4696994 L32.5174742,59.79894 C32.5174742,59.79894 26.7980386,61.5393643 22.505236,59.79894 C18.2124335,58.0585158 17.1038896,56.1405029 17.1038896,56.1405029 L14.6012508,52.0838284 L13.4276305,46.2225613 L15.1622548,41.2951118 L17.0780834,35.4220242" id="Line" stroke="#0AA6D2" stroke-linecap="square" fill="#E0F4F9"></path>
                <path d="M32.5857388,77.4715483 C28.7487092,73.3568754 29.287386,62.8922609 33.2496357,60.0732613 C38.0332586,57.8337755 41.3617021,52.8739936 41.3617021,47.2638889 C41.3617021,44.9659813 40.8032777,42.7989367 39.8151601,40.8919169 C38.9607697,38.2487639 37.8677693,34.4440954 37.8677693,32.2777778 C37.8677693,28.6114559 39.7167502,22.3668418 40.131057,21.0136123 C40.1287769,21.0172666 40.12645,21.0209183 40.1240763,21.0245674 C40.1851957,20.8369889 40.212766,20.75 40.212766,20.75 C40.212766,20.75 38.0544638,20.1736111 35.3578199,19.5972222 C40.212766,19.4766768 34.5544073,18.4444444 27.5744681,18.4444444 C27.5033651,18.4444444 27.4323992,18.4445516 27.361575,18.444765 C27.3317925,18.4445518 27.3022072,18.4444444 27.2728233,18.4444444 C27.2057406,18.4444444 27.1375706,18.445056 27.0683665,18.4462593 C20.323051,18.49472 14.9361702,19.5075982 14.9361702,20.75 C14.9389731,20.7605358 16.9759807,28.4187014 16.9759807,32.2777778 C16.9759807,34.7190458 15.8961412,38.742465 15.1154128,41.3323794 C14.263789,43.129988 13.787234,45.1410997 13.787234,47.2638889 C13.787234,52.8958792 17.1416973,57.8724627 21.9553508,60.0993463 C25.8838248,62.9554569 26.4161643,73.3638572 22.5969437,77.4682344 C18.091829,77.908856 14.9361702,78.9294208 14.9361702,80.1180556 C14.9361702,81.7097095 20.5945289,83 27.5744681,83 C34.5544073,83 40.212766,81.7097095 40.212766,80.1180556 C40.212766,78.9323909 37.0728579,77.9139573 32.5857388,77.4715483 Z" id="Combined-Shape" stroke="#0AA6D2" stroke-width="2" stroke-linecap="round" stroke-linejoin="round"></path>
                <polyline id="Path-3" stroke="#0AA6D2" stroke-width="2" stroke-linecap="round" stroke-linejoin="round" points="19.9127883 22.5786949 16.8385347 8.35201009 0.794381649 0.538675944"></polyline>
                <path d="M25.5559757,48.6936035 L19.9479344,22.7413401" id="Path-3" stroke="#48BDDE" stroke-width="2" stroke-linecap="round" stroke-linejoin="round"></path>
                <ellipse id="Oval-9" stroke="#0AA6D2" stroke-width="2" cx="27.5744681" cy="20.75" rx="12.6382979" ry="2.30555556"></ellipse>
                <g id="Combined-Shape">
                    <use fill="#84D2E8" fill-rule="evenodd" xlink:href="#path-1"></use>
                    <use stroke="#0AA6D2" mask="url(#mask-2)" stroke-width="4" xlink:href="#path-1"></use>
                </g>
                <path d="M40.787234,8.64583333 L39.8848591,10.7324287" id="Line" stroke="#0AA6D2" stroke-linecap="round"></path>
                <path d="M47.6808511,12.1041667 L45.3829787,14.4097222" id="Line" stroke="#0AA6D2" stroke-linecap="round"></path>
                <path d="M52.2765957,16.7152778 L48.8297872,19.0208333" id="Line" stroke="#0AA6D2" stroke-linecap="round"></path>
            </g>
        </g>
    </g>
</svg>